<svg width="90" height="90" viewBox="0 0 90 90" fill="none" xmlns="http://www.w3.org/2000/svg">
<path fill-rule="evenodd" clip-rule="evenodd" d="M21.2187 65.6052H71.7686C71.7686 65.6052 71.4938 47.7597 66.668 43.2963C66.668 43.2963 67.6649 37.6275 66.668 35.2089C66.668 35.2089 63.9285 33.6764 62.419 35.2089C62.419 35.2089 61.9305 33.9562 60.6246 35.2089C60.6246 35.2089 59.7698 32.9697 57.3188 35.2089C57.3188 35.2089 55.7316 33.8783 54.3464 35.2089C54.3464 35.2089 53.1196 33.6966 51.5924 34.6414C51.5924 34.6414 50.0763 32.9153 48.4746 34.6414C48.4746 34.6414 46.2721 33.9649 45.5714 35.2089C45.5714 35.2089 44.0784 33.4109 42.4766 34.6414C42.4766 34.6414 40.5628 32.58 38.8714 34.6414C38.8714 34.6414 36.8637 33.9553 36.0252 35.2089C36.0252 35.2089 34.4653 33.6704 32.7467 34.6414C32.7467 34.6414 31.388 32.9452 29.8998 34.6414C29.8998 34.6414 28.4864 33.1592 27.004 35.0713C27.004 35.0713 19.6893 43.97 21.2187 55.6344V65.6052Z" fill="#B8CDF3"/>
<path d="M30.5813 31.1336L30.1405 31.2069L30.9905 36.3169L31.4313 36.2436L30.5813 31.1336Z" fill="#B8CDF3"/>
<path d="M57.7252 32.7562L57.306 32.6013L55.5109 37.4605L55.9301 37.6154L57.7252 32.7562Z" fill="#B8CDF3"/>
<path fill-rule="evenodd" clip-rule="evenodd" d="M52.5097 35.868L52.9651 35.7404L51.4641 30.3675L50.9192 30.2985L52.5097 35.868Z" fill="#B8CDF3"/>
<path fill-rule="evenodd" clip-rule="evenodd" d="M59.699 31.1667L56.8428 29.3652C56.8059 29.3419 56.7951 29.293 56.8181 29.2561C56.8415 29.2192 56.8903 29.2081 56.9272 29.2314L59.8367 31.0667C59.868 31.0864 59.8815 31.1252 59.869 31.16L59.1175 33.2773C59.1027 33.3185 59.0576 33.34 59.0164 33.3254C58.9752 33.3108 58.9538 33.2656 58.9683 33.2244L59.699 31.1667Z" fill="#B8CDF3"/>
<path fill-rule="evenodd" clip-rule="evenodd" d="M56.0301 31.8817L59.074 33.1782C59.1138 33.1953 59.1326 33.2418 59.1155 33.2819C59.0984 33.322 59.0519 33.3407 59.0121 33.3236L55.899 31.9979C55.8604 31.9814 55.8413 31.9376 55.8558 31.8981L56.8108 29.2713C56.8256 29.2303 56.8711 29.2091 56.9119 29.224C56.9531 29.2389 56.9742 29.2843 56.9594 29.3253L56.0301 31.8817Z" fill="#B8CDF3"/>
<path fill-rule="evenodd" clip-rule="evenodd" d="M47.9584 26.5822L48.7883 30.0003C48.7985 30.0427 48.7724 30.0855 48.7303 30.0958C48.6878 30.1061 48.6449 30.0801 48.6347 30.0376L47.7779 26.5093C47.772 26.4842 47.7786 26.4577 47.7957 26.4383C47.8128 26.419 47.8382 26.4092 47.8639 26.4121L52.519 26.9498C52.5622 26.9548 52.5935 26.9941 52.5885 27.0374C52.5833 27.0808 52.5441 27.1119 52.5009 27.1069L47.9584 26.5822Z" fill="#B8CDF3"/>
<path fill-rule="evenodd" clip-rule="evenodd" d="M53.341 30.5255L52.4334 27.0484C52.4225 27.0061 52.4479 26.9629 52.4901 26.9519C52.5322 26.9409 52.5754 26.9662 52.5866 27.0085L53.5235 30.5986C53.5301 30.624 53.5235 30.651 53.5064 30.6708C53.4889 30.6905 53.4632 30.7003 53.4372 30.697L48.7016 30.0975C48.6581 30.092 48.6275 30.0524 48.6331 30.0091C48.6384 29.9658 48.6782 29.9351 48.7214 29.9406L53.341 30.5255Z" fill="#B8CDF3"/>
<path fill-rule="evenodd" clip-rule="evenodd" d="M31.913 30.2872L31.5095 27.4999C31.5032 27.4567 31.4631 27.4267 31.4199 27.433C31.3767 27.4392 31.3467 27.4793 31.353 27.5225L31.7565 30.3099C31.7628 30.3531 31.8029 30.3831 31.8461 30.3768C31.8893 30.3705 31.9193 30.3304 31.913 30.2872Z" fill="#B8CDF3"/>
<path fill-rule="evenodd" clip-rule="evenodd" d="M29.0236 31.929L31.7935 30.2312C31.8307 30.2084 31.8794 30.22 31.9022 30.2572C31.925 30.2944 31.9133 30.3432 31.8761 30.366L29.0145 32.12C28.9931 32.1331 28.9667 32.1353 28.9434 32.1258C28.9201 32.1163 28.9027 32.0964 28.8966 32.072L28.2009 29.3177C28.1922 29.2832 28.2076 29.2471 28.2386 29.2296L31.3923 27.4424C31.4302 27.4209 31.4785 27.4342 31.5 27.4722C31.5215 27.5102 31.5082 27.5585 31.4702 27.58L28.369 29.3374L29.0236 31.929Z" fill="#B8CDF3"/>
<path d="M41.2509 30.784L40.5963 30.7L39.7932 36.9538L40.4478 37.0379L41.2509 30.784Z" fill="#628DDF"/>
<path fill-rule="evenodd" clip-rule="evenodd" d="M38.6652 27.1168L38.054 31.5721L43.4731 32.3644L44.0209 28.1384L38.6652 27.1168Z" fill="#628DDF"/>
<path fill-rule="evenodd" clip-rule="evenodd" d="M34.5782 35.9567C34.5782 35.9567 33.7864 36.0422 32.872 36.1409C31.2212 36.319 29.8389 37.4714 29.3665 39.0631C28.105 43.3141 25.7566 51.227 25.7566 51.227C25.7326 51.3703 25.863 51.5451 26.0485 51.4966C26.0562 51.6585 26.2459 51.8488 26.4501 51.7714C26.5215 51.9436 26.6669 52.0043 26.8305 51.9732C26.8483 52.1638 27.0847 52.3037 27.285 52.2493C27.4319 52.2095 27.5221 51.9182 27.5595 51.9732C27.6634 52.1265 27.8455 52.156 27.9537 52.1115C28.2143 52.0046 28.2904 51.7064 28.2904 51.7064L32.2452 40.787L32.4799 42.2361C32.4799 42.2361 27.8146 51.5078 27.9537 65.6053C27.9537 65.6053 27.0702 66.3241 26.8305 66.885H32.4799L35.768 47.0813L39.0473 66.885L44.8786 66.8437C44.8786 66.8437 44.5039 65.9681 43.8898 65.8755C43.8898 65.8755 42.4753 46.7645 39.5165 42.2361L39.554 40.787L43.8898 51.8243C44.0244 52.1827 44.1714 52.4598 44.3402 52.5903C44.5876 52.5294 44.4919 52.1118 44.3402 51.6362C44.291 51.3284 44.5732 51.3539 44.7618 51.7714C46.0962 54.7266 46.7857 52.4016 46.6015 51.1598C46.6015 51.1598 43.3989 43.0731 41.7952 39.023C41.2343 37.6068 40.0265 36.5469 38.5494 36.1748C37.7122 35.964 36.9732 35.7778 36.9732 35.7778L37.074 34.6743C37.074 34.6743 37.738 34.3799 37.669 34.0042C37.6553 33.921 37.6034 33.8489 37.5287 33.8093C37.4544 33.7697 37.3656 33.7671 37.2886 33.8022C37.2437 33.8195 37.2025 33.8467 37.1744 33.8832C37.1744 33.8832 37.1744 33.7935 37.1744 33.659C37.1741 33.347 37.0462 33.0485 36.8208 32.8328C36.5951 32.6171 36.2914 32.5027 35.9796 32.5162C35.9056 32.5194 35.8309 32.5226 35.7573 32.5258C35.124 32.5532 34.5946 33.0168 34.4841 33.6411C34.4841 33.6411 34.1117 33.2879 34.0296 33.7448C34.0296 33.7448 33.9459 34.3063 34.3917 34.2488C34.3917 34.2488 34.2768 34.9443 34.6582 35.1983L34.5782 35.9567Z" fill="#628DDF"/>
<path fill-rule="evenodd" clip-rule="evenodd" d="M56.037 35.9337C56.037 35.9337 56.793 36.021 57.6737 36.1228C59.3119 36.3122 60.6791 37.4607 61.1482 39.0417C62.4082 43.2873 64.7645 51.227 64.7645 51.227C64.7885 51.3703 64.6581 51.5451 64.4726 51.4966C64.4649 51.6585 64.2752 51.8488 64.071 51.7714C63.9996 51.9436 63.8542 52.0043 63.6906 51.9732C63.6728 52.1638 63.4364 52.3037 63.2361 52.2493C63.0893 52.2095 62.999 51.9182 62.9616 51.9732C62.8577 52.1265 62.6756 52.156 62.5674 52.1115C62.3068 52.0046 62.2308 51.7064 62.2308 51.7064L58.2759 40.787L58.0412 42.2361C58.0412 42.2361 62.7065 51.5078 62.5674 65.6053C62.5674 65.6053 63.4509 66.3241 63.6906 66.885H58.0412L54.7531 47.0813L51.4738 66.885L45.6425 66.8437C45.6425 66.8437 46.0172 65.9681 46.6313 65.8755C46.6313 65.8755 48.0458 46.7645 51.0047 42.2361L50.9672 40.787L46.6313 51.8243C46.5027 51.8672 46.1595 52.4184 45.966 52.5903C45.8193 52.7206 45.6776 52.9961 45.4848 52.9634C45.106 52.8991 45.1208 52.5875 45.0538 52.5903C44.738 52.6034 44.7537 52.3133 44.7537 52.3133C44.7537 52.3133 44.7186 52.5537 44.3405 52.1115C44.1738 51.9169 44.3405 51.6362 44.3405 51.6362C44.3405 51.6362 44.0147 51.7133 43.9253 51.0131C43.9253 51.0131 47.1186 43.024 48.7222 39.0113C49.2858 37.6019 50.4906 36.5479 51.9627 36.1772C52.8032 35.9653 53.548 35.7778 53.548 35.7778C53.565 35.595 53.548 35.2082 53.548 35.2082C53.548 35.2082 53.4341 34.8906 53.4472 34.6743C53.4472 34.6743 52.7831 34.3799 52.8521 34.0042C52.8658 33.921 52.9177 33.8489 52.9924 33.8093C53.0668 33.7697 53.1555 33.7671 53.2325 33.8022C53.2774 33.8195 53.3186 33.8467 53.3467 33.8832C53.3467 33.8832 53.3467 33.7935 53.3467 33.659C53.347 33.347 53.475 33.0485 53.7003 32.8328C53.926 32.6171 54.2297 32.5027 54.5415 32.5162C54.6155 32.5194 54.6902 32.5226 54.7639 32.5258C55.3971 32.5532 55.9265 33.0168 56.037 33.6411C56.037 33.6411 56.4191 33.5243 56.4766 33.8832C56.4766 33.8832 56.5355 34.2947 56.1683 34.3206C56.1683 34.3206 56.1201 34.9025 55.9429 35.2082L56.037 35.9337Z" fill="#628DDF"/>
<path fill-rule="evenodd" clip-rule="evenodd" d="M66.8967 59.8791C69.2465 59.996 71.5163 59.9351 73.0817 59.8886L73.0821 59.8906L73.8325 67.1453C73.8325 67.1453 74.8429 67.897 75.0043 68.4076L68.5327 67.6697L66.8967 59.8791ZM55.4685 59.2897C56.9954 59.3124 59.2029 59.1461 61.5814 59.212C61.0088 61.8622 60.457 64.4897 59.9313 67.2882L53.5944 67.9952C53.5944 67.9952 54.2799 66.833 54.8337 66.7216C54.8337 66.7216 54.9701 63.4474 55.4685 59.2897ZM60.123 42.0362C59.9566 41.7997 59.8423 41.5401 59.8387 41.5318L58.3826 38.6737C58.3826 38.6737 58.5414 35.1376 61.5916 35.3307C61.5916 35.3307 62.0554 33.786 63.4436 33.6702C63.4436 33.6702 63.1102 32.2795 64.5535 32.3134C64.5535 32.3134 65.7411 32.4061 65.7737 33.5414L65.7483 34.0213C65.7483 34.0213 67.3829 33.6474 68.2444 36.1434C68.2444 36.1434 70.2895 35.6476 70.0253 38.7542C70.0253 38.7542 70.247 41.4979 67.8899 42.8301L60.8886 42.6427L60.123 42.0362ZM65.8274 29.9729C66.5475 29.9729 67.1319 30.5574 67.1319 31.2774C67.1319 31.9974 66.5475 32.5819 65.8274 32.5819C65.1076 32.5819 64.5228 31.9974 64.5228 31.2774C64.5228 30.5574 65.1076 29.9729 65.8274 29.9729Z" fill="white"/>
<path fill-rule="evenodd" clip-rule="evenodd" d="M63.8126 33.4952C63.8155 33.4841 63.8205 33.4734 63.8284 33.464C63.8778 33.4038 63.9335 33.4412 63.9407 33.4467C63.9536 33.4562 63.9835 33.4823 63.97 33.5321C63.9667 33.5439 63.9259 33.6167 63.9045 33.6407C63.8518 33.7001 63.7707 33.7141 63.6966 33.7214C63.5171 33.7393 63.3435 33.7623 63.1695 33.8146C62.6526 33.97 62.1483 34.2812 61.8482 34.7393C61.7602 34.8736 61.691 35.0245 61.6588 35.1823C61.6538 35.2069 61.6686 35.3244 61.6683 35.3783C61.6676 35.4181 61.6551 35.4442 61.6482 35.4533C61.6456 35.4568 61.6179 35.491 61.5616 35.4825C61.496 35.4727 61.1808 35.406 61.162 35.4052C60.9024 35.3936 60.6415 35.4368 60.3951 35.5177C59.5056 35.8094 58.9103 36.5899 58.626 37.4538C58.4781 37.9022 58.3592 38.5451 58.4392 39.1177C58.491 39.4879 58.626 39.8288 58.8975 40.0624C59.0059 40.1553 59.16 40.1908 59.2994 40.2004C59.328 40.2024 59.44 40.1895 59.4954 40.2004C59.5339 40.2076 59.559 40.2264 59.5722 40.2442C59.5946 40.2752 59.6084 40.3312 59.6084 40.4C59.609 40.5097 59.5801 40.6609 59.5847 40.7212C59.609 41.0302 59.6944 41.3415 59.8462 41.6127C60.1131 42.0887 60.5904 42.3776 61.1135 42.5212C61.1557 42.5327 61.1804 42.5762 61.1689 42.6184C61.1574 42.6606 61.1139 42.6853 61.0717 42.6737C60.5077 42.5189 59.9961 42.2033 59.7082 41.6901C59.5455 41.3989 59.4529 41.0651 59.4272 40.7334C59.4229 40.6787 59.4433 40.5535 59.4493 40.4458C59.4509 40.4158 59.4513 40.3875 59.4486 40.3635C59.4483 40.3602 59.448 40.3569 59.447 40.3532C59.3939 40.349 59.3116 40.3598 59.2885 40.3582C59.1166 40.3463 58.9281 40.2969 58.7944 40.1819C58.4943 39.924 58.3401 39.5491 58.2828 39.1396C58.1991 38.5425 58.3216 37.8719 58.4758 37.4043C58.7756 36.4935 59.4081 35.675 60.3456 35.3674C60.6102 35.2806 60.8905 35.2348 61.1692 35.2472C61.1844 35.2479 61.385 35.2888 61.5062 35.3119L61.5023 35.225C61.5003 35.1906 61.5013 35.1629 61.5036 35.1507C61.5398 34.9734 61.6169 34.8035 61.7157 34.6527C62.0359 34.1638 62.5726 33.829 63.1237 33.6632C63.3075 33.6079 63.491 33.5829 63.6811 33.5641C63.7006 33.5621 63.721 33.5604 63.7407 33.5564C63.7575 33.553 63.7747 33.5489 63.7865 33.5356C63.7928 33.5285 63.8047 33.5087 63.8126 33.4952ZM63.9407 33.5744L63.94 33.575V33.5749L63.9407 33.5744ZM63.9443 33.5709L63.9427 33.5725L63.9437 33.5718L63.9443 33.5709ZM63.9476 33.5678L63.946 33.5693L63.947 33.5683L63.9476 33.5678Z" fill="black"/>
<path fill-rule="evenodd" clip-rule="evenodd" d="M68.2746 35.9939C68.3017 35.9862 68.3392 35.9758 68.3504 35.9739C68.4993 35.9483 68.6482 35.9595 68.7948 35.9954C69.3321 36.1273 69.7363 36.5495 69.9725 37.0343C70.271 37.647 70.3188 38.3891 70.0233 39.0123C69.9729 39.1189 69.8806 39.2271 69.7923 39.3353C69.7156 39.4292 69.6411 39.5224 69.6144 39.6172C69.6032 39.6569 69.62 39.7111 69.6362 39.7658C69.6586 39.8402 69.6859 39.9147 69.6942 39.9681C69.7393 40.2619 69.7505 40.5653 69.6905 40.8575C69.4955 41.8086 68.6614 42.6348 67.7482 43.0518C67.7084 43.07 67.6616 43.0522 67.6435 43.0126C67.6253 42.9728 67.6428 42.926 67.6823 42.9079C68.5514 42.5113 69.3502 41.7305 69.5357 40.8259C69.592 40.5518 69.5802 40.2675 69.538 39.9921C69.5288 39.9331 69.4929 39.8468 69.4721 39.7658C69.454 39.6947 69.4477 39.6265 69.4622 39.5743C69.4942 39.4613 69.5782 39.3473 69.6698 39.2353C69.7495 39.1375 69.8348 39.041 69.8803 38.9446C70.1554 38.3645 70.1079 37.6738 69.8302 37.1035C69.6144 36.6601 69.2488 36.2697 68.7569 36.149C68.6318 36.1183 68.5046 36.1078 68.3771 36.1298C68.356 36.1334 68.2911 36.1582 68.2536 36.1604C68.2242 36.162 68.2012 36.1544 68.1857 36.1444C68.1666 36.1321 68.1402 36.0974 68.1228 36.0415C68.0846 35.9175 68.0549 35.6457 68.0375 35.593C67.9297 35.2663 67.7627 34.9578 67.5193 34.712C67.2501 34.4405 66.9026 34.2427 66.5507 34.0995C66.4862 34.0733 66.2902 34.0327 66.1673 34.0041C66.1021 33.989 66.0543 33.9746 66.0421 33.9679C66.0187 33.9549 66.0098 33.9379 66.0055 33.9279C65.9953 33.9041 65.997 33.8818 66.0072 33.8611C66.0131 33.8496 66.0279 33.8215 66.0734 33.8161C66.0948 33.8136 66.1149 33.8197 66.1307 33.8318C66.1479 33.8364 66.1762 33.8438 66.2032 33.8501C66.3337 33.8805 66.5419 33.9251 66.6104 33.953C66.9816 34.1042 67.3476 34.3142 67.6316 34.6007C67.8925 34.8639 68.0724 35.1937 68.1877 35.5436C68.2032 35.5906 68.2292 35.8088 68.2615 35.9474C68.2651 35.9629 68.27 35.9799 68.2746 35.9939ZM66.1241 33.9619C66.1146 33.9678 66.104 33.9717 66.0922 33.9731C66.106 33.9715 66.1162 33.9673 66.1241 33.9619Z" fill="black"/>
<path fill-rule="evenodd" clip-rule="evenodd" d="M65.7954 30.0981C66.4839 30.0981 67.0439 30.6406 67.0439 31.3102C67.0439 31.9798 66.4839 32.5223 65.7954 32.5223C65.7516 32.5223 65.7163 32.5577 65.7163 32.6014C65.7163 32.645 65.7516 32.6804 65.7954 32.6804C66.5722 32.6804 67.202 32.0658 67.202 31.3102C67.202 30.5546 66.5722 29.9399 65.7954 29.9399C65.7516 29.9399 65.7163 29.9754 65.7163 30.019C65.7163 30.0627 65.7516 30.0981 65.7954 30.0981Z" fill="black"/>
<path fill-rule="evenodd" clip-rule="evenodd" d="M65.7954 32.5223C65.1066 32.5223 64.5466 31.9798 64.5466 31.3102C64.5466 30.6406 65.1066 30.0981 65.7954 30.0981C65.8389 30.0981 65.8745 30.0627 65.8745 30.019C65.8745 29.9754 65.8389 29.9399 65.7954 29.9399C65.0183 29.9399 64.3884 30.5546 64.3884 31.3102C64.3884 32.0658 65.0183 32.6804 65.7954 32.6804C65.8389 32.6804 65.8745 32.645 65.8745 32.6014C65.8745 32.5577 65.8389 32.5223 65.7954 32.5223Z" fill="black"/>
<path fill-rule="evenodd" clip-rule="evenodd" d="M73.8878 67.1687C74.544 67.4688 74.9881 68.2581 74.9881 68.2581C75.0062 68.2904 75.0049 68.3296 74.9848 68.3603C74.9647 68.3912 74.9291 68.4083 74.8925 68.4047L68.5356 67.7999C68.4921 67.7959 68.4568 67.764 68.4479 67.7215L66.865 59.7305C66.8538 59.6768 66.8884 59.6248 66.9418 59.6136C66.9951 59.6027 67.0475 59.637 67.0584 59.6907L68.6268 67.6101L74.7114 68.189C74.5483 67.9481 74.204 67.5097 73.758 67.3282C73.7241 67.3143 73.7007 67.283 73.6971 67.2465L72.9338 59.7671C72.9282 59.7131 72.9677 59.6643 73.0221 59.6587C73.0764 59.6534 73.1248 59.693 73.1304 59.747L73.8878 67.1687Z" fill="#224D99"/>
<path fill-rule="evenodd" clip-rule="evenodd" d="M59.8861 67.2122L61.6522 58.6931C61.6634 58.6398 61.7158 58.6052 61.7692 58.6164C61.8225 58.6272 61.8571 58.6796 61.8459 58.733L60.065 67.3238C60.0561 67.3663 60.0209 67.398 59.9774 67.4019L53.6204 68.0067C53.5838 68.0104 53.5483 67.9932 53.5282 67.9623C53.5081 67.9316 53.5068 67.8924 53.5249 67.8601C53.5249 67.8601 53.9689 67.0708 54.6252 66.7707L55.3825 59.349C55.3881 59.295 55.4365 59.2555 55.4909 59.2607C55.5453 59.2663 55.5848 59.3151 55.5792 59.3691L54.8159 66.8485C54.8123 66.885 54.7889 66.9163 54.755 66.9302C54.3089 67.1117 53.9647 67.5501 53.8016 67.791L59.8861 67.2122Z" fill="#224D99"/>
<path fill-rule="evenodd" clip-rule="evenodd" d="M59.9566 59.4239L59.0655 64.2369C59.0487 64.3294 58.9597 64.3914 58.8671 64.3746C58.7746 64.3578 58.7126 64.2688 58.7294 64.1759L59.5724 59.4061L59.9566 59.4239Z" fill="#224D99"/>
<path fill-rule="evenodd" clip-rule="evenodd" d="M68.8894 60.0395L69.7805 64.8525C69.7973 64.945 69.8862 65.007 69.9788 64.9902C70.0714 64.9734 70.1333 64.8844 70.1165 64.7915L69.2735 60.0217L68.8894 60.0395Z" fill="#224D99"/>
<path fill-rule="evenodd" clip-rule="evenodd" d="M55.4524 59.3264C55.4524 59.3264 57.1434 41.6248 62.5275 42.112L66.5568 42.5795C66.5568 42.5795 71.4933 42.7561 73.0558 59.9249H66.9659C66.9659 59.9249 64.5789 47.9933 64.2834 47.6405C63.9876 47.2877 61.6236 59.3264 61.6236 59.3264H55.4524Z" fill="white"/>
<path fill-rule="evenodd" clip-rule="evenodd" d="M72.9474 59.8261C72.165 51.3393 70.5567 47.0422 69.1375 44.8677C67.7447 42.734 66.5532 42.6783 66.5532 42.6783C66.5505 42.678 66.5479 42.678 66.5453 42.6776L62.516 42.2102C62.462 42.2039 62.4231 42.1548 62.4294 42.1005C62.4356 42.0465 62.4847 42.0076 62.5387 42.0138L66.565 42.481C66.6503 42.4856 67.8887 42.5927 69.3029 44.76C70.7369 46.9566 72.3705 51.3054 73.1543 59.9157C73.1566 59.9433 73.1473 59.971 73.1289 59.9914C73.1101 60.0119 73.0834 60.0237 73.0558 60.0237H66.9659C66.9188 60.0237 66.8783 59.9905 66.8691 59.9443C66.8691 59.9443 65.3419 52.3101 64.5796 49.0761C64.4471 48.5135 64.3378 48.0846 64.264 47.854C64.2383 47.7736 64.2218 47.7209 64.2076 47.7037C64.1724 47.6619 64.178 47.5996 64.2198 47.5647C64.2617 47.5295 64.3239 47.5351 64.3592 47.5769C64.3802 47.6019 64.4145 47.6751 64.4524 47.7937C64.5268 48.0272 64.6379 48.4611 64.7719 49.0307C65.4891 52.0733 66.8829 59.0074 67.047 59.8261H72.9474Z" fill="#FFD274"/>
<path fill-rule="evenodd" clip-rule="evenodd" d="M64.3064 47.7364C64.2896 47.7709 64.2554 47.8431 64.23 47.9146C63.6324 49.6055 61.7208 59.3451 61.7208 59.3451C61.7115 59.3916 61.671 59.4252 61.6236 59.4252H55.4524C55.4247 59.4252 55.398 59.4133 55.3793 59.3925C55.3605 59.3721 55.3516 59.3444 55.3542 59.3168C55.3542 59.3168 56.1857 50.6228 58.5352 45.5737C59.0432 44.4819 59.623 43.5595 60.2785 42.928C60.9492 42.282 61.7007 41.9377 62.5364 42.0135C62.5908 42.0185 62.6306 42.0666 62.626 42.1209C62.6211 42.1753 62.573 42.2155 62.5186 42.2105C61.7392 42.14 61.0411 42.4681 60.4156 43.0706C59.7748 43.6877 59.2108 44.59 58.7144 45.657C56.5296 50.3527 55.6655 58.2158 55.5618 59.2275H61.5425C61.7267 58.2929 63.4763 49.454 64.0439 47.849C64.0989 47.6929 64.1513 47.598 64.1855 47.5674C64.2218 47.5354 64.2583 47.5305 64.2883 47.5354C64.313 47.5397 64.3377 47.5515 64.3592 47.5769C64.3941 47.6187 64.3885 47.681 64.3466 47.7159C64.3348 47.7261 64.3209 47.7331 64.3064 47.7364ZM64.2116 47.708V47.7084L64.2112 47.708H64.2116Z" fill="#FFD274"/>
<path fill-rule="evenodd" clip-rule="evenodd" d="M73.0007 59.9217L71.939 59.9147C71.906 59.7741 71.9301 59.6216 72.018 59.4947C71.7433 59.3979 71.5947 59.0997 71.6863 58.8224C71.7779 58.5453 72.0763 58.3898 72.3567 58.4702C72.3646 58.2159 72.556 58.005 72.806 57.9606L73.0007 59.9217ZM66.6332 58.5031C66.647 58.5061 66.6608 58.5094 66.6747 58.5134C66.6836 58.2264 66.926 57.9952 67.2225 57.9952C67.519 57.9952 67.7611 58.2264 67.7704 58.5134C68.0504 58.433 68.3492 58.5885 68.4408 58.8655C68.5323 59.1429 68.3834 59.441 68.1087 59.5379C68.1825 59.6449 68.2115 59.7698 68.1993 59.8904L66.9343 59.8825L66.6332 58.5031ZM60.3147 59.3455C60.0897 59.1709 60.0387 58.854 60.1988 58.6227C59.924 58.5255 59.7755 58.2274 59.867 57.9504C59.9586 57.673 60.2571 57.5178 60.5374 57.5982C60.5463 57.3113 60.7888 57.08 61.0853 57.08C61.3814 57.08 61.6239 57.3113 61.6331 57.5982C61.7461 57.5656 61.8621 57.5715 61.9665 57.6084L61.5616 59.358L61.1864 59.3544C61.1492 59.3267 61.1149 59.2938 61.0853 59.2559C61.0563 59.2928 61.023 59.3251 60.9868 59.3524L60.3147 59.3455ZM69.4607 55.7992C69.4699 55.5123 69.712 55.281 70.0085 55.281C70.305 55.281 70.5474 55.5123 70.5563 55.7992C70.8367 55.7188 71.1352 55.8743 71.2267 56.1513C71.3183 56.4284 71.1697 56.7269 70.895 56.8237C71.0591 57.0612 71.0011 57.3884 70.7613 57.5597C70.5218 57.731 70.1874 57.6842 70.0085 57.4572C69.8296 57.6842 69.4956 57.731 69.2558 57.5597C69.0159 57.3884 68.958 57.0612 69.1223 56.8237C68.8476 56.7269 68.6987 56.4284 68.7903 56.1513C68.8819 55.8743 69.1803 55.7188 69.4607 55.7992ZM55.9791 55.6328C56.0015 55.6364 56.0236 55.6411 56.0457 55.6476C56.0549 55.3604 56.2973 55.1295 56.5935 55.1295C56.89 55.1295 57.1324 55.3604 57.1413 55.6476C57.4217 55.5673 57.7201 55.7224 57.8117 55.9998C57.9033 56.2769 57.7547 56.575 57.48 56.6722C57.644 56.9097 57.5861 57.2368 57.3462 57.4081C57.1067 57.5794 56.7724 57.5323 56.5935 57.3053C56.4146 57.5323 56.0806 57.5794 55.8408 57.4081C55.7824 57.3666 55.735 57.3159 55.6991 57.2595C55.7785 56.7773 55.872 56.2278 55.9791 55.6328ZM65.4245 52.9671C65.5461 52.9022 65.6923 52.8828 65.834 52.9233C65.8429 52.6363 66.0853 52.4051 66.3818 52.4051C66.678 52.4051 66.9204 52.6363 66.9293 52.9233C67.2097 52.8429 67.5081 52.9981 67.5997 53.2754C67.6913 53.5525 67.5427 53.8509 67.268 53.9478C67.4324 54.1853 67.3744 54.5124 67.1346 54.6837C66.8947 54.855 66.5604 54.8083 66.3818 54.5813C66.2468 54.7526 66.0231 54.8214 65.8182 54.771L65.4245 52.9671ZM59.4164 52.7546C59.4253 52.4677 59.6677 52.2364 59.9642 52.2364C60.2604 52.2364 60.5028 52.4677 60.5121 52.7546C60.7921 52.6746 61.0909 52.8297 61.1824 53.1068C61.274 53.3841 61.1251 53.6823 60.8504 53.7795C61.0148 54.0166 60.9568 54.3438 60.717 54.5154C60.4771 54.6864 60.1428 54.6396 59.9642 54.4126C59.7853 54.6396 59.451 54.6864 59.2111 54.5154C58.9713 54.3438 58.9137 54.0166 59.0777 53.7795C58.803 53.6823 58.6544 53.3841 58.746 53.1068C58.8376 52.8297 59.136 52.6746 59.4164 52.7546ZM71.9271 52.5454C71.9027 52.5711 71.8757 52.5948 71.8457 52.6166C71.6059 52.7879 71.2715 52.7408 71.0927 52.5138C70.9141 52.7408 70.5797 52.7879 70.3399 52.6166C70.1001 52.4449 70.0421 52.1178 70.2065 51.8806C69.9317 51.7834 69.7828 51.4853 69.8744 51.2083C69.966 50.9309 70.2648 50.7757 70.5448 50.8558C70.554 50.5688 70.7965 50.3376 71.0927 50.3376C71.2343 50.3376 71.3638 50.3906 71.4613 50.4769L71.9271 52.5454ZM63.3666 51.5565C63.3554 51.5449 63.3448 51.5328 63.3346 51.5199C63.1561 51.7469 62.8217 51.7937 62.5819 51.6224C62.342 51.4511 62.2841 51.1239 62.4484 50.8864C62.1737 50.7896 62.0248 50.4914 62.1164 50.214C62.208 49.937 62.5067 49.7815 62.7871 49.8619C62.796 49.575 63.0384 49.3437 63.3346 49.3437C63.5408 49.3437 63.721 49.4554 63.8143 49.6201L63.3666 51.5565ZM57.7254 48.0056C57.7304 48.0052 57.7353 48.0052 57.7402 48.0052C58.0367 48.0052 58.2792 48.2365 58.2881 48.5234C58.5684 48.443 58.8669 48.5985 58.9585 48.8756C59.0501 49.153 58.9015 49.4511 58.6267 49.5479C58.7911 49.7855 58.7331 50.1126 58.4933 50.2839C58.2535 50.4552 57.9191 50.4084 57.7402 50.1814C57.5857 50.3778 57.3143 50.4394 57.089 50.3415C57.2869 49.5394 57.4998 48.7497 57.7254 48.0056ZM67.296 47.798C67.3049 47.5111 67.5431 47.2798 67.8346 47.2798C68.1261 47.2798 68.3647 47.5111 68.3732 47.798C68.6489 47.7176 68.9425 47.8728 69.0327 48.1502C69.1227 48.4272 68.9764 48.7254 68.7063 48.8225C68.8677 49.0597 68.811 49.3872 68.5752 49.5585C68.3393 49.7298 68.0105 49.6827 67.8346 49.4557C67.6587 49.6827 67.3299 49.7298 67.0944 49.5585C66.8585 49.3872 66.8015 49.0597 66.9629 48.8225C66.6928 48.7254 66.5465 48.4272 66.6368 48.1502C66.7267 47.8728 67.0203 47.7176 67.296 47.798ZM59.9659 45.4363C59.9748 45.1494 60.2172 44.9181 60.5137 44.9181C60.8099 44.9181 61.0523 45.1494 61.0612 45.4363C61.3416 45.3563 61.6403 45.5114 61.7319 45.7885C61.8235 46.0659 61.6746 46.364 61.3999 46.4612C61.5643 46.6984 61.5063 47.0255 61.2664 47.1971C61.0266 47.3684 60.6923 47.3213 60.5137 47.0944C60.3348 47.3213 60.0005 47.3684 59.7606 47.1971C59.5208 47.0255 59.4632 46.6984 59.6272 46.4612C59.3525 46.364 59.2039 46.0659 59.2955 45.7885C59.3871 45.5114 59.6855 45.3563 59.9659 45.4363ZM63.9862 44.7399C63.9954 44.453 64.2376 44.2217 64.5341 44.2217C64.8305 44.2217 65.073 44.453 65.0819 44.7399C65.3622 44.6595 65.6607 44.815 65.7523 45.0921C65.8439 45.3691 65.6953 45.6676 65.4205 45.7644C65.5846 46.002 65.527 46.3291 65.2871 46.5004C65.0473 46.6717 64.7129 46.6249 64.5341 46.3979C64.3555 46.6249 64.0211 46.6717 63.7813 46.5004C63.5415 46.3291 63.4835 46.002 63.6479 45.7644C63.3731 45.6676 63.2242 45.3691 63.3158 45.0921C63.4074 44.815 63.7062 44.6595 63.9862 44.7399ZM67.8218 43.1712C68.2582 43.4822 68.754 43.9302 69.154 44.5459C69.1075 44.5834 69.0542 44.6138 68.9949 44.6348C69.1589 44.872 69.1013 45.1995 68.8614 45.3708C68.6216 45.5421 68.2872 45.495 68.1084 45.268C67.9298 45.495 67.5954 45.5421 67.3556 45.3708C67.1158 45.1995 67.0578 44.872 67.2222 44.6348C66.9475 44.5377 66.7986 44.2395 66.8901 43.9625C66.9817 43.6851 67.2805 43.5299 67.5605 43.61C67.5664 43.4248 67.6696 43.2628 67.8218 43.1712ZM60.6942 42.7268C61.0836 42.456 61.8976 42.0195 62.9442 42.1664C63.0081 42.431 62.8609 42.7041 62.6003 42.796C62.7644 43.0335 62.7067 43.3606 62.4669 43.5319C62.2271 43.7032 61.8927 43.6564 61.7138 43.4295C61.5353 43.6564 61.2009 43.7032 60.9611 43.5319C60.7212 43.3606 60.6633 43.0335 60.8276 42.796C60.7789 42.7788 60.7341 42.7554 60.6942 42.7268Z" fill="#FFD274"/>
<path fill-rule="evenodd" clip-rule="evenodd" d="M63.0698 35.6273C62.8408 35.6414 60.8639 35.4139 59.3772 36.9799C59.2721 37.0909 59.1799 37.2136 59.1024 37.3456C58.5869 38.2214 56.0246 42.624 54.5142 45.6326L57.1203 47.3733L61.1831 40.4596C61.1831 40.4596 61.0375 41.609 62.3005 42.1061L66.6908 42.5462C66.6908 42.5462 67.5065 42.3601 67.7882 41.1956C67.7882 41.1956 69.7466 43.1636 71.0933 44.5172C71.8283 45.2561 72.9661 45.4129 73.8737 44.901C74.6535 44.4612 75.0939 43.5968 74.9915 42.7073C74.7777 40.8526 74.437 37.8995 74.437 37.8995L70.9975 39.1092L71.1678 39.9029C71.1678 39.9029 68.7929 36.6433 66.871 36.1003C66.871 36.1003 63.7079 37.9233 63.0698 35.6273Z" fill="#EF7B58"/>
<path fill-rule="evenodd" clip-rule="evenodd" d="M70.8294 39.3179C70.8294 39.3179 71.627 42.8348 71.6395 42.9481C71.6461 43.0088 71.7004 43.0526 71.761 43.046C71.8217 43.0394 71.8655 42.9847 71.8589 42.9241C71.8467 42.8101 71.0449 39.2691 71.0449 39.2691C71.0314 39.2096 70.9724 39.1723 70.9128 39.1857C70.8535 39.1992 70.8159 39.2584 70.8294 39.3179Z" fill="#AB494A"/>
<path fill-rule="evenodd" clip-rule="evenodd" d="M65.4812 38.6736L67.3431 38.8365L67.2538 39.7606C67.2305 40.0017 67.016 40.1783 66.7749 40.1552C66.4774 40.1262 66.0854 40.0883 65.7879 40.0597C65.5467 40.0363 65.3702 39.8218 65.3936 39.5807L65.4812 38.6736ZM65.4947 38.5349L65.5326 38.1432L67.3929 38.3232L67.3566 38.6978L65.4947 38.5349Z" fill="#88C9D3"/>
<path fill-rule="evenodd" clip-rule="evenodd" d="M67.8053 41.2407C67.8053 41.2407 67.8554 40.8668 67.8857 40.4731C67.886 40.4273 67.9209 40.3898 67.9664 40.3858C68.0119 40.3819 68.0527 40.4132 68.0606 40.458C68.1535 40.8994 68.2507 41.4166 68.2612 41.6854L67.8053 41.2407Z" fill="#AB494A"/>
<path fill-rule="evenodd" clip-rule="evenodd" d="M61.1887 40.5024C61.1887 40.5024 61.254 40.0481 61.3103 39.6565C61.3136 39.6321 61.2981 39.6092 61.2741 39.6036C61.25 39.5981 61.226 39.6119 61.2184 39.6353C61.0178 40.26 60.7134 41.2081 60.7134 41.2081L61.1887 40.5024Z" fill="#AB494A"/>
<path fill-rule="evenodd" clip-rule="evenodd" d="M54.696 45.7282C53.8643 47.5999 53.5502 48.013 53.0028 49.6067C52.9109 49.8733 52.9854 50.1688 53.1925 50.3598C53.2255 50.3899 53.2596 50.4158 53.2945 50.4351C53.3231 50.5936 53.4299 50.8644 53.6533 50.9055C53.6718 51.0635 53.7935 51.316 54.0045 51.3636C54.0045 51.3636 54.0492 51.4643 54.1092 51.5997C54.1579 51.7091 54.2692 51.7776 54.3891 51.7711C54.5089 51.7648 54.6123 51.6848 54.649 51.5706L54.6491 51.5706C54.9474 51.7792 55.0363 51.7126 55.2795 51.1655C56.2677 48.3889 55.7304 49.7426 57.1255 47.3845L54.696 45.7282Z" fill="#AB494A"/>
<path fill-rule="evenodd" clip-rule="evenodd" d="M71.0699 39.1616L70.394 35.4448C70.394 35.4448 69.5806 35.2655 69.9864 34.748C69.9864 34.748 69.319 34.3971 69.7292 34.0018C69.7292 34.0018 69.2927 33.5943 69.7242 33.2799C69.7242 33.2799 69.4452 32.7491 70.2978 32.5229L70.3544 33.0632L71.2103 33.1744L71.147 32.6328C71.147 32.6328 71.6095 32.7485 72.0296 32.8535C72.4414 32.9565 72.7639 33.2767 72.8699 33.6878C73.2297 35.0833 74.0289 38.1819 74.0289 38.1819L71.0699 39.1616Z" fill="#AB494A"/>
<path fill-rule="evenodd" clip-rule="evenodd" d="M63.554 35.5637L63.0282 35.6254C63.0282 35.6254 63.3599 37.9831 66.8532 36.1068L65.6198 35.7275L65.4525 34.8264C65.4525 34.8264 65.5701 34.3729 65.5869 34.0018C65.5869 34.0018 65.6122 33.6811 65.5889 33.5432C65.5889 33.5432 64.9188 33.3212 64.8476 32.8534C64.8476 32.8534 63.6581 33.7017 63.2894 33.2254L63.3049 33.5344C63.3049 33.5344 63.3102 34.1572 63.605 34.7922L63.554 35.5637Z" fill="#AB494A"/>
<path fill-rule="evenodd" clip-rule="evenodd" d="M63.3728 33.7162C63.3537 33.6984 63.3402 33.6395 63.3247 33.6157C63.2832 33.5516 63.2259 33.4904 63.163 33.4471C63.1109 33.4115 63.0483 33.379 62.9837 33.3802C62.8299 33.3829 62.7413 33.5594 62.7489 33.6947C62.7607 33.9109 62.9228 34.0621 63.1346 34.0861C63.2311 34.097 63.3198 34.0746 63.4077 34.0353" fill="#AB494A"/>
<path fill-rule="evenodd" clip-rule="evenodd" d="M65.4301 33.8236C65.4268 33.8224 65.4538 33.7835 65.4558 33.7801C65.4864 33.7324 65.519 33.6861 65.5556 33.6428C65.6521 33.5276 65.8979 33.2992 66.0461 33.475C66.11 33.5511 66.0962 33.6711 66.0675 33.7584C65.998 33.9711 65.7826 34.1499 65.5566 34.069" fill="#AB494A"/>
<path fill-rule="evenodd" clip-rule="evenodd" d="M63.3254 33.3145C63.3254 33.3145 64.1111 33.7504 64.9053 32.9077C64.9353 32.8759 64.9336 32.8258 64.902 32.7959C64.8701 32.766 64.82 32.7675 64.79 32.7992C64.0896 33.5427 63.4011 33.1756 63.4011 33.1756C63.3629 33.1547 63.3148 33.1689 63.2937 33.2072C63.273 33.2455 63.2871 33.2936 63.3254 33.3145Z" fill="black"/>
<path fill-rule="evenodd" clip-rule="evenodd" d="M65.7223 33.3891L65.7167 33.3437C65.659 32.8923 65.3052 32.5359 64.8542 32.4753C64.6892 32.4532 64.5159 32.4299 64.3518 32.4079C64.1268 32.3777 63.8992 32.4435 63.7253 32.5893C63.5513 32.7352 63.4466 32.9475 63.437 33.1744C63.4364 33.195 63.4357 33.2113 63.4387 33.2217C63.4515 33.2634 63.4281 33.3077 63.3866 33.3205C63.3448 33.3334 63.3006 33.31 63.2878 33.2683C63.2809 33.2461 63.2772 33.2116 63.2792 33.1677C63.2904 32.8964 63.4156 32.6425 63.6238 32.4681C63.832 32.2938 64.1038 32.215 64.3729 32.2512C64.537 32.2732 64.7103 32.2965 64.8753 32.3186C65.3975 32.3887 65.8069 32.8012 65.8735 33.3238C65.8814 33.3869 65.8867 33.4267 65.8867 33.4267C65.8909 33.461 65.8725 33.4943 65.8409 33.5086C65.7065 33.5699 65.6264 33.6128 65.6264 33.6128C65.6119 33.6207 65.5954 33.6237 65.579 33.6216C65.3665 33.5945 65.1922 33.4697 65.0611 33.3273C64.8727 33.1223 64.7745 32.8835 64.7745 32.8835C64.758 32.8431 64.7771 32.7969 64.8177 32.7803C64.8578 32.7637 64.9043 32.783 64.9208 32.8234C64.9208 32.8234 65.0087 33.0368 65.1774 33.2202C65.2798 33.3314 65.4123 33.4328 65.5753 33.4612C65.6027 33.447 65.6531 33.4215 65.7223 33.3891Z" fill="black"/>
<path fill-rule="evenodd" clip-rule="evenodd" d="M63.6063 34.7878L63.5875 35.0266C63.5875 35.0266 63.6139 35.0538 63.629 35.0693C63.8267 35.2736 64.1917 35.5121 64.7827 35.4323C64.7814 35.4324 65.096 35.4 65.4211 35.0851C65.4412 35.0656 65.4936 35.0213 65.4936 35.0213L65.4514 34.8277C65.4514 34.8277 65.4333 34.8378 65.4159 34.8588C65.1013 35.2334 64.7633 35.2753 64.7633 35.2753C64.7629 35.2754 64.7623 35.2755 64.7616 35.2756C64.1232 35.3618 63.7835 35.0289 63.6501 34.8498C63.6356 34.8303 63.6063 34.7878 63.6063 34.7878Z" fill="black" fill-opacity="0.7"/>
<path fill-rule="evenodd" clip-rule="evenodd" d="M54.6488 51.5746C54.6501 51.5706 54.6518 51.5667 54.6537 51.563C54.7144 51.4306 54.8175 51.1924 54.8695 51.0564C54.8824 51.0224 54.9206 51.0053 54.9545 51.0185C54.9884 51.0313 55.0056 51.0692 54.9924 51.1035C54.9394 51.2422 54.8356 51.483 54.7733 51.618C54.7697 51.626 54.7667 51.6339 54.7638 51.6421L54.6488 51.5746Z" fill="black" fill-opacity="0.55"/>
<path fill-rule="evenodd" clip-rule="evenodd" d="M65.7657 35.7746L65.6125 35.7106L65.6108 35.985C65.6122 36.0285 65.6491 36.0627 65.6925 36.0612C65.736 36.0597 65.7703 36.0231 65.769 35.9795L65.7657 35.7746Z" fill="black"/>
<path fill-rule="evenodd" clip-rule="evenodd" d="M63.5628 35.5582L63.3978 35.5754L63.3998 35.908C63.399 35.9516 63.4341 35.9876 63.4776 35.9882C63.5212 35.9888 63.5571 35.9539 63.5579 35.9103L63.5628 35.5582Z" fill="black"/>
<path fill-rule="evenodd" clip-rule="evenodd" d="M63.3072 34.0711L63.2404 33.5129C63.2634 33.5349 63.2868 33.5612 63.3105 33.592L63.3655 34.0509C63.3471 34.0606 63.3257 34.067 63.3072 34.0711Z" fill="black"/>
<path fill-rule="evenodd" clip-rule="evenodd" d="M64.5013 34.1626C64.4299 34.1477 64.3363 34.1731 64.2895 34.219C64.2437 34.2641 64.2098 34.3668 64.222 34.4359C64.2707 34.7164 64.5834 34.7197 64.698 34.5787C64.7211 34.5505 64.7168 34.5089 64.6885 34.486C64.6605 34.4631 64.6189 34.4673 64.5959 34.4956C64.5366 34.5687 64.3771 34.5587 64.3518 34.4132C64.3462 34.3815 64.3607 34.3338 64.3818 34.3131C64.4022 34.2932 64.4434 34.2851 64.4747 34.2916C64.5102 34.299 64.5452 34.2762 64.5527 34.2406C64.56 34.205 64.5373 34.17 64.5013 34.1626Z" fill="black"/>
<path fill-rule="evenodd" clip-rule="evenodd" d="M64.6981 34.5788C64.7729 34.4867 64.7778 34.2203 64.5014 34.1627C64.4662 34.1552 64.4313 34.1781 64.4237 34.2137C64.4161 34.2493 64.4392 34.2842 64.4747 34.2917C64.5779 34.3132 64.6144 34.3847 64.6115 34.4444C64.6105 34.4649 64.6055 34.4838 64.596 34.4956C64.5729 34.5238 64.5772 34.5654 64.6055 34.5883C64.6339 34.6112 64.6754 34.607 64.6981 34.5788Z" fill="black"/>
<path fill-rule="evenodd" clip-rule="evenodd" d="M69.8227 34.5697C69.8477 34.5796 70.0124 34.6445 70.02 34.6471C70.273 34.7344 70.5323 34.8026 70.7958 34.8495C70.8386 34.8572 70.8673 34.8983 70.8597 34.9413C70.8518 34.9842 70.811 35.0129 70.7678 35.0052C70.4964 34.9568 69.9521 34.7925 69.9521 34.7925L69.9838 34.7536C69.8566 34.6747 69.7545 34.5929 69.7028 34.5181C69.7028 34.5181 69.8204 34.5679 69.8227 34.5697Z" fill="black" fill-opacity="0.73"/>
<path fill-rule="evenodd" clip-rule="evenodd" d="M69.5505 33.7175C69.5759 33.8157 69.6442 33.9118 69.7284 34.0071C69.7284 34.0071 69.7492 34.0166 69.7597 34.0213C70.0475 34.1492 70.3979 34.2178 70.6596 34.2631C70.7025 34.2706 70.7434 34.2417 70.7508 34.1987C70.7585 34.1557 70.7297 34.1148 70.6867 34.1073C70.3553 34.0499 69.8682 33.96 69.5851 33.7393C69.5748 33.7313 69.5505 33.7175 69.5505 33.7175Z" fill="black" fill-opacity="0.76"/>
<path fill-rule="evenodd" clip-rule="evenodd" d="M69.7105 33.1019C69.7579 33.1317 69.8709 33.178 69.8795 33.1817C70.117 33.2889 70.3601 33.3776 70.6095 33.4536C70.6513 33.4663 70.6747 33.5105 70.6622 33.5522C70.6493 33.594 70.6052 33.6176 70.5634 33.6049C70.3077 33.5269 70.058 33.4359 69.8142 33.3259C69.81 33.324 69.7816 33.3119 69.7467 33.2963C69.7368 33.2918 69.7236 33.2853 69.7236 33.2853C69.696 33.2134 69.6775 33.1445 69.6805 33.0839C69.6805 33.0839 69.7118 33.1004 69.7105 33.1019Z" fill="black"/>
<path fill-rule="evenodd" clip-rule="evenodd" d="M70.159 33.0499C70.5655 33.0925 70.9786 33.238 71.3907 33.2894C71.4342 33.2949 71.4737 33.2641 71.479 33.2208C71.4843 33.1775 71.4537 33.138 71.4105 33.1325C70.9971 33.0809 70.583 32.9353 70.1758 32.8926C70.1323 32.8881 70.0934 32.9196 70.0888 32.963C70.0842 33.0064 70.1158 33.0454 70.159 33.0499Z" fill="black"/>
<path fill-rule="evenodd" clip-rule="evenodd" d="M70.3978 35.4403L70.4278 35.6583C70.4278 35.6583 71.1725 35.8051 71.6145 35.711C71.6679 35.6996 71.705 35.6513 71.6961 35.5975C71.6872 35.5437 71.6364 35.5071 71.5827 35.5159C71.1862 35.5808 70.3978 35.4403 70.3978 35.4403Z" fill="black"/>
<path fill-rule="evenodd" clip-rule="evenodd" d="M64.2542 31.877C64.2574 31.8746 64.2607 31.8726 64.2643 31.8708C64.2972 31.8548 64.3367 31.8685 64.3527 31.9011C64.3635 31.9242 64.3618 31.9454 64.3508 31.9652C64.3445 31.9765 64.3315 31.9913 64.309 31.9996C64.2891 32.007 64.248 32.0105 64.2458 32.0107C64.1878 32.0146 64.1295 32.0112 64.0717 32.0039C64.0356 31.9993 64.0101 31.9663 64.0147 31.9302C64.0193 31.8942 64.0523 31.8686 64.0884 31.8732C64.1374 31.8795 64.1872 31.8826 64.2367 31.8793L64.2542 31.877ZM64.2276 31.9341C64.2276 31.9412 64.2293 31.9484 64.2328 31.9556C64.2295 31.9488 64.2281 31.9413 64.2276 31.9341Z" fill="#88C9D3"/>
<path fill-rule="evenodd" clip-rule="evenodd" d="M64.2164 31.8048C64.2141 31.7975 64.2123 31.7914 64.2113 31.7868C64.1701 31.6193 64.0751 31.4498 63.9606 31.3214C63.9417 31.3 63.9214 31.2796 63.8996 31.2612C63.8717 31.2378 63.8681 31.1962 63.8916 31.1682C63.9148 31.1405 63.9566 31.1367 63.9841 31.1603C64.0111 31.1826 64.0357 31.2077 64.059 31.2337C64.187 31.3776 64.2931 31.5678 64.3391 31.7554C64.346 31.7835 64.3746 31.8662 64.3782 31.9267C64.3813 31.9736 64.3683 32.0113 64.3475 32.0324C64.3267 32.0536 64.2997 32.0612 64.2678 32.0483C64.2577 32.0442 64.2452 32.0361 64.2335 32.0248C64.2212 32.0131 64.2089 31.9964 64.2054 31.9926C64.1847 31.9686 64.1643 31.9439 64.1433 31.9199C64.1456 31.9285 64.1464 31.9376 64.1454 31.9469C64.1408 31.9829 64.1078 32.0085 64.0717 32.0039C63.9212 31.9848 63.7436 31.933 63.6256 31.8336C63.6009 31.8126 63.5627 31.7761 63.541 31.7372C63.5193 31.6973 63.5134 31.655 63.5295 31.6161C63.547 31.574 63.5846 31.5487 63.6329 31.5397C63.6781 31.5313 63.7336 31.5387 63.7648 31.5446C63.913 31.5721 64.06 31.6572 64.1699 31.7584C64.1861 31.7732 64.2015 31.7887 64.2164 31.8048ZM64.103 31.8769C64.0957 31.8696 64.0885 31.8624 64.0807 31.8556C63.9883 31.7704 63.8654 31.6973 63.7408 31.6741C63.7234 31.6709 63.695 31.666 63.6687 31.6678C63.6647 31.6681 63.6597 31.6691 63.6554 31.6702C63.6576 31.6744 63.6601 31.6797 63.6627 31.6831C63.677 31.7036 63.6971 31.7215 63.7107 31.7329C63.8099 31.8169 63.9615 31.857 64.0883 31.8732C64.0935 31.8738 64.0983 31.8751 64.103 31.8769Z" fill="#88C9D3"/>
<path fill-rule="evenodd" clip-rule="evenodd" d="M63.8827 31.2485C63.8828 31.2544 63.883 31.2603 63.8839 31.2654C63.8897 31.3082 63.9037 31.356 63.9175 31.3853C63.9435 31.4415 63.9762 31.494 64.0111 31.5451C64.0626 31.621 64.1205 31.6926 64.1823 31.7605C64.2068 31.7874 64.2048 31.8291 64.1779 31.8535C64.1511 31.878 64.1093 31.876 64.0848 31.8492C64.019 31.7767 63.9574 31.7002 63.9021 31.6193C63.8633 31.5623 63.8273 31.5035 63.7979 31.4411C63.773 31.387 63.7465 31.2873 63.7501 31.2201C63.7526 31.1705 63.7725 31.1344 63.7989 31.116C63.8194 31.1019 63.8456 31.0942 63.8797 31.1014C63.9053 31.1067 63.9404 31.1233 63.9842 31.1603C64.0123 31.1835 64.0159 31.2251 63.9924 31.2531C63.9692 31.2808 63.9274 31.2846 63.8996 31.2612C63.8942 31.2567 63.8885 31.2523 63.8827 31.2485Z" fill="#88C9D3"/>
<path fill-rule="evenodd" clip-rule="evenodd" d="M69.4979 23.3883C69.4979 23.3883 60.9578 19.9166 54.5168 22.6268L55.5947 23.4479L53.6359 25.1238C53.6359 25.1238 65.715 24.9427 69.8168 26.7307L69.4979 23.3883Z" fill="#88C9D3"/>
<path fill-rule="evenodd" clip-rule="evenodd" d="M70.6377 35.6825C70.7682 35.7227 71.1296 35.7423 71.4775 35.728L71.6448 36.8715L70.754 36.9314L70.6377 35.6825ZM70.3251 32.9108L69.2858 23.1637L70.0553 23.1654L71.2136 33.0981L70.3251 32.9108Z" fill="#224D99"/>
<path fill-rule="evenodd" clip-rule="evenodd" d="M41.289 43.0951L48.9985 43.0604C48.9985 43.0604 54.2212 56.8307 53.0435 65.6053H48.0649L45.074 47.4775L42.0834 65.6053H37.1046C35.927 56.8307 41.289 43.0951 41.289 43.0951Z" fill="#224D99"/>
<path fill-rule="evenodd" clip-rule="evenodd" d="M50.5221 47.598L48.5702 45.9778C48.5017 45.9215 48.4918 45.8204 48.5485 45.7519C48.6048 45.6833 48.7059 45.6735 48.7745 45.7301L50.357 47.0014L50.5221 47.598ZM39.9623 46.9012L41.9373 45.5035C42.0097 45.4524 42.1101 45.4695 42.1613 45.542C42.2126 45.6142 42.1954 45.7146 42.123 45.7657L39.8037 47.4072L39.9623 46.9012ZM40.2999 45.8243C40.4049 45.7515 40.5002 45.684 40.5621 45.6366C41.0352 45.2745 41.6243 44.8031 41.6243 44.8031C41.6936 44.7478 41.7948 44.759 41.8502 44.8281C41.9056 44.8977 41.8944 44.9988 41.8251 45.0541C41.8251 45.0541 41.2329 45.5278 40.7574 45.8919C40.6219 45.9956 40.3567 46.1791 40.144 46.3218L40.2999 45.8243ZM50.1475 46.3284L48.6196 45.0699C48.5514 45.0133 48.5422 44.9118 48.5989 44.8436C48.6555 44.7754 48.757 44.7662 48.8252 44.8229L49.9492 45.7229L50.0958 46.1887L50.1475 46.3284Z" fill="#628DDF"/>
<path fill-rule="evenodd" clip-rule="evenodd" d="M37.079 65.4838L37.2299 67.2301C37.2299 67.2301 36.1112 67.3757 36.0117 68.0905L41.7694 67.8385L42.0851 65.5865L37.079 65.4838Z" fill="#FFD274"/>
<path fill-rule="evenodd" clip-rule="evenodd" d="M41.7855 67.7314L36.0895 67.9561C36.0286 67.9587 35.9814 68.0105 35.984 68.0714C35.9867 68.1324 36.0383 68.1795 36.0992 68.1768L41.7661 67.9515L41.7855 67.7314Z" fill="#224D99"/>
<path fill-rule="evenodd" clip-rule="evenodd" d="M53.0177 65.5397L52.8668 67.286C52.8668 67.286 53.9855 67.4316 54.085 68.1464L48.3273 67.8944L48.0115 65.6425L53.0177 65.5397Z" fill="#FFD274"/>
<path fill-rule="evenodd" clip-rule="evenodd" d="M48.3471 67.9966L53.9935 68.2404C54.0545 68.243 54.1062 68.1956 54.1088 68.1346C54.1114 68.0737 54.0643 68.0223 54.0034 68.0193L48.3115 67.7848L48.3471 67.9966Z" fill="#224D99"/>
<path fill-rule="evenodd" clip-rule="evenodd" d="M50.2192 43.9844C51.4389 46.7542 52.6129 49.5422 53.0922 51.6703C53.0922 51.6703 53.4296 51.7846 53.3851 50.8181C53.3851 50.8181 53.3943 49.7323 53.7268 49.8812C53.7268 49.8812 54.6747 51.1254 54.7431 52.7225C54.7431 52.7225 55.1168 53.0206 55.1535 52.031C55.1535 52.031 55.3631 51.8278 55.3281 51.4575C55.3281 51.4575 55.5258 51.1426 55.4998 50.8181C55.4998 50.8181 55.7946 50.5799 55.7368 49.7629C55.6793 48.9495 53.3787 43.9903 53.0394 43.1219L50.2192 43.9844Z" fill="#4B0000"/>
<path fill-rule="evenodd" clip-rule="evenodd" d="M43.7905 32.9191C43.8435 32.6257 43.9351 32.3629 44.028 32.1495C44.1789 31.808 44.5182 31.5888 44.8914 31.5917C45.1388 31.5936 45.3642 31.6366 45.5928 31.6391C45.8754 31.6413 46.19 31.7752 46.2918 32.0389C46.4305 32.3993 46.473 32.7696 46.471 33.0915C46.5004 33.0686 46.533 33.0493 46.5669 33.0348C46.7069 32.9745 46.8545 33.0417 46.9032 33.1879C46.9968 33.4685 46.6776 33.8703 46.3771 33.8776C46.3715 33.9005 46.3659 33.921 46.361 33.939C46.2974 34.1648 46.2203 34.2925 46.2203 34.2925L46.2289 35.1813L47.2963 35.3727C44.5488 37.7113 43.1976 35.3727 43.1976 35.3727H43.9512L43.9631 34.477C43.7552 34.1048 43.7338 33.6762 43.7424 33.3958C43.7213 33.418 43.6982 33.4383 43.6719 33.4553C43.5016 33.5653 43.3436 33.4895 43.2516 33.3231C43.148 33.1358 43.1135 32.8674 43.2518 32.6878C43.3995 32.4961 43.5987 32.6006 43.7114 32.7674C43.7437 32.8148 43.7694 32.8659 43.7905 32.9191Z" fill="#4B0000"/>
<path fill-rule="evenodd" clip-rule="evenodd" d="M43.823 32.7414C43.823 32.7414 44.6031 32.5529 44.6957 31.9745C44.6957 31.9745 45.368 32.3879 46.02 32.0524C46.02 32.0524 46.0526 33.0057 46.4911 33.1291C46.4911 33.1291 46.4953 32.6825 46.499 32.2733C46.5023 31.9032 46.2094 31.5984 45.8394 31.5869C45.4501 31.5748 44.9612 31.5596 44.5774 31.5477C44.2196 31.5366 43.9146 31.8043 43.879 32.1602C43.8487 32.4634 43.8197 32.7582 43.823 32.7414Z" fill="black"/>
<path fill-rule="evenodd" clip-rule="evenodd" d="M37.0101 43.1221C37.0101 43.1221 34.9649 49.4978 34.5492 50.7935C34.4751 51.0244 34.5816 51.2744 34.7992 51.3812C34.7992 51.3812 34.7993 51.3812 34.7993 51.3812C34.8361 51.538 34.9569 51.8029 35.1822 51.8322C35.209 51.989 35.3437 52.2347 35.5569 52.2713C35.5569 52.2713 35.6068 52.3695 35.6738 52.5016C35.7282 52.6083 35.8429 52.6709 35.9623 52.6581C36.0816 52.6455 36.1807 52.5602 36.2114 52.4443H36.2114C36.5203 52.637 36.6055 52.5658 36.8198 52.0068C37.7792 49.5024 38.9446 46.6055 40.1401 43.976L37.0101 43.1221Z" fill="#4B0000"/>
<path fill-rule="evenodd" clip-rule="evenodd" d="M36.1097 52.5731L36.3686 51.678C36.3838 51.6256 36.4386 51.5953 36.491 51.6105C36.5434 51.6256 36.5736 51.6806 36.5585 51.733L36.3301 52.5227C36.2608 52.4887 36.2221 52.4449 36.2221 52.4449C36.2033 52.5026 36.1594 52.5437 36.1097 52.5731Z" fill="#A54C36"/>
<path fill-rule="evenodd" clip-rule="evenodd" d="M43.968 34.4483C44.0158 34.517 44.0751 34.5781 44.1367 34.6344C44.3492 34.8285 44.5807 35.0141 44.8756 35.0454C45.1444 35.074 45.4043 34.9892 45.6352 34.8434C45.8622 34.7001 46.0612 34.4978 46.2131 34.2816L46.22 34.5318C46.077 34.703 45.907 34.8586 45.7196 34.9771C45.4583 35.1421 45.1632 35.235 44.8588 35.2027C44.5297 35.1676 44.2671 34.9679 44.0299 34.7511C44.0072 34.7302 43.9845 34.7086 43.9624 34.6862L43.968 34.4483Z" fill="#A54C36"/>
<path fill-rule="evenodd" clip-rule="evenodd" d="M44.9131 33.5347C44.7856 33.5156 44.6522 33.5641 44.6018 33.6656C44.5639 33.741 44.5705 33.874 44.6324 33.9422C44.7095 34.027 44.8515 34.0756 44.9665 34.0579C45.0548 34.0443 45.1269 33.9947 45.1552 33.9034C45.1661 33.8687 45.1463 33.8318 45.1117 33.821C45.0772 33.8103 45.0399 33.8298 45.0294 33.8645C45.0172 33.9036 44.9839 33.9218 44.946 33.9277C44.8719 33.9392 44.7797 33.9085 44.7299 33.8536C44.7164 33.8386 44.7112 33.8158 44.7092 33.7933C44.7072 33.7683 44.7105 33.7428 44.7194 33.7244C44.7471 33.6691 44.8242 33.6547 44.8937 33.665C44.9296 33.6704 44.9632 33.6456 44.9684 33.6096C44.974 33.5737 44.949 33.5401 44.9131 33.5347Z" fill="#A54C36"/>
<path fill-rule="evenodd" clip-rule="evenodd" d="M45.1552 33.9035C45.1826 33.8154 45.1727 33.7429 45.1434 33.686C45.1002 33.6016 45.0103 33.5493 44.9131 33.5348C44.8772 33.5294 44.8436 33.5542 44.8383 33.5902C44.8327 33.6262 44.8577 33.6597 44.8936 33.6651C44.9483 33.6733 45.0017 33.6986 45.0264 33.7462C45.0422 33.7772 45.0442 33.8167 45.0294 33.8646C45.0185 33.8994 45.0379 33.9363 45.0729 33.947C45.1075 33.9577 45.1443 33.9382 45.1552 33.9035Z" fill="#A54C36"/>
<path fill-rule="evenodd" clip-rule="evenodd" d="M43.7926 32.9222L43.7428 32.8169C43.7428 32.8169 43.7422 32.8242 43.7418 32.828C43.7257 32.9847 43.6786 33.4518 43.6786 33.4518C43.7033 33.4347 43.726 33.4157 43.7455 33.3914C43.7455 33.3914 43.7774 33.0749 43.7916 32.9356C43.7919 32.9299 43.7926 32.9222 43.7926 32.9222Z" fill="#A54C36"/>
<path fill-rule="evenodd" clip-rule="evenodd" d="M46.4722 33.0911C46.4948 33.0706 46.5193 33.056 46.5445 33.0438C46.5445 33.0438 46.5494 33.1447 46.5492 33.1617C46.5488 33.4007 46.4612 33.8651 46.4612 33.8651C46.4336 33.8749 46.4051 33.8777 46.3765 33.8784C46.3765 33.8784 46.4686 33.4094 46.469 33.1616C46.4689 33.1536 46.4691 33.1453 46.4691 33.1366C46.4693 33.126 46.4722 33.0911 46.4722 33.0911Z" fill="#A54C36"/>
<path fill-rule="evenodd" clip-rule="evenodd" d="M43.9525 35.2997L43.9558 35.7047C43.9561 35.7592 43.9123 35.8038 43.8576 35.8042C43.8029 35.8047 43.7585 35.7607 43.7581 35.7062L43.7555 35.3718L43.9489 35.3637L43.9525 35.2997Z" fill="#A54C36"/>
<path fill-rule="evenodd" clip-rule="evenodd" d="M46.2266 35.1835L46.4239 35.2163L46.4213 35.4949C46.421 35.5495 46.3762 35.5933 46.3215 35.5928C46.2671 35.5923 46.2233 35.5476 46.2236 35.4931L46.2266 35.1835Z" fill="#A54C36"/>
<path fill-rule="evenodd" clip-rule="evenodd" d="M55.1027 52.4534C55.0928 52.4383 55.0866 52.4202 55.0866 52.4007C55.0803 51.9771 55.0375 51.5772 54.934 51.165C54.8586 50.8646 54.7064 50.4864 54.6616 50.216C54.6527 50.1619 54.6893 50.1112 54.743 50.1023C54.7967 50.0934 54.8477 50.1296 54.8566 50.1837C54.9008 50.4498 55.0517 50.8214 55.1258 51.1169C55.19 51.3736 55.2319 51.6253 55.2566 51.8806C55.2302 51.9356 55.195 51.9906 55.1478 52.0407C55.1478 52.0407 55.1534 52.2802 55.1027 52.4534ZM55.3152 51.6997C55.2882 51.3334 55.2368 50.9822 55.1518 50.6172C55.1169 50.466 55.081 50.3148 55.0431 50.1642C55.0302 50.1142 55.0171 50.0641 55.0019 50.0147C54.9976 49.9998 54.9808 49.9725 54.9756 49.9564C54.9673 49.9307 54.9686 49.9089 54.9719 49.8948C54.9789 49.8648 54.9953 49.8437 55.0181 49.8299C55.0358 49.8187 55.0635 49.8071 55.104 49.819C55.1488 49.8322 55.1772 49.8743 55.1749 49.9188C55.1815 49.9326 55.1887 49.9491 55.1913 49.9574C55.2071 50.0097 55.2213 50.0628 55.2348 50.1158C55.273 50.2677 55.3089 50.4199 55.3445 50.5724C55.3913 50.7734 55.4279 50.9703 55.4565 51.1677C55.4328 51.2583 55.3926 51.3584 55.3267 51.4586C55.3267 51.4586 55.3412 51.5643 55.3152 51.6997ZM55.5079 50.8033C55.4852 50.6557 55.4585 50.5091 55.4272 50.3649C55.3801 50.1445 55.2852 49.9126 55.2618 49.6889C55.2559 49.6348 55.2954 49.5861 55.3498 49.5805C55.4038 49.5749 55.4526 49.6141 55.4582 49.6684C55.4809 49.8852 55.5748 50.1095 55.6206 50.323C55.6354 50.3922 55.6492 50.4617 55.6624 50.5315C55.638 50.6198 55.5919 50.7374 55.5079 50.8033ZM55.0566 50.0107H55.0569L55.0553 50.0104L55.0566 50.0107ZM55.053 50.0101L55.0484 50.0087C55.05 50.0091 55.0517 50.0097 55.053 50.0101Z" fill="#A54C36"/>
<path fill-rule="evenodd" clip-rule="evenodd" d="M39.0583 43.6149C39.0571 43.6129 39.0559 43.6113 39.0548 43.6093C38.9981 43.5161 39.0278 43.3945 39.121 43.3379L39.7158 42.9758C39.809 42.9192 39.9307 42.9488 39.9874 43.042C40.0441 43.1353 40.0145 43.2568 39.9213 43.3135L39.3264 43.6755C39.3225 43.6778 39.3186 43.6801 39.3146 43.6821L39.0583 43.6149ZM50.9901 43.6614L50.9654 43.1293C50.9604 43.0203 51.0448 42.9277 51.1538 42.9228C51.2629 42.9175 51.3551 43.0022 51.3604 43.1109L51.3801 43.5418L50.9901 43.6614ZM41.5311 43.1023C41.5206 43.069 41.5186 43.0328 41.5272 42.9966L41.6884 42.3193C41.7137 42.2132 41.8204 42.1476 41.9265 42.173C42.0326 42.198 42.0983 42.3048 42.073 42.4108L41.9118 43.0882C41.9112 43.0905 41.9106 43.0928 41.91 43.0951L41.5311 43.1023ZM43.1788 43.0954L43.5555 42.676C43.6283 42.595 43.7535 42.5884 43.8346 42.6612C43.9156 42.7343 43.9222 42.8592 43.8494 42.9406L43.7193 43.0852L43.1788 43.0954ZM46.1142 43.0763L46.0744 43.018C46.0128 42.9277 46.0358 42.8048 46.1261 42.7432C46.216 42.6816 46.3392 42.7047 46.4008 42.7946L46.5873 43.0674L46.1142 43.0763ZM48.0641 43.072C48.0588 43.0677 48.0532 43.0628 48.0483 43.0575C47.9715 42.9801 47.9722 42.8549 48.0496 42.7782L48.5441 42.288C48.6218 42.2112 48.747 42.2119 48.8238 42.2893C48.9005 42.3667 48.8999 42.4922 48.8224 42.569L48.3276 43.0588C48.3247 43.0618 48.3217 43.0648 48.3188 43.0674L48.0641 43.072ZM37.187 42.4158L37.5144 42.4642C37.6223 42.4804 37.697 42.5808 37.681 42.6889C37.665 42.7966 37.5645 42.8714 37.4566 42.8556L37.0386 42.7936L37.187 42.4158ZM49.7119 41.9714L49.7992 42.6622C49.8127 42.7706 49.9115 42.8473 50.0199 42.8338C50.128 42.82 50.2047 42.7212 50.1912 42.6128L50.1043 41.922C50.0908 41.8139 49.9916 41.7372 49.8835 41.7507C49.7752 41.7642 49.6984 41.8633 49.7119 41.9714ZM52.6241 42.4207L51.9972 42.117C51.899 42.0696 51.7807 42.1107 51.7333 42.2089C51.6855 42.3071 51.7267 42.4253 51.8249 42.4728L52.4514 42.7765C52.5496 42.824 52.6682 42.7828 52.7156 42.6846C52.7631 42.5864 52.7222 42.4682 52.6241 42.4207ZM38.9127 42.255L38.7015 41.5916C38.6684 41.4878 38.5571 41.4301 38.4531 41.4634C38.3492 41.4964 38.2917 41.6077 38.3248 41.7115L38.5361 42.3749C38.5692 42.479 38.6804 42.5364 38.7844 42.5034C38.8883 42.4705 38.9458 42.3591 38.9127 42.255ZM44.6097 42.3908L45.3012 42.4721C45.4096 42.485 45.5081 42.4076 45.5206 42.2992C45.5334 42.1908 45.456 42.0923 45.3476 42.0798L44.6562 41.9981C44.5478 41.9856 44.4493 42.063 44.4364 42.1714C44.4239 42.2797 44.5013 42.3779 44.6097 42.3908ZM47.343 41.6229L46.6914 41.8686C46.5893 41.9071 46.5379 42.0215 46.5764 42.1236C46.6146 42.2254 46.7289 42.2771 46.8311 42.2386L47.4823 41.9928C47.5845 41.9543 47.6362 41.8403 47.5976 41.7382C47.5591 41.636 47.4451 41.5846 47.343 41.6229ZM43.0429 41.1791L42.7196 41.7958C42.6689 41.8923 42.7062 42.0119 42.8029 42.0626C42.8995 42.1134 43.0191 42.0758 43.0697 41.9793L43.393 41.3626C43.4437 41.2661 43.4063 41.1465 43.3097 41.0958C43.2131 41.045 43.0935 41.0826 43.0429 41.1791ZM40.5244 41.5026L39.842 41.641C39.7351 41.6624 39.6658 41.7668 39.6875 41.8739C39.7092 41.9806 39.8136 42.0501 39.9205 42.0284L40.6029 41.89C40.7098 41.8686 40.779 41.7642 40.7574 41.6571C40.7357 41.5501 40.6313 41.4809 40.5244 41.5026ZM51.3396 40.9831L50.774 41.389C50.6854 41.4525 50.6649 41.5764 50.7285 41.665C50.7921 41.7536 50.9156 41.7737 51.0043 41.7102L51.5702 41.3043C51.6588 41.2407 51.6789 41.1172 51.6153 41.0286C51.5518 40.9399 51.4282 40.9195 51.3396 40.9831ZM45.5825 40.6807L45.6669 41.3718C45.6804 41.4802 45.7789 41.5573 45.8872 41.5441C45.9956 41.5309 46.0727 41.4321 46.0595 41.3241L45.9749 40.6329C45.9617 40.5245 45.8629 40.4475 45.7548 40.4606C45.6464 40.4738 45.5693 40.5726 45.5825 40.6807ZM48.0924 40.4504L48.2871 41.1188C48.3178 41.2236 48.4275 41.2839 48.5322 41.2532C48.637 41.2229 48.6973 41.1129 48.667 41.0081L48.4719 40.3397C48.4416 40.235 48.3316 40.175 48.2268 40.2053C48.1221 40.236 48.0618 40.3457 48.0924 40.4504ZM44.0329 40.4567L44.3748 41.0632C44.4282 41.1584 44.5491 41.192 44.644 41.1383C44.7392 41.0849 44.7728 40.9643 44.7191 40.8691L44.3775 40.2626C44.3238 40.1674 44.2032 40.1338 44.108 40.1872C44.0131 40.2409 43.9795 40.3615 44.0329 40.4567ZM37.9445 40.4883L38.1661 40.2765C38.245 40.201 38.3702 40.2037 38.4456 40.2824C38.521 40.3611 38.5183 40.4867 38.4395 40.5618L37.9364 41.0434C37.8749 41.1024 37.7851 41.1136 37.7128 41.078L37.9445 40.4883ZM41.5181 40.4731L42.0442 40.9291C42.1266 41.0006 42.2516 40.9917 42.323 40.9093C42.3945 40.827 42.3856 40.7021 42.3031 40.6306L41.777 40.1744C41.6946 40.1029 41.5696 40.1118 41.4982 40.1941C41.4267 40.2768 41.4356 40.4017 41.5181 40.4731ZM40.0235 40.0765L39.5205 40.5578C39.4416 40.6333 39.4389 40.7584 39.5143 40.8372C39.5897 40.9162 39.715 40.9189 39.7938 40.8434L40.2968 40.3621C40.3756 40.2867 40.3784 40.1612 40.303 40.0824C40.2275 40.0037 40.1023 40.0011 40.0235 40.0765ZM50.0463 40.3094L49.3795 40.1085C49.2751 40.0768 49.1647 40.1361 49.1334 40.2406C49.1018 40.345 49.1611 40.4554 49.2655 40.487L49.9323 40.6879C50.0367 40.7192 50.1471 40.6603 50.1784 40.5558C50.21 40.4514 50.1507 40.341 50.0463 40.3094ZM47.1032 39.6357L46.6667 40.1783C46.5981 40.2633 46.6116 40.3878 46.6966 40.456C46.7816 40.5245 46.9062 40.511 46.9747 40.426L47.4112 39.8835C47.4794 39.7985 47.4659 39.674 47.3809 39.6056C47.2959 39.5372 47.1714 39.5507 47.1032 39.6357ZM51.9326 40.0406C51.8852 40.1249 51.7814 40.1638 51.6885 40.1276L51.0398 39.8746C50.9384 39.8347 50.888 39.7201 50.9275 39.6185C50.9674 39.5169 51.082 39.4665 51.1835 39.5062L51.8249 39.7563L51.9326 40.0406ZM43.101 39.2688L42.4534 39.5245C42.3519 39.5646 42.3021 39.6795 42.3421 39.781C42.3822 39.8825 42.4971 39.9322 42.5985 39.8924L43.2462 39.6365C43.3477 39.5965 43.3975 39.4816 43.3575 39.3801C43.3174 39.2786 43.2025 39.2288 43.101 39.2688ZM45.2554 38.8504L44.9668 39.4841C44.9217 39.5834 44.9655 39.7006 45.0647 39.7458C45.1641 39.7912 45.2814 39.7471 45.3265 39.6479L45.6151 39.0142C45.6603 38.9149 45.6164 38.7976 45.517 38.7524C45.4178 38.7072 45.3005 38.7511 45.2554 38.8504ZM38.5285 39.0025L38.9444 39.1435C39.0477 39.1785 39.1031 39.2908 39.0681 39.3941C39.0331 39.4975 38.9208 39.5529 38.8175 39.5179L38.3837 39.3709L38.5285 39.0025ZM40.6997 39.2337L40.5931 38.5457C40.5764 38.4378 40.4753 38.3639 40.3675 38.3806C40.2597 38.3973 40.1857 38.4984 40.2024 38.6062L40.3091 39.2943C40.3258 39.4021 40.4269 39.476 40.5347 39.4593C40.6425 39.4426 40.7164 39.3415 40.6997 39.2337ZM48.0358 39.1383L48.7164 39.286C48.8228 39.3091 48.9282 39.2413 48.9513 39.1347C48.9746 39.0281 48.9068 38.9228 48.8 38.8996L48.1198 38.7519C48.013 38.7288 47.9076 38.7966 47.8846 38.9032C47.8615 39.0098 47.9294 39.1151 48.0358 39.1383ZM43.5687 38.4628L43.9578 39.0403C44.0187 39.1308 44.1416 39.1548 44.2322 39.0939C44.3224 39.0329 44.3465 38.91 44.2856 38.8195L43.8968 38.242C43.8359 38.1515 43.7127 38.1275 43.6224 38.1885C43.5318 38.2494 43.5078 38.3723 43.5687 38.4628ZM50.0845 38.8392L49.9432 38.1574C49.9211 38.0506 49.8163 37.9819 49.7093 38.004C49.6025 38.0261 49.534 38.1308 49.5561 38.2377L49.6974 38.9195C49.7195 39.0263 49.8242 39.095 49.931 39.0729C50.0377 39.0507 50.1066 38.946 50.0845 38.8392ZM46.7658 38.6779L46.9921 38.0193C47.0274 37.9161 46.9724 37.8036 46.8693 37.7682C46.7662 37.7327 46.6535 37.7877 46.6182 37.8909L46.3919 38.5494C46.3567 38.6526 46.4117 38.7652 46.5148 38.8006C46.6179 38.836 46.7306 38.781 46.7658 38.6779ZM42.3234 38.6134L42.396 37.9209C42.4074 37.8124 42.3286 37.7151 42.2201 37.7037C42.1116 37.6923 42.0143 37.7712 42.0029 37.8797L41.9302 38.5722C41.9188 38.6807 41.9977 38.778 42.1062 38.7894C42.2147 38.8007 42.312 38.7219 42.3234 38.6134ZM51.0642 37.7546L51.3136 38.4106L51.276 38.5804C51.2526 38.6869 51.1469 38.7544 51.0405 38.7309C50.9341 38.7074 50.8666 38.6019 50.8899 38.4953L51.0398 37.8153C51.0448 37.7933 51.053 37.7729 51.0642 37.7546ZM44.8739 37.1879L44.5857 37.8216C44.5405 37.9209 44.5843 38.0382 44.6835 38.0834C44.783 38.1286 44.9003 38.0847 44.9454 37.9854L45.234 37.3517C45.2791 37.2524 45.235 37.1351 45.1358 37.0899C45.0367 37.0447 44.9194 37.0887 44.8739 37.1879ZM39.0562 37.6597L39.541 37.3031C39.6288 37.2385 39.7526 37.2573 39.8173 37.3452C39.8819 37.433 39.8631 37.5568 39.7752 37.6215L39.2144 38.0342C39.1265 38.0988 39.0027 38.0799 38.938 37.9921C38.9352 37.9883 38.9326 37.9844 38.9302 37.9805L39.0562 37.6597ZM41.226 37.6853L41.2088 36.9892C41.2061 36.8802 41.1155 36.7938 41.0064 36.7965C40.8973 36.7992 40.811 36.8899 40.8137 36.9989L40.8308 37.695C40.8335 37.8041 40.9242 37.8904 41.0333 37.8878C41.1423 37.8851 41.2287 37.7943 41.226 37.6853ZM48.3517 37.7826L48.8063 37.255C48.8775 37.1723 48.8679 37.0474 48.7852 36.9762C48.7025 36.9051 48.5777 36.9144 48.5065 36.997L48.0522 37.5247C47.9811 37.6073 47.9903 37.7322 48.073 37.8034C48.1557 37.8746 48.2805 37.8653 48.3517 37.7826ZM42.873 37.0489L43.4534 37.4334C43.5443 37.4937 43.6672 37.4688 43.7275 37.3778C43.7875 37.2869 43.7627 37.1641 43.6718 37.1039L43.0913 36.7193C43.0003 36.6591 42.8776 36.684 42.8173 36.775C42.7571 36.8659 42.782 36.9887 42.873 37.0489ZM46.0994 36.1581C46.1281 36.1919 46.1458 36.2355 46.1468 36.2833L46.1577 36.9795C46.1593 37.0886 46.0724 37.1786 45.9633 37.1803C45.8543 37.182 45.7644 37.0949 45.7624 36.9858C45.7624 36.9858 45.7515 36.2982 45.7518 36.2952C45.8711 36.261 45.9874 36.2047 46.0994 36.1581ZM47.5446 36.818L47.2975 36.167C47.259 36.065 47.1447 36.0136 47.0425 36.0523C46.9407 36.091 46.8894 36.2052 46.9279 36.3073L47.175 36.9582C47.2135 37.0602 47.3278 37.1116 47.43 37.0729C47.5317 37.0342 47.5831 36.92 47.5446 36.818ZM50.1352 36.3072C50.2334 36.3955 50.3263 36.4899 50.4129 36.5899L49.9142 37.0114C49.8312 37.0818 49.7063 37.0713 49.6358 36.988C49.5653 36.9047 49.5759 36.7799 49.6592 36.7094L50.1352 36.3072ZM43.6204 35.8652C43.8668 36.0791 44.0253 36.152 44.274 36.273L44.3745 36.393C44.4453 36.4758 44.4358 36.6006 44.3531 36.6717C44.2704 36.7428 44.1455 36.7332 44.0744 36.6505L43.6208 36.1221C43.5552 36.0455 43.5536 35.9379 43.6204 35.8652ZM40.2545 35.9404L40.4479 36.0352C40.5458 36.0833 40.5864 36.2018 40.5383 36.2997C40.4903 36.3977 40.3718 36.4382 40.2738 36.3902L39.9014 36.2075C40.0108 36.1082 40.1289 36.0187 40.2545 35.9404ZM42.1776 35.5671L41.5683 35.904C41.4728 35.9568 41.4382 36.0772 41.491 36.1726C41.5438 36.2681 41.6642 36.3028 41.7596 36.25L42.3689 35.913C42.4644 35.8602 42.499 35.7398 42.4463 35.6444C42.3934 35.5489 42.2731 35.5143 42.1776 35.5671ZM48.7697 35.5834C48.9081 35.6177 49.0428 35.6609 49.174 35.7126C49.1898 35.8162 49.1216 35.9153 49.0178 35.9363L48.3356 36.075C48.2285 36.0968 48.1244 36.0276 48.1026 35.9207C48.0809 35.8138 48.1501 35.7094 48.2568 35.6876L48.7697 35.5834Z" fill="#FFD274"/>
<path fill-rule="evenodd" clip-rule="evenodd" d="M40.5528 35.728C40.6521 35.6913 42.0154 35.2544 43.1829 35.3607C43.1984 35.3622 43.194 35.363 43.194 35.363L43.3424 35.5714C43.3424 35.5714 43.1692 35.5579 43.1493 35.5562C41.9809 35.4548 40.617 35.915 40.617 35.915L40.6048 35.9187C40.4154 35.9635 40.2263 36.0976 40.0371 36.2941C39.7353 36.6073 39.4383 37.0769 39.1553 37.6249C38.1509 39.57 37.332 42.4962 37.1782 43.0618L40.0665 43.7875L41.3599 39.9569C41.3756 39.9105 41.4228 39.8828 41.4709 39.8914C41.5191 39.8999 41.5537 39.9424 41.5524 39.9912L41.4938 43.1036L41.2962 43.0984L41.3367 40.6435L40.2246 43.9371C40.2081 43.9862 40.1569 44.0139 40.1069 44.0013L37.0326 43.2292C37.007 43.2226 36.9851 43.2061 36.9716 43.1834C36.9582 43.1606 36.9544 43.1336 36.9611 43.1079C36.9611 43.1079 37.8555 39.7112 38.9797 37.5342C39.2728 36.9666 39.5822 36.4814 39.8947 36.157C40.1128 35.9306 40.3345 35.7814 40.5528 35.728Z" fill="#FFD274"/>
<path fill-rule="evenodd" clip-rule="evenodd" d="M52.967 43.0618C52.6662 41.9457 52.1721 40.9845 51.675 39.4587C51.5481 39.0707 51.3449 38.5011 51.133 37.9197C50.6633 36.5912 49.4477 35.6697 48.0417 35.5764C47.5917 35.5466 47.0867 35.5436 47.0867 35.5436C47.1539 35.4883 47.2211 35.4323 47.2883 35.3749C47.2883 35.3749 47.6085 35.3519 48.0549 35.3792C49.5403 35.4701 50.8234 36.4508 51.3188 37.8529C51.5317 38.4358 51.7356 39.0078 51.8627 39.3975C52.3757 40.971 52.8843 41.9461 53.1828 43.106C53.1963 43.158 53.1656 43.2111 53.1139 43.2256L50.2367 44.0343C50.1876 44.0481 50.1359 44.0221 50.1177 43.9744L48.8761 40.739L48.9898 43.0595L48.7941 43.0592L48.6169 40.0532C48.6126 40.0041 48.6452 39.9593 48.6933 39.9484C48.7411 39.9372 48.7901 39.9632 48.8076 40.009L50.2699 43.8195L52.967 43.0618Z" fill="#FFD274"/>
<path fill-rule="evenodd" clip-rule="evenodd" d="M54.2914 50.5232C54.3913 50.4118 54.382 50.2401 54.2705 50.1402C54.1591 50.0403 53.9874 50.0498 53.8875 50.1613L53.4364 50.6647C53.3365 50.7762 53.3459 50.9476 53.4574 51.0475C53.5689 51.1474 53.7404 51.1381 53.8403 51.0267L54.2914 50.5232Z" fill="#AB494A"/>
<path fill-rule="evenodd" clip-rule="evenodd" d="M54.642 50.8375C54.7419 50.726 54.7326 50.5543 54.6211 50.4544C54.5097 50.3545 54.338 50.364 54.2381 50.4755L53.7869 50.9789C53.6871 51.0904 53.6965 51.2619 53.808 51.3617C53.9195 51.4616 54.091 51.4523 54.1908 51.3409L54.642 50.8375Z" fill="#AB494A"/>
<path fill-rule="evenodd" clip-rule="evenodd" d="M54.991 51.1502C55.0909 51.0388 55.0816 50.8671 54.9701 50.7672C54.8587 50.6673 54.687 50.6768 54.5871 50.7882L54.1359 51.2917C54.0361 51.4031 54.0455 51.5746 54.157 51.6745C54.2685 51.7744 54.44 51.7651 54.5398 51.6536L54.991 51.1502Z" fill="#AB494A"/>
<path fill-rule="evenodd" clip-rule="evenodd" d="M55.3328 51.4565C55.4327 51.345 55.4234 51.1733 55.3119 51.0734C55.2005 50.9735 55.0288 50.9831 54.9289 51.0945L54.4777 51.5979C54.3779 51.7094 54.3873 51.8809 54.4988 51.9808C54.6103 52.0807 54.7818 52.0714 54.8816 51.9599L55.3328 51.4565Z" fill="#AB494A"/>
<path fill-rule="evenodd" clip-rule="evenodd" d="M54.3588 50.3768C54.368 50.3281 54.3609 50.2747 54.3389 50.2178L53.575 51.1081C53.6227 51.1248 53.6773 51.1188 53.7313 51.1081L54.3588 50.3768Z" fill="black"/>
<path fill-rule="evenodd" clip-rule="evenodd" d="M54.0072 51.4274L54.084 51.4262C54.0686 51.466 54.0603 51.5031 54.0778 51.5318L54.7074 50.7928L54.7911 50.7023L54.7003 50.7159C54.7136 50.68 54.7172 50.6456 54.7086 50.6133L54.0072 51.4274Z" fill="black"/>
<path fill-rule="evenodd" clip-rule="evenodd" d="M54.4077 51.7603C54.4029 51.8119 54.4109 51.8621 54.4376 51.9045L55.1782 51.056L55.2093 51.0171C55.163 51.0055 55.1138 51.0023 55.0607 51.0103L54.4077 51.7603Z" fill="black"/>
<path fill-rule="evenodd" clip-rule="evenodd" d="M22.1157 41.7727C22.1157 41.7727 15.1591 58.5212 17.4904 66.3528L17.5136 67.1296L16.2241 67.5489L21.9398 67.1424L25.2148 47.0591L28.6054 67.5255L34.3021 67.597C34.3021 67.597 33.2209 66.9016 33.0017 66.9961C33.0017 66.9961 35.0005 57.449 28.8352 41.8591L28.6931 39.7382L33.0213 49.0469L36.0404 47.7387C36.0404 47.7387 32.0043 37.9775 30.9255 36.5715C30.9255 36.5715 29.1929 34.8605 27.7491 35.3108L24.366 34.8497C24.366 34.8497 21.8492 34.7622 21.0765 35.8208L18.6212 39.4939L18.7117 38.5915L16.0635 37.9667C16.0635 37.9667 14.3386 42.3832 15.4932 43.8873C15.4932 43.8873 16.9835 45.4182 18.3152 44.8193C18.3152 44.8193 21.4363 41.1785 22.3697 39.9714L22.1157 41.7727Z" fill="white"/>
<path fill-rule="evenodd" clip-rule="evenodd" d="M28.82 41.6334L28.8352 41.8591C33.5751 53.8447 33.4895 62.2586 33.1967 65.5078L28.2514 65.3889L25.2147 47.0591L22.2493 65.2446L17.2098 65.1234C15.8334 56.8978 22.1157 41.7728 22.1157 41.7728L28.82 41.6334Z" fill="#EF7B58"/>
<path fill-rule="evenodd" clip-rule="evenodd" d="M22.0946 41.9646C21.6566 43.0415 16.2185 56.6371 17.3462 65.0869C17.3542 65.1475 17.3117 65.2032 17.2512 65.2111C17.1908 65.2193 17.1352 65.1765 17.1271 65.1162C15.9467 56.2711 21.9183 41.8121 21.9183 41.8121C21.9353 41.7709 21.9755 41.7439 22.0202 41.7439L28.8752 41.6138C28.9214 41.6138 28.9625 41.6424 28.9787 41.6856C28.9787 41.6856 34.4831 56.3518 33.3031 65.1956C33.2949 65.2562 33.2392 65.2987 33.1789 65.2905C33.1183 65.2826 33.0758 65.2269 33.084 65.1663C34.2107 56.724 29.2047 42.9433 28.7982 41.8348L22.0946 41.9646Z" fill="#FD4B3C"/>
<path fill-rule="evenodd" clip-rule="evenodd" d="M25.2239 47.6328L22.3337 65.2075C22.3239 65.2678 22.267 65.3086 22.2068 65.2987C22.1467 65.2888 22.1059 65.2319 22.1157 65.1719L25.1149 46.9334C25.1237 46.88 25.1699 46.8408 25.2239 46.8408C25.2783 46.8408 25.3244 46.88 25.3329 46.9334L28.3238 65.163C28.3337 65.2233 28.2929 65.2803 28.2326 65.2902C28.1723 65.3 28.1156 65.2592 28.1057 65.1989L25.2239 47.6328Z" fill="#FD4B3C"/>
<path fill-rule="evenodd" clip-rule="evenodd" d="M30.2727 65.5427L30.5761 62.5679C30.5871 62.4592 30.6842 62.3801 30.7927 62.3913C30.9013 62.4022 30.9804 62.4994 30.9693 62.6078L30.6699 65.5446L30.2727 65.5427ZM29.4796 65.539C29.479 65.5288 29.4792 65.5186 29.4803 65.5081L29.8097 62.2767C29.8208 62.1683 29.9179 62.0889 30.0264 62.1001C30.135 62.1113 30.2141 62.2082 30.203 62.3169L29.8743 65.5407L29.4796 65.539ZM22.0564 64.7494L19.6776 63.3651C19.5833 63.3101 19.5514 63.1892 19.6062 63.0947C19.6611 63.0005 19.7822 62.9685 19.8765 63.0235L22.1318 64.336L22.0564 64.7494ZM22.2075 63.9212L20.259 62.7873C20.1648 62.7323 20.1328 62.6114 20.1877 62.5168C20.2425 62.4226 20.3636 62.3907 20.4579 62.4457L22.283 63.5078L22.2075 63.9212ZM33.2116 61.5032C33.2219 61.8537 33.2261 62.1835 33.2257 62.4925L33.0366 62.9435C32.9944 63.0439 32.8785 63.0914 32.7779 63.0492C32.6773 63.007 32.6299 62.8911 32.672 62.7906L33.2116 61.5032ZM33.1113 59.694C33.1357 59.9977 33.1556 60.2909 33.1715 60.5729L32.3882 62.4417C32.346 62.5425 32.2301 62.59 32.1295 62.5478C32.0289 62.5056 31.9814 62.3897 32.0236 62.2889L33.1113 59.694ZM27.5061 61.2815L29.0476 60.764C29.1511 60.7294 29.2632 60.785 29.2979 60.8885C29.3326 60.9919 29.2769 61.1043 29.1735 61.1388L27.572 61.6765L27.5061 61.2815ZM17.1539 61.0496L18.6799 59.9641C18.7688 59.9009 18.8923 59.9219 18.9555 60.0109C19.0187 60.0995 18.9979 60.223 18.909 60.2863L17.1318 61.5506C17.1381 61.3836 17.1456 61.2163 17.1539 61.0496ZM27.374 60.4905L28.9965 59.946C29.0999 59.9111 29.2121 59.9671 29.2468 60.0705C29.2815 60.1739 29.2257 60.286 29.1223 60.3205L27.4399 60.8855L27.374 60.4905ZM17.2162 60.0336L18.3935 59.1962C18.4824 59.1329 18.6059 59.1537 18.6691 59.2427C18.7324 59.3316 18.7115 59.4551 18.6226 59.5184L17.1823 60.5429C17.1928 60.3713 17.2042 60.2013 17.2162 60.0336ZM30.9967 59.1385L28.4554 57.1159C28.37 57.048 28.2456 57.0622 28.1776 57.1475C28.1097 57.2328 28.1238 57.3573 28.2092 57.4252L30.7506 59.4479C30.8359 59.5161 30.9604 59.5019 31.0283 59.4166C31.0962 59.3309 31.0821 59.2067 30.9967 59.1385ZM31.6556 58.651L29.1143 56.6283C29.0289 56.5604 28.9044 56.5746 28.8365 56.6599C28.7686 56.7452 28.7827 56.8698 28.8681 56.9376L31.4095 58.9603C31.4948 59.0282 31.6193 59.014 31.6872 58.9287C31.7551 58.8434 31.741 58.7189 31.6556 58.651ZM23.1193 58.9241L20.5841 57.5711C20.4879 57.5197 20.4514 57.3998 20.5028 57.3036C20.5541 57.2074 20.674 57.1709 20.7702 57.2223L23.1938 58.5156L23.1193 58.9241ZM23.2685 58.1061L21.1438 56.9722C21.0476 56.9208 21.0111 56.8009 21.0625 56.7047C21.1138 56.6085 21.2337 56.572 21.3299 56.6234L23.3431 57.6976L23.2685 58.1061ZM26.5713 55.6809L28.2599 54.4672C28.3485 54.4033 28.4721 54.4238 28.5357 54.5124C28.5994 54.601 28.5792 54.7245 28.4906 54.7881L26.6438 56.1157L26.5713 55.6809ZM30.6822 52.3737C30.7619 52.375 30.8362 52.4248 30.865 52.5042L31.9723 55.5577C32.0095 55.6601 31.9564 55.7738 31.8538 55.811C31.8322 55.8186 31.8101 55.8225 31.7883 55.8225H31.7859C31.7053 55.8225 31.6297 55.7724 31.6006 55.6924L30.4934 52.6389C30.4562 52.5361 30.5093 52.4228 30.6118 52.3856C30.6342 52.3777 30.6572 52.3737 30.6798 52.3737H30.6822ZM32.5392 55.7411C32.4845 55.7224 32.4385 55.6802 32.4173 55.6216L31.31 52.5681C31.2728 52.4656 31.3259 52.352 31.4285 52.3148C31.4509 52.3069 31.4739 52.3029 31.4964 52.3029H31.4988C31.5785 52.3042 31.6529 52.354 31.6817 52.4334L31.8281 52.8372C32.1278 54.0574 32.3805 55.0915 32.5392 55.7411ZM26.4259 54.8102L27.9698 53.7003C28.0583 53.6368 28.1819 53.6569 28.2456 53.7455C28.3093 53.8341 28.2891 53.958 28.2005 54.0215L26.4985 55.2447L26.4259 54.8102ZM18.9569 51.7923L18.8663 55.0391C18.8632 55.1482 18.9493 55.2394 19.0584 55.2424C19.1674 55.2454 19.2584 55.1594 19.2615 55.0503L19.3521 51.8035C19.3551 51.6944 19.2691 51.6035 19.16 51.6002C19.051 51.5973 18.96 51.6832 18.9569 51.7923ZM18.5521 52.0828L18.4758 54.8164C18.4728 54.9255 18.3818 55.0115 18.2727 55.0085C18.1637 55.0055 18.0776 54.9143 18.0807 54.8052L18.1084 53.8104C18.2436 53.2428 18.393 52.6643 18.5521 52.0828ZM24.4642 51.5531L24.3774 52.0291L22.3604 52.9647C22.2614 53.0108 22.1438 52.9677 22.0979 52.8689C22.052 52.7697 22.0951 52.6521 22.194 52.6063L24.4642 51.5531ZM24.6383 50.5994L24.5514 51.0754L22.2193 52.1573C22.1203 52.2034 22.0027 52.1603 21.9568 52.0614C21.9109 51.9623 21.954 51.8447 22.0529 51.7989L24.6383 50.5994ZM29.9707 50.1379L26.7311 50.3731C26.6223 50.381 26.5404 50.4759 26.5483 50.5846C26.5562 50.6933 26.651 50.7753 26.7598 50.7674L29.9993 50.5322C30.1081 50.5243 30.19 50.4294 30.1821 50.3207C30.1742 50.2117 30.0795 50.13 29.9707 50.1379ZM30.1246 49.3328L26.885 49.568C26.7762 49.5759 26.6943 49.6708 26.7022 49.7795C26.7101 49.8882 26.8049 49.9702 26.9137 49.9623L30.1532 49.7271C30.262 49.7189 30.344 49.6243 30.336 49.5156C30.3281 49.4066 30.2334 49.3249 30.1246 49.3328ZM19.7941 48.0035L20.7671 48.6848C20.8565 48.7474 20.8783 48.8706 20.8157 48.9602C20.7531 49.0495 20.6298 49.0712 20.5404 49.0086L19.6652 48.3959C19.7081 48.2644 19.7511 48.1336 19.7941 48.0035ZM20.0565 47.2205L21.3948 48.1577C21.4842 48.22 21.506 48.3435 21.4434 48.4328C21.3808 48.522 21.2575 48.5438 21.1681 48.4815L19.9248 47.6108C19.9689 47.4794 20.0129 47.3493 20.0565 47.2205ZM25.0431 48.3807C25.0141 48.3886 24.9828 48.3899 24.9513 48.3834C24.8445 48.3613 24.7756 48.2569 24.7976 48.1501L25.4518 44.9685C25.4737 44.8618 25.5783 44.7929 25.6852 44.8146C25.792 44.8367 25.8609 44.9411 25.839 45.0482L25.2636 47.8464L25.2048 47.4942L25.0431 48.3807ZM24.4518 47.8625L25.106 44.6812C25.128 44.5742 25.0591 44.4697 24.9522 44.4477C24.8454 44.4256 24.7408 44.4948 24.7188 44.6015L24.0646 47.7831C24.0426 47.8899 24.1115 47.9946 24.2183 48.0164C24.3252 48.0384 24.4298 47.9696 24.4518 47.8625ZM30.0657 45.7301C30.1034 45.88 30.1416 46.0319 30.1803 46.1857L28.9677 47.4784C28.8931 47.5578 28.7679 47.5621 28.6883 47.4873C28.6087 47.4125 28.6048 47.2873 28.6794 47.208L30.0657 45.7301ZM29.8845 45.012L29.9505 45.2732L28.5351 46.782C28.4605 46.8617 28.3353 46.8657 28.2557 46.7909C28.1762 46.7164 28.1722 46.5913 28.2468 46.5115L29.8353 44.8183L29.8845 45.012ZM21.1393 44.17L23.054 43.6073C23.1587 43.5767 23.2686 43.6366 23.2994 43.7414C23.3301 43.8461 23.2702 43.9558 23.1655 43.9868L20.9693 44.6318C21.0278 44.472 21.0845 44.3179 21.1393 44.17ZM25.1262 42.6941L28.01 44.1887C28.1069 44.2388 28.2262 44.2009 28.2765 44.1041C28.3267 44.0072 28.2888 43.888 28.1919 43.8379L25.3081 42.3433C25.2112 42.2929 25.0919 42.3308 25.0417 42.4276C24.9915 42.5245 25.0293 42.644 25.1262 42.6941ZM21.4871 43.2423L23.0341 42.788C23.1387 42.757 23.2487 42.817 23.2794 42.9218C23.3102 43.0265 23.2502 43.1365 23.1455 43.1672L21.3122 43.7058C21.3743 43.5404 21.4328 43.3856 21.4871 43.2423ZM25.6004 41.8109L26.0502 41.836L28.7444 43.2321C28.8412 43.2825 28.8791 43.4017 28.8289 43.4986C28.7787 43.5954 28.6593 43.6333 28.5625 43.5832L25.6787 42.0886C25.5818 42.0386 25.5439 41.919 25.5941 41.8221C25.5961 41.8185 25.5982 41.8145 25.6004 41.8109Z" fill="#FD4B3C"/>
<path fill-rule="evenodd" clip-rule="evenodd" d="M17.1772 65.0598L17.3137 66.7534C17.3137 66.7534 16.1583 66.93 15.9708 67.6972L22.008 67.4215L22.2984 65.0865L17.1772 65.0598Z" fill="#224D99"/>
<path fill-rule="evenodd" clip-rule="evenodd" d="M33.2638 65.2152L33.1273 66.9088C33.1273 66.9088 34.2828 67.0854 34.4702 67.8526L28.433 67.5769L28.1426 65.2419L33.2638 65.2152Z" fill="#224D99"/>
<path fill-rule="evenodd" clip-rule="evenodd" d="M24.6573 32.9614C24.6969 32.6351 24.7423 32.3434 24.7918 32.1645C24.815 32.0825 24.8526 32.0052 24.9027 31.9363C25.0924 31.6905 25.7118 31.0382 26.6437 31.6491C26.6437 31.6491 26.9527 31.7514 26.9891 33.0131C27.0487 32.9378 27.137 32.8901 27.2355 32.8901C27.4148 32.8901 27.5604 33.0485 27.5604 33.2436C27.5604 33.4388 27.4148 33.5972 27.2355 33.5972C27.1427 33.5972 27.059 33.5548 26.9997 33.4869C27.0157 34.4297 26.9895 34.8363 26.9895 34.8363L27.9361 35.1061C27.9361 35.1061 25.3044 36.832 23.8301 34.8363H24.4935C24.4935 34.8363 24.5306 34.2243 24.5928 33.5671C24.5527 33.5864 24.5083 33.5972 24.4616 33.5972C24.2822 33.5972 24.1366 33.4388 24.1366 33.2436C24.1366 33.0485 24.2822 32.8901 24.4616 32.8901C24.5351 32.8901 24.6029 32.9166 24.6573 32.9614Z" fill="#B74D2F"/>
<path fill-rule="evenodd" clip-rule="evenodd" d="M15.9827 37.9807L18.7421 38.5736L19.1943 35.1976C19.1943 35.1976 20.6106 34.9979 20.5245 34.2998C20.5245 34.2998 21.0127 34.0082 20.7004 33.5972C20.7004 33.5972 21.0861 33.3382 20.7004 32.8477C20.7004 32.8477 20.7557 32.7931 20.7966 32.7144C20.8511 32.6096 20.88 32.4622 20.7195 32.3433C20.638 32.2829 20.5393 32.2502 20.4379 32.2498C20.3252 32.2493 20.1511 32.2486 20.1511 32.2486L20.132 32.4427L19.3166 32.5308L19.3058 32.2212C19.3058 32.2212 19.1525 32.2189 18.9382 32.2155C18.1584 32.2034 17.468 32.7176 17.2562 33.4682C16.7754 35.1716 15.9827 37.9807 15.9827 37.9807Z" fill="#B74D2F"/>
<path fill-rule="evenodd" clip-rule="evenodd" d="M32.8834 49.0634L34.4003 52.9391C34.4003 52.9391 34.7543 53.0534 34.7076 52.0869C34.7076 52.0869 34.7172 51.0011 35.0661 51.15C35.0661 51.15 36.0038 52.3231 36.1239 53.853C36.129 53.9228 36.1773 53.9814 36.2446 54.0002C36.3119 54.0187 36.3836 53.993 36.4236 53.9357C36.4921 53.8372 36.5495 53.6484 36.5631 53.2999C36.5631 53.2999 36.783 53.0966 36.7463 52.7263C36.7463 52.7263 36.9537 52.4114 36.9264 52.0869C36.9264 52.0869 37.3896 51.8227 37.1751 51.0317C36.9607 50.2405 36.1324 47.6907 36.1324 47.6907L32.8834 49.0634Z" fill="#B74D2F"/>
<path fill-rule="evenodd" clip-rule="evenodd" d="M24.5841 33.6375C24.5872 33.6458 24.5889 33.6548 24.589 33.6642C24.5893 33.6986 24.6067 33.7462 24.6349 33.802C24.6847 33.9006 24.7693 34.0189 24.8811 34.1318C25.0976 34.3506 25.4164 34.5507 25.7869 34.5406C26.1573 34.5305 26.5733 34.3096 26.9926 33.7085L26.9962 33.969C26.6187 34.4466 26.2417 34.648 25.9012 34.6904C25.3166 34.7631 24.8278 34.3657 24.5913 34.0329C24.5791 34.0157 24.5676 33.9987 24.5568 33.9819L24.5841 33.6375Z" fill="#591900"/>
<path fill-rule="evenodd" clip-rule="evenodd" d="M24.344 34.8435L24.5024 34.8436L24.4893 35.0861C24.487 35.1297 24.4497 35.1632 24.4061 35.1608C24.3625 35.1585 24.3291 35.1212 24.3314 35.0776L24.344 34.8435Z" fill="#591900"/>
<path fill-rule="evenodd" clip-rule="evenodd" d="M26.9854 34.8395L27.1406 34.8793L27.1277 35.1126C27.1253 35.1562 27.088 35.1896 27.0445 35.1872C27.0009 35.1848 26.9674 35.1475 26.9698 35.1039L26.9872 34.7888L26.9854 34.8395Z" fill="#591900"/>
<path fill-rule="evenodd" clip-rule="evenodd" d="M24.6623 32.9633L24.6049 32.9279L24.5484 33.5833L24.6105 33.5644L24.6623 32.9633Z" fill="#591900"/>
<path fill-rule="evenodd" clip-rule="evenodd" d="M27.0474 32.9524L26.9875 33.0134L26.9952 33.4872L27.0527 33.5378L27.0474 32.9524Z" fill="#591900"/>
<path fill-rule="evenodd" clip-rule="evenodd" d="M26.2351 33.6242C26.2845 33.5446 26.288 33.4748 26.2671 33.4187C26.2461 33.3625 26.1983 33.3172 26.1319 33.2895C26.0212 33.2434 25.8555 33.2474 25.7187 33.3212C25.6867 33.3385 25.6747 33.3785 25.692 33.4105C25.7092 33.4425 25.7493 33.4545 25.7813 33.4372C25.8806 33.3835 26.0008 33.3777 26.0812 33.4112C26.1104 33.4233 26.1344 33.4401 26.1436 33.4648C26.1529 33.4897 26.145 33.5195 26.1231 33.5548C26.1039 33.5857 26.1135 33.6264 26.1444 33.6455C26.1753 33.6647 26.2159 33.6551 26.2351 33.6242Z" fill="#591900"/>
<path fill-rule="evenodd" clip-rule="evenodd" d="M25.7186 33.3211C25.6469 33.3599 25.5975 33.4461 25.5879 33.536C25.5779 33.6297 25.6109 33.7233 25.6891 33.7709C25.7736 33.8223 25.8901 33.8231 25.9965 33.7896C26.1006 33.7569 26.1929 33.6922 26.2351 33.6241C26.2542 33.5932 26.2447 33.5526 26.2138 33.5334C26.1829 33.5143 26.1422 33.5238 26.1231 33.5547C26.0942 33.6013 26.0282 33.6415 25.957 33.6639C25.8881 33.6856 25.8123 33.6916 25.7576 33.6583C25.7224 33.6369 25.7145 33.5921 25.719 33.55C25.7239 33.5039 25.7445 33.457 25.7812 33.4371C25.8132 33.4198 25.8252 33.3798 25.8079 33.3478C25.7906 33.3158 25.7506 33.3039 25.7186 33.3211Z" fill="#591900"/>
<path fill-rule="evenodd" clip-rule="evenodd" d="M20.6115 34.2386C20.5905 34.2575 20.5675 34.2766 20.5423 34.2958C20.5423 34.2958 20.5424 34.397 20.4903 34.5138C20.1938 34.6373 19.788 34.7422 19.3999 34.681C19.346 34.6725 19.3091 34.6219 19.3176 34.568C19.3261 34.5142 19.3767 34.4773 19.4306 34.4858C19.8717 34.5553 20.3377 34.3849 20.5998 34.2449C20.6037 34.2428 20.6076 34.2407 20.6115 34.2386ZM20.7192 33.5867C20.7137 33.592 20.708 33.5973 20.7021 33.6026C20.7021 33.6026 20.7675 33.6656 20.797 33.7685C20.5418 33.8603 19.9599 34.0483 19.4137 34.0144C19.3593 34.0111 19.3178 33.9641 19.3212 33.9097C19.3246 33.8552 19.3715 33.8138 19.4259 33.8172C19.9323 33.8486 20.4706 33.6762 20.7192 33.5867ZM20.6903 32.8557C20.7058 32.8711 20.7645 32.9321 20.8103 33.0193C20.4536 33.1787 19.8167 33.2815 19.4825 33.2858C19.4279 33.2865 19.3831 33.2428 19.3824 33.1883C19.3817 33.1337 19.4254 33.0888 19.4799 33.0882C19.7825 33.0842 20.3497 32.9962 20.6903 32.8557Z" fill="#591900"/>
<path fill-rule="evenodd" clip-rule="evenodd" d="M19.1706 35.398C19.064 35.3965 18.9459 35.38 18.8395 35.373C18.785 35.3694 18.7437 35.3223 18.7473 35.2679C18.7508 35.2135 18.7979 35.1722 18.8523 35.1758C18.9689 35.1834 19.0847 35.1905 19.2016 35.1905H19.2035C19.2029 35.1905 19.2022 35.1905 19.2016 35.1905C19.2016 35.1905 19.1907 35.3028 19.1706 35.398Z" fill="#591900"/>
<path fill-rule="evenodd" clip-rule="evenodd" d="M20.3752 32.4141C20.387 32.4101 20.3998 32.4083 20.413 32.4091C20.5056 32.4151 20.5089 32.4951 20.5092 32.5057C20.5098 32.526 20.5071 32.578 20.4444 32.6015C20.4372 32.6042 20.3844 32.6117 20.364 32.6144C20.3224 32.6199 20.2809 32.6256 20.2393 32.6304C20.1249 32.6437 20.0104 32.6562 19.8957 32.6672C19.5413 32.7015 19.1862 32.7374 18.8296 32.7258C18.7751 32.724 18.7323 32.6783 18.7341 32.6238C18.7358 32.5693 18.7815 32.5265 18.8361 32.5282C19.1841 32.5395 19.5308 32.504 19.8767 32.4705C19.9901 32.4595 20.1034 32.4472 20.2165 32.4341C20.2571 32.4293 20.2976 32.4238 20.3381 32.4184C20.3455 32.4175 20.3631 32.4154 20.3752 32.4141Z" fill="#591900"/>
<path fill-rule="evenodd" clip-rule="evenodd" d="M36.5194 53.6714C36.5178 53.0735 36.4447 52.5144 36.3363 51.9195C36.3099 51.7749 36.2561 51.513 36.2279 51.369C36.2175 51.3153 36.2525 51.2632 36.306 51.253C36.3595 51.2425 36.4115 51.2774 36.4219 51.3311C36.4502 51.4757 36.5042 51.7389 36.5307 51.8842C36.6072 52.3036 36.6662 52.7055 36.6959 53.1153C36.6683 53.1848 36.6277 53.2543 36.5684 53.3159C36.5684 53.3159 36.5526 53.5205 36.5194 53.6714ZM36.8353 52.5793C36.7875 52.2354 36.7099 51.9086 36.6267 51.5686C36.5818 51.3848 36.5405 51.2201 36.4725 50.9977C36.4565 50.9457 36.4859 50.8903 36.5381 50.8742C36.5902 50.8584 36.6455 50.8877 36.6615 50.9397C36.7308 51.1667 36.7729 51.3344 36.8187 51.5215C36.8642 51.7073 36.9079 51.8895 36.9461 52.0723C36.9424 52.0743 36.9385 52.0763 36.9347 52.0783C36.9347 52.0783 36.9169 52.3764 36.8353 52.5793ZM37.0445 51.9837C36.9962 51.7126 36.9311 51.4438 36.8599 51.1779C36.828 51.059 36.7722 50.8607 36.7379 50.7424C36.7227 50.69 36.7529 50.635 36.8053 50.6199C36.8577 50.6047 36.9125 50.635 36.9277 50.6874C36.9624 50.8067 37.0186 51.0066 37.0508 51.1269C37.1018 51.3173 37.1497 51.5093 37.1908 51.7027C37.1629 51.7798 37.1132 51.8974 37.0445 51.9837Z" fill="#591900"/>
<path fill-rule="evenodd" clip-rule="evenodd" d="M18.7351 39.1754L20.4547 36.3608C21.0716 35.3511 22.1822 34.7493 23.3651 34.7838C23.6833 34.793 23.8554 34.8341 23.8554 34.8341L23.9998 35.0347C23.9998 35.0347 23.6769 35.0139 23.3586 35.0046C22.255 34.9724 21.2188 35.5339 20.6432 36.476C19.7823 37.8851 18.6564 39.728 18.6564 39.728C18.6293 39.7725 18.5748 39.7919 18.5257 39.7748C18.4766 39.7576 18.4461 39.7082 18.4525 39.6567L18.5847 38.5946C18.5922 38.5341 18.6474 38.4911 18.7079 38.4986C18.7685 38.5061 18.8115 38.5614 18.8039 38.6219L18.7351 39.1754Z" fill="black"/>
<path fill-rule="evenodd" clip-rule="evenodd" d="M22.2793 40.1509L18.9308 44.5195C18.7008 44.8196 18.3573 45.012 17.9812 45.0509C17.9812 45.0509 17.9812 45.0509 17.9811 45.0509C17.1065 45.1421 16.2421 44.8025 15.6633 44.1403C15.0844 43.4785 14.8632 42.5765 15.07 41.722C15.5747 39.6357 15.9817 37.9725 15.9817 37.9725L16.1964 38.0245C16.1964 38.0245 15.7895 39.6877 15.2847 41.7737C15.0948 42.5587 15.298 43.3869 15.8296 43.9951C16.3612 44.6029 17.155 44.9148 17.9583 44.8311C17.9583 44.8311 17.9583 44.8311 17.9584 44.8311C18.2741 44.7985 18.5624 44.6371 18.7555 44.3851C19.7075 43.1428 22.3826 39.6527 22.3826 39.6527C22.4137 39.6122 22.4684 39.5982 22.5151 39.6189C22.5617 39.6396 22.5882 39.6896 22.579 39.7398L22.2125 41.7563L21.9578 41.7638L22.2793 40.1509Z" fill="black"/>
<path fill-rule="evenodd" clip-rule="evenodd" d="M27.9296 35.1026C27.9063 35.1027 27.5306 35.3267 27.5306 35.3267C27.5527 35.3263 27.928 35.3284 27.95 35.3283C29.4089 35.3228 30.7979 36.1206 31.397 37.4553C33.0274 41.0882 36.014 47.7427 36.014 47.7427C36.039 47.7983 36.1044 47.823 36.16 47.7983C36.2157 47.7733 36.2405 47.7077 36.2156 47.6521C36.2156 47.6521 33.229 40.9976 31.5986 37.3649C30.9637 35.9504 29.4757 35.0967 27.9296 35.1026Z" fill="black"/>
<path fill-rule="evenodd" clip-rule="evenodd" d="M28.9348 41.6308L28.7264 38.8894C28.721 38.8286 28.6674 38.7836 28.6067 38.789C28.5459 38.7943 28.501 38.848 28.5063 38.9088L28.7028 41.6321L28.9348 41.6308Z" fill="black"/>
<path fill-rule="evenodd" clip-rule="evenodd" d="M28.554 39.4225L32.9159 49.156C32.9408 49.2116 33.0063 49.2367 33.0619 49.2116C33.1175 49.1866 33.1425 49.1214 33.1175 49.0657L28.7556 39.3322C28.7307 39.2765 28.6653 39.2516 28.6096 39.2765C28.554 39.3015 28.529 39.3669 28.554 39.4225Z" fill="black"/>
<path fill-rule="evenodd" clip-rule="evenodd" d="M33.203 41.6334C33.203 41.6334 32.5715 43.4782 34.34 44.0662C34.3978 44.0853 34.4604 44.054 34.4797 43.996C34.4989 43.9384 34.4675 43.8758 34.4097 43.8564C32.848 43.3372 33.4119 41.7052 33.4119 41.7052C33.4317 41.6475 33.401 41.5846 33.3434 41.5648C33.2857 41.5451 33.2228 41.5757 33.203 41.6334Z" fill="black"/>
<path fill-rule="evenodd" clip-rule="evenodd" d="M15.7591 44.1064C15.7591 44.1064 16.2204 43.775 16.8172 43.8613C17.2226 43.9196 17.6857 44.173 18.1157 44.8371C18.1489 44.8882 18.2173 44.903 18.2685 44.8697C18.3197 44.8368 18.3343 44.7682 18.3012 44.7172C17.8229 43.9783 17.2997 43.7075 16.8488 43.6426C16.161 43.5434 15.6299 43.9272 15.6299 43.9272C15.5804 43.9628 15.5692 44.032 15.6048 44.0814C15.6405 44.1308 15.7096 44.142 15.7591 44.1064Z" fill="black"/>
<path fill-rule="evenodd" clip-rule="evenodd" d="M18.4837 39.4376C18.4837 39.4376 18.3952 40.1299 18.3205 40.7143C18.3144 40.7614 18.3446 40.8055 18.3907 40.817C18.4368 40.8282 18.4841 40.8035 18.5008 40.7591C18.8323 39.8769 19.3378 38.5319 19.3378 38.5319L18.4837 39.4376Z" fill="black"/>
<path fill-rule="evenodd" clip-rule="evenodd" d="M20.9937 24.9393C21.0123 24.9247 21.0395 24.9044 21.0549 24.8977C21.3388 24.7746 21.6319 24.6719 21.9219 24.5643C22.9884 24.1685 24.0662 23.8041 25.1485 23.4539C27.8198 22.5895 30.5767 22.0879 33.3628 21.7652C34.6417 21.617 36.0998 21.3992 37.3199 21.9314C37.5603 22.0363 37.8723 22.4243 37.8723 22.4243L37.8883 22.4537C38.3905 23.9236 37.8689 26.3122 37.8689 26.3122C37.8573 26.365 37.8054 26.3987 37.7525 26.3878C37.7525 26.3878 37.5388 26.3434 37.4875 26.3258C37.1009 26.1931 36.7158 26.0832 36.3119 26.0157C35.1572 25.8226 34.0094 25.8671 32.8563 26.0498C31.1965 26.3128 29.5637 26.7129 27.9297 27.1003C25.4239 27.6943 22.7572 28.2375 20.4763 29.4834C20.4284 29.5096 20.3683 29.4919 20.3422 29.444C20.316 29.3962 20.3337 29.3361 20.3815 29.3099C22.6777 28.0557 25.3614 27.506 27.8841 26.908C29.5229 26.5195 31.1607 26.1183 32.8254 25.8546C33.9997 25.6686 35.1686 25.6241 36.3445 25.8207C36.7592 25.8901 37.1547 26.0026 37.5516 26.1388C37.5758 26.1472 37.6397 26.1617 37.6956 26.1739C37.7849 25.724 38.1278 23.7908 37.7066 22.5336C37.6549 22.4693 37.4255 22.1931 37.2409 22.1126C36.0523 21.5941 34.6314 21.8172 33.3856 21.9615C30.6124 22.2827 27.8682 22.7816 25.2094 23.6419C24.1297 23.9913 23.0546 24.3548 21.9906 24.7496C21.705 24.8556 21.4162 24.9566 21.1366 25.0777C21.1333 25.0804 21.1187 25.0923 21.1108 25.0989C21.0917 25.1149 21.0722 25.1279 21.0554 25.1349C21.0239 25.148 20.9943 25.1476 20.9681 25.1384C20.9482 25.1314 20.9287 25.1189 20.9124 25.0966C20.88 25.0527 20.8895 24.9908 20.9334 24.9585C20.9516 24.9451 20.9728 24.9389 20.9937 24.9393Z" fill="#FFD274"/>
<path fill-rule="evenodd" clip-rule="evenodd" d="M50.1359 25.0791C50.0496 24.9129 49.8648 24.7441 49.6352 24.5774C48.9506 24.0805 47.8576 23.6309 47.4359 23.4755C44.9645 22.5648 40.7295 22.4261 38.0957 23.1337C38.043 23.1479 37.9888 23.1166 37.9746 23.0639C37.9605 23.0113 37.9917 22.957 38.0444 22.9428C40.7119 22.2261 45.0011 22.3677 47.5041 23.29C47.9353 23.4489 49.0514 23.9095 49.7511 24.4174C50.07 24.6487 50.3016 24.8944 50.3655 25.1231C50.3823 25.1839 50.354 25.2705 50.2179 25.2787C50.0486 25.2888 49.5551 25.1923 49.1921 25.1681C48.4268 25.1169 47.6484 25.0937 46.8815 25.0982C46.8604 25.0983 46.8393 25.0982 46.8182 25.0985C46.7981 25.0987 46.7784 25.0992 46.7583 25.0997C46.6647 25.1022 46.5715 25.1066 46.4786 25.1139C46.6097 25.1498 46.7385 25.1928 46.865 25.242C47.655 25.549 48.3893 26.1473 48.9678 26.7574C49.0412 26.8348 49.2975 27.09 49.4108 27.3026C49.4764 27.4253 49.4909 27.54 49.45 27.619C49.4359 27.6465 49.4105 27.6708 49.3683 27.6817C49.3374 27.6895 49.284 27.6887 49.2148 27.6732C48.9348 27.6107 48.2812 27.3191 48.0753 27.2473C47.2531 26.9601 46.3804 26.795 45.5147 26.7114C43.3704 26.5045 41.3355 26.9582 39.2543 27.4047C38.6441 27.5356 37.8707 27.733 37.1458 27.7318C36.6468 27.731 36.1707 27.6361 35.7809 27.3702C35.4213 27.125 34.9345 26.5387 35.1749 25.8113C35.192 25.7595 35.2479 25.7313 35.2997 25.7484C35.3515 25.7656 35.3797 25.8215 35.3625 25.8733C35.1564 26.4973 35.5837 26.9965 35.8923 27.207C36.25 27.451 36.6882 27.5334 37.1461 27.5342C37.8567 27.5353 38.6147 27.3398 39.2128 27.2114C41.314 26.7606 43.3688 26.3057 45.5338 26.5147C46.415 26.5997 47.3035 26.7683 48.1406 27.0606C48.3185 27.1228 48.8347 27.3518 49.1463 27.4494C49.1888 27.4627 49.2372 27.4734 49.2722 27.4804C49.2708 27.4754 49.2689 27.4702 49.2672 27.4649C49.2517 27.4182 49.2224 27.367 49.1872 27.3147C49.0689 27.1384 48.8831 26.9554 48.8245 26.8934C48.2651 26.3037 47.5571 25.723 46.7935 25.4262C46.5198 25.3198 46.2328 25.2433 45.9406 25.2094C45.9317 25.2084 45.8991 25.2044 45.883 25.1973C45.8547 25.185 45.8382 25.1648 45.8293 25.146C45.8201 25.1271 45.799 25.0381 45.8932 25.0058C45.941 24.9896 46.1973 24.9459 46.2104 24.9441C46.3906 24.9188 46.5712 24.907 46.753 24.9022C46.7741 24.9016 46.7948 24.9011 46.8156 24.9008C46.837 24.9005 46.8588 24.9006 46.8802 24.9005C47.652 24.896 48.4351 24.9193 49.2053 24.9708C49.4886 24.9898 49.8523 25.0538 50.0756 25.0753C50.0957 25.0772 50.1165 25.0784 50.1359 25.0791Z" fill="#FFD274"/>
<path fill-rule="evenodd" clip-rule="evenodd" d="M37.8362 26.2811C37.8362 26.2811 38.0885 27.088 35.5005 27.0663C35.5005 27.0663 34.884 26.386 35.2869 25.7909C35.2869 25.7909 36.6664 25.9218 37.8362 26.2811Z" fill="#FFD274"/>
<path fill-rule="evenodd" clip-rule="evenodd" d="M19.8144 35.0325L19.2869 39.2748L18.4261 39.1678L18.9205 35.1916C19.1726 35.1591 19.619 35.0717 19.8144 35.0325ZM19.2504 32.5379L20.3059 24.048L21.1667 24.155L20.1363 32.4429C19.859 32.4725 19.4228 32.5194 19.2504 32.5379Z" fill="#224D99"/>
<path fill-rule="evenodd" clip-rule="evenodd" d="M35.6563 51.3219C35.7848 51.2166 35.8038 51.0266 35.6985 50.8981C35.5932 50.7695 35.4032 50.7508 35.2747 50.8561L34.694 51.3317C34.5654 51.437 34.5467 51.6268 34.652 51.7553C34.7573 51.8839 34.9471 51.9029 35.0756 51.7976L35.6563 51.3219Z" fill="#4B0000"/>
<path fill-rule="evenodd" clip-rule="evenodd" d="M35.9876 51.7263C36.1161 51.621 36.1351 51.4311 36.0298 51.3025C35.9245 51.1739 35.7345 51.1552 35.606 51.2605L35.0253 51.7361C34.8967 51.8414 34.878 52.0312 34.9833 52.1598C35.0886 52.2883 35.2784 52.3073 35.4069 52.202L35.9876 51.7263Z" fill="#4B0000"/>
<path fill-rule="evenodd" clip-rule="evenodd" d="M36.3173 52.1288C36.4458 52.0235 36.4648 51.8335 36.3595 51.705C36.2542 51.5764 36.0642 51.5576 35.9357 51.6629L35.355 52.1386C35.2264 52.2439 35.2077 52.4337 35.313 52.5622C35.4183 52.6908 35.6081 52.7098 35.7366 52.6045L36.3173 52.1288Z" fill="#4B0000"/>
<path fill-rule="evenodd" clip-rule="evenodd" d="M36.6402 52.523C36.7687 52.4177 36.7877 52.2277 36.6824 52.0991C36.5771 51.9706 36.3871 51.9518 36.2585 52.0571L35.6779 52.5328C35.5493 52.6381 35.5305 52.8278 35.6359 52.9564C35.7412 53.085 35.9309 53.1039 36.0595 52.9986L36.6402 52.523Z" fill="#4B0000"/>
<path fill-rule="evenodd" clip-rule="evenodd" d="M35.755 51.1727C35.7734 51.1209 35.7747 51.061 35.7603 50.9948L34.7706 51.8418C34.8202 51.8682 34.8811 51.8709 34.9421 51.8684L35.755 51.1727Z" fill="#A54C36"/>
<path fill-rule="evenodd" clip-rule="evenodd" d="M35.1905 52.2656L35.275 52.2774C35.2513 52.3184 35.2359 52.3576 35.2502 52.3922L36.0667 51.6884L36.1739 51.6033L36.072 51.6028C36.0927 51.5657 36.1025 51.5286 36.0986 51.4916L35.1905 52.2656Z" fill="#A54C36"/>
<path fill-rule="evenodd" clip-rule="evenodd" d="M35.5734 52.699C35.5594 52.7548 35.5597 52.8112 35.5818 52.8623L36.5386 52.0572L36.5794 52.0199C36.5306 51.9993 36.4771 51.9873 36.4175 51.9871L35.5734 52.699Z" fill="#A54C36"/>
<path fill-rule="evenodd" clip-rule="evenodd" d="M47.3164 32.2332L47.7028 32.8768L48.0573 32.7272L47.6248 31.9954L47.3164 32.2332ZM50.3633 31.7251L50.0503 32.4888L50.3603 32.7471L50.8551 32.125L50.3633 31.7251ZM48.4925 31.1731L48.8581 32.1651L49.2544 32.1205L49.0904 30.9884L48.4925 31.1731Z" fill="#FD4B3C"/>
<path fill-rule="evenodd" clip-rule="evenodd" d="M55.3748 27.0499L55.1959 28.0786L55.5128 28.246L55.8067 27.3065L55.3748 27.0499ZM56.8151 26.7871L56.4741 27.8716L56.8707 28.0712L57.3428 26.8893L56.8151 26.7871Z" fill="#FD4B3C"/>
<path fill-rule="evenodd" clip-rule="evenodd" d="M33.6606 30.8382L34.0827 31.7233L34.4527 31.565L34.059 30.5466L33.6606 30.8382ZM34.9089 29.8274L34.9423 30.931L35.3729 31.0027L35.5639 29.8521L34.9089 29.8274Z" fill="#FD4B3C"/>
<path fill-rule="evenodd" clip-rule="evenodd" d="M61.2905 28.4748L61.298 28.126C61.2993 28.0715 61.3445 28.0282 61.3992 28.0294C61.4535 28.0307 61.497 28.0759 61.4957 28.1304L61.4868 28.5357L61.8014 28.2804C61.8439 28.2461 61.9062 28.2526 61.9404 28.295C61.975 28.3373 61.9684 28.3996 61.9259 28.434L61.6304 28.6735L62.0089 28.7133C62.063 28.7191 62.1025 28.7677 62.0966 28.822C62.091 28.8762 62.0422 28.9156 61.9882 28.9099L61.6097 28.8701L61.8488 29.1659C61.8831 29.2083 61.8765 29.2706 61.8343 29.3049C61.7918 29.3392 61.7296 29.3326 61.6953 29.2902L61.4759 29.0189L61.468 29.3676C61.467 29.4222 61.4216 29.4655 61.3672 29.4642C61.3125 29.463 61.2694 29.4178 61.2707 29.3632L61.2796 28.958L60.9646 29.2132C60.9225 29.2476 60.8599 29.2411 60.8256 29.1987C60.7914 29.1563 60.798 29.094 60.8401 29.0597L61.1356 28.8201L60.7574 28.7803C60.7031 28.7746 60.6639 28.7259 60.6695 28.6717C60.6751 28.6174 60.7238 28.578 60.7782 28.5837L61.1564 28.6236L60.9172 28.3277C60.8829 28.2853 60.8895 28.223 60.932 28.1888C60.9745 28.1545 61.0368 28.1611 61.0711 28.2035L61.2905 28.4748Z" fill="#FFD274"/>
<path fill-rule="evenodd" clip-rule="evenodd" d="M68.4601 31.3689L68.468 31.0201C68.4693 30.9656 68.5145 30.9223 68.5691 30.9235C68.6235 30.9247 68.667 30.9699 68.6657 31.0245L68.6564 31.4297L68.9714 31.1745C69.0139 31.1401 69.0761 31.1466 69.1104 31.189C69.1447 31.2314 69.1384 31.2937 69.0959 31.328L68.8004 31.5676L69.1786 31.6074C69.2329 31.6131 69.2725 31.6618 69.2665 31.716C69.2609 31.7703 69.2122 31.8097 69.1582 31.804L68.7796 31.7641L69.0188 32.06C69.0531 32.1024 69.0465 32.1646 69.004 32.1989C68.9618 32.2332 68.8992 32.2266 68.865 32.1842L68.6459 31.9129L68.638 32.2617C68.6367 32.3162 68.5915 32.3595 68.5369 32.3583C68.4825 32.3571 68.439 32.3118 68.4403 32.2573L68.4496 31.852L68.1346 32.1073C68.0921 32.1416 68.0299 32.1351 67.9956 32.0927C67.9613 32.0504 67.9676 31.9881 68.0101 31.9537L68.3056 31.7142L67.9274 31.6744C67.8731 31.6687 67.8335 31.62 67.8395 31.5657C67.8451 31.5115 67.8938 31.4721 67.9482 31.4778L68.3264 31.5176L68.0872 31.2218C68.0529 31.1794 68.0595 31.1171 68.102 31.0828C68.1445 31.0485 68.2068 31.0551 68.241 31.0975L68.4601 31.3689Z" fill="#FD4B3C"/>
<path fill-rule="evenodd" clip-rule="evenodd" d="M22.7017 30.7478L22.7095 30.399C22.7107 30.3445 22.756 30.3012 22.8105 30.3024C22.865 30.3036 22.9083 30.3489 22.9071 30.4034L22.8981 30.8086L23.2129 30.5534C23.2553 30.519 23.3176 30.5256 23.3519 30.5679C23.3863 30.6103 23.3798 30.6726 23.3374 30.7069L23.0419 30.9465L23.4202 30.9863C23.4744 30.992 23.5138 31.0407 23.5081 31.0949C23.5024 31.1492 23.4537 31.1886 23.3995 31.1829L23.0212 31.143L23.2603 31.4389C23.2946 31.4813 23.288 31.5436 23.2456 31.5778C23.2032 31.6121 23.1409 31.6055 23.1066 31.5631L22.8873 31.2918L22.8795 31.6406C22.8783 31.6951 22.833 31.7384 22.7785 31.7372C22.724 31.736 22.6807 31.6907 22.6819 31.6362L22.6909 31.231L22.3761 31.4862C22.3337 31.5205 22.2714 31.514 22.2371 31.4716C22.2027 31.4293 22.2092 31.367 22.2516 31.3327L22.5471 31.0931L22.1688 31.0533C22.1145 31.0476 22.0751 30.9989 22.0809 30.9446C22.0866 30.8904 22.1353 30.851 22.1895 30.8567L22.5678 30.8965L22.3287 30.6007C22.2944 30.5583 22.301 30.496 22.3434 30.4617C22.3858 30.4274 22.4481 30.434 22.4824 30.4765L22.7017 30.7478Z" fill="#FD4B3C"/>
<path fill-rule="evenodd" clip-rule="evenodd" d="M33.3635 28.0351L33.3712 27.6863C33.3724 27.6318 33.4177 27.5885 33.4722 27.5897C33.5268 27.591 33.5701 27.6362 33.5689 27.6908L33.5598 28.096L33.8747 27.8407C33.9171 27.8064 33.9794 27.8129 34.0137 27.8553C34.048 27.8977 34.0415 27.9599 33.9992 27.9943L33.7037 28.2338L34.0819 28.2736C34.1362 28.2794 34.1756 28.328 34.1699 28.3823C34.1642 28.4365 34.1155 28.4759 34.0613 28.4702L33.6829 28.4304L33.9221 28.7262C33.9564 28.7686 33.9497 28.8309 33.9073 28.8652C33.8649 28.8995 33.8026 28.8929 33.7684 28.8505L33.549 28.5792L33.5412 28.9279C33.54 28.9825 33.4948 29.0258 33.4402 29.0245C33.3857 29.0233 33.3424 28.9781 33.3437 28.9235L33.3527 28.5183L33.0378 28.7735C32.9955 28.8079 32.9332 28.8014 32.8988 28.759C32.8645 28.7166 32.871 28.6543 32.9134 28.62L33.2089 28.3804L32.8305 28.3406C32.7763 28.3349 32.7369 28.2862 32.7426 28.232C32.7483 28.1777 32.797 28.1383 32.8513 28.144L33.2295 28.1839L32.9904 27.888C32.9561 27.8456 32.9627 27.7834 33.0052 27.7491C33.0476 27.7148 33.1099 27.7214 33.1442 27.7638L33.3635 28.0351Z" fill="#FFD274"/>
</svg>
