<svg width="378" height="412" viewBox="0 0 378 412" fill="none" xmlns="http://www.w3.org/2000/svg">
<path fill-rule="evenodd" clip-rule="evenodd" d="M125.494 286.81L192.413 286.792L199.713 286.81C199.715 286.81 199.717 286.81 199.719 286.81L252.211 287.138C252.744 287.141 253.175 287.576 253.171 288.11C253.168 288.643 252.732 289.072 252.199 289.069C252.199 289.069 199.707 288.744 199.713 288.744H124.466L123.501 287.715C128.583 206.923 121.705 165.63 111.554 145.167C105.632 133.23 98.6383 128.526 92.3135 127.247C82.9341 125.349 75.1617 130.943 75.1617 130.943C74.7287 131.254 74.124 131.156 73.8124 130.723C73.5008 130.29 73.5993 129.685 74.0323 129.373C74.0323 129.373 82.4905 123.287 92.6969 125.352C99.429 126.714 106.983 131.603 113.286 144.307C123.465 164.826 130.489 206.137 125.494 286.81Z" fill="#EE7E5C"/>
<path fill-rule="evenodd" clip-rule="evenodd" d="M171.716 128.496C171.716 128.496 194.231 129.668 211.744 130.579C224.496 131.243 235.236 140.339 237.99 152.809C240.724 165.893 243.394 185.294 245.215 214.268C245.248 214.801 245.708 215.205 246.24 215.173C246.773 215.138 247.178 214.677 247.144 214.147C245.316 185.043 242.629 165.556 239.881 152.403C236.937 139.073 225.465 129.358 211.844 128.649C194.331 127.737 171.817 126.566 171.817 126.566C171.284 126.538 170.829 126.948 170.801 127.481C170.773 128.013 171.183 128.469 171.716 128.496Z" fill="#EE7E5C"/>
<path fill-rule="evenodd" clip-rule="evenodd" d="M334.834 344.076L337.022 317.396C337.624 310.031 335.111 302.75 330.095 297.325C325.077 291.9 318.015 288.827 310.624 288.853C287.814 288.94 258.916 289.046 250.732 289.075C248.955 289.081 247.508 287.651 247.494 285.876C247.263 257.122 246.428 233.572 245.215 214.268C245.181 213.735 245.586 213.276 246.119 213.242C246.651 213.21 247.111 213.614 247.144 214.147C248.359 233.48 249.196 257.062 249.427 285.861C249.433 286.573 250.013 287.144 250.724 287.141C258.909 287.112 287.806 287.005 310.615 286.919C318.548 286.89 326.129 290.188 331.513 296.013C336.898 301.836 339.596 309.651 338.947 317.554C337.806 331.503 336.687 345.114 336.687 345.114C336.647 345.613 336.235 345.996 335.733 346.002C335.733 346.002 176.751 347.452 113.708 348.028C98.3964 348.17 85.0298 337.686 81.5169 322.78C79.9344 316.024 78.1147 308.146 76.1597 299.487C68.0034 263.354 57.5032 213.599 52.0708 174.749C50.2364 161.229 54.5218 147.595 63.7617 137.556C73.0017 127.517 86.2344 122.117 99.8598 122.826C133.443 124.569 171.817 126.566 171.817 126.566C172.35 126.593 172.76 127.049 172.732 127.581C172.704 128.114 172.249 128.524 171.716 128.496C171.716 128.496 133.343 126.499 99.7595 124.757C86.7089 124.078 74.0342 129.25 65.1843 138.865C56.3344 148.481 52.2297 161.54 53.9863 174.486C59.4112 213.282 69.8995 262.974 78.0458 299.063C79.9993 307.716 81.8181 315.586 83.3989 322.336C86.7043 336.363 99.2824 346.227 113.69 346.094L334.834 344.076Z" fill="#EE7E5C"/>
<path fill-rule="evenodd" clip-rule="evenodd" d="M258.825 289.058C258.825 289.058 269.271 288.755 275.169 299.023C279.717 306.944 280.383 320.737 269.349 344.82C269.124 345.313 269.34 345.895 269.83 346.12C270.323 346.345 270.905 346.129 271.13 345.636C282.588 320.63 281.591 306.272 276.869 298.049C270.349 286.697 258.761 287.101 258.761 287.101C258.222 287.115 257.799 287.571 257.813 288.11C257.83 288.652 258.286 289.075 258.825 289.058Z" fill="#EE7E5C"/>
<path fill-rule="evenodd" clip-rule="evenodd" d="M101.295 345.492L102.493 351.47C102.49 351.45 105.021 365.508 106.547 373.982C107.285 378.076 110.849 381.056 115.011 381.056C115.011 381.056 115.011 381.056 115.011 381.056C119.258 381.056 122.878 377.975 123.556 373.784C125.115 364.144 127.871 347.097 127.871 347.097C127.957 346.564 127.594 346.059 127.06 345.973C126.526 345.887 126.022 346.25 125.936 346.786C125.936 346.786 123.18 363.83 121.621 373.469C121.097 376.712 118.297 379.096 115.011 379.096C115.011 379.096 115.011 379.096 115.011 379.096C111.798 379.096 109.046 376.796 108.476 373.634C106.951 365.162 104.419 351.104 104.419 351.104C104.418 351.098 104.417 351.09 104.415 351.084L103.217 345.105C103.11 344.575 102.593 344.232 102.063 344.336C101.533 344.442 101.189 344.961 101.295 345.492Z" fill="#EE7E5C"/>
<path fill-rule="evenodd" clip-rule="evenodd" d="M307.452 345.401C307.452 345.401 310.873 364.394 312.706 374.575C313.444 378.674 317.01 381.654 321.174 381.654H321.175C325.42 381.654 329.039 378.578 329.721 374.387C331.378 364.2 334.416 345.519 334.416 345.519C334.503 344.986 334.14 344.481 333.606 344.395C333.072 344.308 332.568 344.671 332.481 345.205C332.481 345.205 329.443 363.883 327.786 374.073C327.259 377.313 324.459 379.694 321.175 379.694H321.174C317.959 379.694 315.205 377.394 314.635 374.229C312.802 364.048 309.382 345.055 309.382 345.055C309.286 344.522 308.776 344.167 308.243 344.265C307.711 344.36 307.357 344.87 307.452 345.401Z" fill="#EE7E5C"/>
<path fill-rule="evenodd" clip-rule="evenodd" d="M296.366 289.029C303.921 290.902 311.15 291.467 316.693 302.329C318.688 306.235 319.351 310.841 319.239 317.347C319.123 324.031 318.181 332.676 316.924 344.526C316.869 345.065 317.258 345.549 317.797 345.604C318.334 345.662 318.818 345.27 318.875 344.733C320.138 332.809 321.083 324.109 321.199 317.378C321.317 310.469 320.556 305.586 318.437 301.438C312.525 289.85 304.898 289.124 296.839 287.126C296.314 286.997 295.781 287.317 295.651 287.841C295.521 288.366 295.841 288.899 296.366 289.029Z" fill="#EE7E5C"/>
<path fill-rule="evenodd" clip-rule="evenodd" d="M278.999 289.029C286.557 290.902 294.25 291.462 299.799 302.329C301.794 306.235 302.457 310.841 302.344 317.347C302.229 324.031 301.286 332.676 300.03 344.526C299.975 345.065 300.364 345.549 300.903 345.604C301.439 345.662 301.923 345.27 301.981 344.733C303.244 332.809 304.189 324.109 304.304 317.378C304.423 310.469 303.662 305.586 301.543 301.438C295.634 289.856 287.522 289.121 279.469 287.126C278.944 286.997 278.411 287.317 278.281 287.841C278.151 288.366 278.471 288.899 278.999 289.029Z" fill="#EE7E5C"/>
<path fill-rule="evenodd" clip-rule="evenodd" d="M42.569 372.314C42.569 372.314 50.2212 339.185 77.3835 336.718L136.889 336.801C136.889 336.801 136.377 329.592 142.7 329.834C142.7 329.834 148.938 330.218 152.401 329.359C152.401 329.359 154.933 324.32 155.966 322.167C156.414 321.236 146.936 314.975 148.451 313.349C148.451 313.349 152.91 310.856 161.103 314.995L183.421 312.83L179.097 300.992C179.097 300.992 179.396 294.131 190.889 303.347C190.889 303.347 205.257 315.358 207.926 342.255L207.716 373.723C207.716 373.723 232.001 381.593 232.061 388.537C232.065 388.975 231.894 389.396 231.586 389.704C231.279 390.015 230.86 390.188 230.423 390.188C228.543 390.188 225.036 390.188 225.036 390.188C225.036 390.188 226.63 391.699 227.435 393.624C227.738 394.359 227.647 395.195 227.194 395.847C226.74 396.501 225.987 396.876 225.194 396.85C207.001 396.221 94.938 392.333 94.938 392.333C94.938 392.333 108.764 402.935 106.257 408.507C104.701 410.856 101.809 411.934 99.0961 411.179C97.6101 410.764 96.334 410.409 96.334 410.409L42.569 380.255H0C0 380.255 0.329764 372.305 42.569 372.314Z" fill="#FFD173"/>
<path fill-rule="evenodd" clip-rule="evenodd" d="M178.774 369.803C178.774 369.803 218.471 385.743 225.542 391.018C225.648 391.099 225.849 391.165 225.941 391.24C226.311 391.543 225.073 390.214 225.073 390.214L227.084 390.182C227.084 390.182 226.804 389.963 226.648 389.851C219.172 384.417 179.42 368.197 179.42 368.197C178.977 368.021 178.473 368.235 178.295 368.679C178.116 369.123 178.331 369.624 178.774 369.803Z" fill="black"/>
<path fill-rule="evenodd" clip-rule="evenodd" d="M209.472 374.21L207.746 373.818C207.746 373.818 207.721 378.658 207.794 381.313C207.807 381.788 208.205 382.166 208.682 382.154C209.16 382.14 209.536 381.742 209.523 381.264C209.455 378.793 209.472 374.21 209.472 374.21Z" fill="black"/>
<path fill-rule="evenodd" clip-rule="evenodd" d="M90.8954 385.87C92.3629 387.366 97.3168 392.304 97.3168 392.304C97.3168 392.304 95.2097 392.515 94.8802 392.169C91.6884 388.828 89.2132 386.761 89.2132 386.761C88.7191 386.484 88.5908 386.107 88.8283 385.631C94.1624 373.412 93.9938 365.108 91.495 359.435C87.818 351.087 79.698 348.732 79.698 348.732C79.2397 348.599 78.9748 348.118 79.1071 347.66C79.2394 347.201 79.719 346.936 80.1776 347.069C80.1776 347.069 89.0627 349.62 93.0778 358.737C95.6706 364.626 96.2612 373.302 90.8954 385.87Z" fill="black"/>
<path fill-rule="evenodd" clip-rule="evenodd" d="M141.858 346.008C142.169 346.129 147.125 347.983 160.862 347.703C161.339 347.694 161.735 348.072 161.744 348.55C161.754 349.026 161.375 349.424 160.897 349.433C146.161 349.732 141.171 347.596 141.171 347.596L141.13 347.576C138.637 346.371 137.229 344.264 136.454 342.154C135.66 339.995 135.537 336.767 135.537 336.767L137.265 336.778C137.265 336.778 137.37 339.632 138.077 341.557C138.71 343.278 139.831 345.019 141.858 346.008Z" fill="black"/>
<path fill-rule="evenodd" clip-rule="evenodd" d="M162.217 323.02C162.217 323.02 160.076 326.857 153.692 327.569C153.572 327.58 153.327 327.606 153.327 327.606L152.395 329.402C152.395 329.402 152.682 329.39 152.822 329.382C161.089 328.935 163.74 323.839 163.74 323.839C163.966 323.418 163.808 322.893 163.388 322.668C162.968 322.444 162.443 322.599 162.217 323.02Z" fill="black"/>
<path fill-rule="evenodd" clip-rule="evenodd" d="M161.124 315.004L159.321 314.162L154.843 320.705C155.308 321.126 155.772 321.57 155.968 322.109L161.124 315.004Z" fill="black"/>
<path fill-rule="evenodd" clip-rule="evenodd" d="M187.561 311.21L182.682 311.063L183.348 312.902L187.561 312.939C188.038 312.939 188.425 312.55 188.425 312.075C188.425 311.596 188.038 311.21 187.561 311.21Z" fill="black"/>
<path fill-rule="evenodd" clip-rule="evenodd" d="M146.358 330.079C146.358 330.079 148.912 343.757 137.049 340.119C137.049 340.119 135.333 331.054 140.795 330.079C143.113 329.526 144.655 329.901 146.358 330.079Z" fill="black"/>
<path fill-rule="evenodd" clip-rule="evenodd" d="M196.226 350.263C197.014 346.977 198.815 343.988 201.809 342.212C203.761 341.053 206.122 340.442 208.262 341.497C208.69 341.707 208.866 342.226 208.655 342.656C208.444 343.082 207.925 343.258 207.497 343.048C205.899 342.261 204.149 342.835 202.691 343.699C199.93 345.337 198.379 348.182 197.778 351.249C199.11 352.335 200.09 353.852 200.43 355.549C200.543 356.117 200.603 356.849 200.457 357.489C200.334 358.034 200.07 358.515 199.634 358.856C198.509 359.741 197.314 359.06 196.681 358.043C195.924 356.823 195.726 355.29 195.76 353.886C195.775 353.272 195.821 352.655 195.9 352.044C195.68 351.917 195.452 351.805 195.217 351.704C191.763 350.251 188.886 351.551 186.796 353.909C184.584 356.408 183.22 360.058 182.933 363.116C182.775 364.796 182.733 366.506 182.792 368.195C182.799 368.394 182.859 369.394 182.87 369.567C182.989 369.832 182.973 370.149 182.799 370.406C182.533 370.804 181.995 370.907 181.599 370.642C181.488 370.567 181.246 370.337 181.168 369.896C181.094 369.475 181.072 368.512 181.063 368.255C181.002 366.494 181.047 364.71 181.211 362.954C181.529 359.565 183.052 355.529 185.502 352.765C188.074 349.859 191.635 348.32 195.888 350.11C196.002 350.159 196.115 350.211 196.226 350.263ZM197.51 353.396C197.5 353.572 197.493 353.751 197.489 353.926C197.463 355.005 197.569 356.195 198.15 357.129C198.217 357.236 198.298 357.342 198.393 357.426C198.445 357.472 198.499 357.55 198.565 357.498C198.733 357.365 198.775 357.146 198.801 356.93C198.843 356.573 198.795 356.195 198.734 355.889C198.549 354.964 198.114 354.111 197.51 353.396Z" fill="black"/>
<path fill-rule="evenodd" clip-rule="evenodd" d="M115.509 90.1707C115.509 90.1707 110.953 81.1694 104.872 87.0449C104.872 87.0449 102.718 90.535 107.528 97.5456L96.8008 118.471C96.8008 118.471 85.1194 119.769 79.2855 120.474C68.3348 121.798 49.7953 123.417 41.8335 135.072C36.3532 143.095 36.3642 150.28 36.3423 156.598C45.9581 190.536 55.5744 224.471 62.4945 265.44C62.4945 265.44 69.5477 291.285 94.6086 291.815C117.581 292.302 189.692 286.226 192.089 288.042L191.892 281.919L196.952 281.948L199.342 281.954L200.041 283.597C200.041 283.597 219.516 286.609 226.467 296.64L266.425 293.657C266.425 293.657 265.289 284.984 260.348 281.945L273.435 281.937L313.372 386.128L376.814 386.183C376.814 386.183 371.971 381.257 366.852 379.539L321.547 250.013C321.547 250.013 309.397 216.259 260.521 217.87L259.902 208.435C259.902 208.435 292.085 207.21 295.426 185.273C295.426 185.273 305.941 157.481 260.81 135.821L260.498 104.661C260.498 104.661 254.932 82.5242 242.235 78.6345C242.235 78.6345 224.402 71.8361 211.37 76.3994C211.37 76.3994 200.502 83.6259 195.101 90.727L168.759 123.091L126.031 122.808L125.956 119.252C125.956 119.252 135.708 118.418 138.241 112.864L145.953 97.5367C145.953 97.5367 134.442 73.732 115.509 90.1707Z" fill="white"/>
<path fill-rule="evenodd" clip-rule="evenodd" d="M236.254 290.036C236.254 290.036 237.675 292.634 238.012 295.735C238.07 296.271 238.554 296.663 239.093 296.603C239.629 296.545 240.018 296.061 239.961 295.525C239.583 292.022 237.972 289.094 237.972 289.094C237.712 288.621 237.116 288.448 236.643 288.708C236.167 288.967 235.994 289.564 236.254 290.036Z" fill="black"/>
<path fill-rule="evenodd" clip-rule="evenodd" d="M244.46 289.163C244.46 289.163 245.881 291.76 246.218 294.862C246.276 295.398 246.76 295.79 247.299 295.73C247.835 295.672 248.225 295.188 248.167 294.652C247.789 291.149 246.178 288.221 246.178 288.221C245.919 287.748 245.322 287.575 244.849 287.834C244.374 288.094 244.201 288.69 244.46 289.163Z" fill="black"/>
<path fill-rule="evenodd" clip-rule="evenodd" d="M251.59 288.237C251.59 288.237 253.011 290.834 253.349 293.935C253.406 294.471 253.89 294.863 254.43 294.803C254.966 294.745 255.355 294.261 255.297 293.725C254.92 290.223 253.308 287.294 253.308 287.294C253.049 286.821 252.452 286.648 251.979 286.908C251.504 287.167 251.331 287.764 251.59 288.237Z" fill="black"/>
<path fill-rule="evenodd" clip-rule="evenodd" d="M142.089 95.8318C139.002 90.0941 137.254 83.5592 137.254 76.6273C137.254 53.8531 156.119 35.3635 179.355 35.3635C202.256 35.3635 220.912 53.3244 221.444 75.6435C217.92 75.9311 212.397 77.5491 204.145 82.6731C204.145 82.6731 202.173 82.684 173.085 117.436C161.364 115.717 151.217 109.257 144.742 100.111L146.632 96.9291L142.089 95.8318Z" fill="black"/>
<path fill-rule="evenodd" clip-rule="evenodd" d="M181.38 216.769L189.535 216.662L192.088 288.042L100.197 291.772C100.197 291.772 100.352 291.752 100.828 291.64C108.872 289.76 125.386 284.332 146.042 269.568C160.498 259.234 165.377 241.103 181.38 216.769Z" fill="#1950B0"/>
<path fill-rule="evenodd" clip-rule="evenodd" d="M131.577 290.513C131.471 289.859 131.746 289.176 132.332 288.79L138.866 284.486C139.663 283.959 140.737 284.181 141.262 284.979C141.787 285.775 141.566 286.847 140.769 287.374L136.347 290.286L131.577 290.513ZM150.622 289.752C150.611 289.709 150.601 289.669 150.592 289.626C150.4 288.692 151.004 287.775 151.939 287.585L159.604 286.014C160.539 285.821 161.454 286.426 161.646 287.36C161.81 288.161 161.39 288.948 160.678 289.277L150.622 289.752ZM169.315 288.989L169.297 288.965C168.679 288.239 168.769 287.147 169.496 286.53L175.462 281.465C176.19 280.848 177.282 280.938 177.9 281.664C178.518 282.393 178.428 283.486 177.701 284.103L172.1 288.856L169.315 288.989ZM184.607 288.305L184.058 288.104C183.162 287.772 182.705 286.775 183.036 285.881C183.367 284.985 184.363 284.526 185.258 284.858L192.027 287.363L192.044 287.954L184.607 288.305ZM128.294 285.014C128.297 285.045 128.3 285.077 128.302 285.106C128.363 286.06 127.638 286.881 126.685 286.942L123.396 287.103C123.695 286.977 124.468 286.674 124.769 286.541C125.991 286.008 127.044 285.633 128.294 285.014ZM146.767 272.132L151.625 276.761C152.323 277.412 152.362 278.508 151.711 279.205C151.06 279.903 149.965 279.94 149.267 279.292L144.198 274.452C145.077 273.714 145.911 272.924 146.767 272.132ZM167.255 274.784L159.831 272.31C158.926 272.011 157.945 272.501 157.643 273.406C157.342 274.311 157.832 275.291 158.738 275.593L166.161 278.067C167.067 278.369 168.047 277.876 168.349 276.971C168.65 276.066 168.16 275.086 167.255 274.784ZM178.827 269.915L183.871 275.896C184.487 276.625 185.579 276.718 186.308 276.104C187.038 275.487 187.131 274.394 186.516 273.665L181.471 267.684C180.856 266.955 179.764 266.859 179.034 267.476C178.305 268.09 178.212 269.183 178.827 269.915ZM172.142 266.695L170.657 259.013C170.475 258.076 169.567 257.462 168.63 257.644C167.693 257.826 167.079 258.734 167.26 259.67L168.746 267.352C168.927 268.289 169.836 268.903 170.773 268.722C171.71 268.543 172.324 267.635 172.142 266.695ZM156.901 260.25L158.035 260.555C158.941 260.858 159.431 261.838 159.13 262.743C158.828 263.651 157.848 264.141 156.942 263.839L154.808 263.135C155.523 262.178 156.23 261.262 156.901 260.25ZM190.874 262.092C190.505 262.207 190.096 262.198 189.71 262.043L182.464 259.088C181.58 258.728 181.155 257.719 181.515 256.834C181.876 255.949 182.886 255.525 183.77 255.886L190.775 258.739L190.874 262.092ZM163.414 249.06L170.045 246.131C170.921 245.751 171.94 246.154 172.32 247.031C172.7 247.904 172.298 248.924 171.422 249.305L164.244 252.421C163.369 252.801 162.565 252.666 162.185 251.79C162.156 251.723 162.983 250.04 163.414 249.06ZM180.074 242.05L177.282 249.36C176.941 250.25 177.389 251.254 178.281 251.594C179.172 251.934 180.173 251.487 180.513 250.593L183.305 243.283C183.646 242.393 183.198 241.392 182.307 241.052C181.415 240.712 180.414 241.159 180.074 242.05ZM190.175 238.392C189.869 238.152 189.641 237.807 189.551 237.397L187.89 229.75C187.687 228.819 188.28 227.896 189.213 227.695C189.432 227.646 189.651 227.643 189.859 227.677L190.175 238.392ZM171.425 235.221C171.706 235.538 171.872 235.956 171.86 236.411C171.836 237.366 171.041 238.121 170.086 238.095L169.847 238.089C170.388 237.112 170.915 236.155 171.425 235.221ZM181.694 221.702L176.606 227.646C175.986 228.372 176.071 229.465 176.796 230.084C177.521 230.704 178.614 230.62 179.234 229.894L184.322 223.95C184.943 223.224 184.858 222.131 184.133 221.512C183.408 220.892 182.315 220.976 181.694 221.702Z" fill="#003595"/>
<path fill-rule="evenodd" clip-rule="evenodd" d="M53.0385 218.674C53.0385 218.674 57.9584 243.008 61.9357 262.679C65.4699 280.158 81.1442 292.504 98.9651 291.847C119.824 291.08 146.289 282.467 163.707 248.964L138.374 223.649C128.099 229.933 120.389 236.381 106.399 245.672C84.2057 255.614 63.451 250.137 53.0385 218.674Z" fill="#3565BD"/>
<path fill-rule="evenodd" clip-rule="evenodd" d="M114.8 289.663L111.126 290.487L110.732 289.969C110.155 289.21 110.303 288.124 111.063 287.547C111.823 286.968 112.909 287.118 113.486 287.876L114.8 289.663ZM84.2867 289.418L86.3327 285.838C86.7343 284.973 87.763 284.596 88.6292 284.996C89.4954 285.4 89.8728 286.429 89.4712 287.294L88.2404 290.689C86.525 290.28 84.9713 289.735 84.2867 289.418ZM100.406 284.665L108.157 283.595C109.103 283.463 109.764 282.589 109.634 281.644C109.504 280.698 108.63 280.038 107.684 280.168L99.933 281.237C98.9873 281.367 98.3254 282.241 98.456 283.186C98.5866 284.132 99.46 284.794 100.406 284.665ZM133.682 282.068L130.175 282.595C129.226 282.696 128.374 282.004 128.275 281.056C128.175 280.108 128.865 279.254 129.815 279.156L137.597 278.341C138.294 278.268 138.512 278.191 138.844 278.758C137.098 279.914 135.283 281.269 133.682 282.068ZM67.5621 276.023C67.5773 275.539 67.7393 275.19 68.1443 274.861C68.8851 274.259 69.9753 274.371 70.5775 275.112L75.5126 281.186C76.1145 281.923 76.0021 283.016 75.2613 283.618C75.1468 283.711 74.954 283.783 74.8263 283.843C71.2753 280.949 69.4245 278.678 67.5621 276.023ZM116.191 272.434L117.235 280.188C117.363 281.134 118.234 281.8 119.18 281.67C120.126 281.543 120.791 280.672 120.664 279.727L119.619 271.97C119.491 271.025 118.62 270.362 117.674 270.489C116.728 270.615 116.064 271.486 116.191 272.434ZM83.0608 275.922L90.3717 278.709C91.2636 279.05 92.2638 278.603 92.6039 277.712C92.9444 276.819 92.4964 275.818 91.6046 275.478L84.2939 272.688C83.4021 272.348 82.4018 272.797 82.0614 273.688C81.7213 274.579 82.1689 275.579 83.0608 275.922ZM103.812 270.33L98.8772 264.257C98.275 263.519 97.1848 263.403 96.444 264.006C95.7035 264.608 95.5908 265.698 96.1927 266.439L101.128 272.512C101.73 273.253 102.82 273.365 103.561 272.763C104.302 272.16 104.414 271.071 103.812 270.33ZM132.42 269.632L127.892 263.251C127.339 262.472 126.259 262.288 125.48 262.841C124.702 263.395 124.518 264.473 125.071 265.254L129.599 271.633C130.151 272.411 131.232 272.596 132.01 272.042C132.789 271.492 132.972 270.411 132.42 269.632ZM140.995 262.126L139.942 269.88C139.813 270.826 140.477 271.699 141.423 271.829C142.369 271.956 143.241 271.293 143.369 270.347L144.423 262.593C144.551 261.648 143.887 260.774 142.942 260.648C141.996 260.518 141.124 261.181 140.995 262.126ZM112.278 266.13L115.149 258.852C115.499 257.964 115.062 256.958 114.174 256.606C113.286 256.258 112.281 256.693 111.931 257.581L109.06 264.862C108.71 265.75 109.147 266.756 110.035 267.104C110.923 267.453 111.928 267.018 112.278 266.13ZM74.8502 263.17L67.0265 263.294C66.0721 263.311 65.3094 264.098 65.3246 265.052C65.3399 266.006 66.1271 266.767 67.0815 266.753L74.9056 266.629C75.86 266.612 76.6224 265.825 76.6071 264.871C76.5918 263.916 75.8046 263.155 74.8502 263.17ZM84.253 256.9L86.2171 264.476C86.457 265.398 87.4016 265.954 88.3254 265.715C89.2495 265.476 89.805 264.53 89.5655 263.608L87.601 256.033C87.3615 255.107 86.4169 254.554 85.4928 254.793C84.5689 255.032 84.0132 255.978 84.253 256.9ZM154.415 263.614L150.641 258.872C150.055 258.12 150.191 257.03 150.944 256.445C151.697 255.86 152.785 255.995 153.371 256.748L156.681 260.584C155.979 261.553 155.142 262.674 154.415 263.614ZM59.8046 252.306L64.8978 255.076C65.734 255.537 66.0389 256.589 65.5786 257.425C65.118 258.261 64.0653 258.566 63.2291 258.105L60.7149 256.678C60.4434 255.148 60.0269 253.634 59.8046 252.306ZM132.2 249.593L125.921 254.263C125.155 254.831 124.995 255.915 125.565 256.681C126.134 257.448 127.219 257.607 127.985 257.039L134.264 252.369C135.03 251.801 135.19 250.714 134.62 249.951C134.051 249.184 132.966 249.025 132.2 249.593ZM75.9216 248.959C77.0957 249.388 78.2006 249.729 79.4646 250.034C79.4216 250.115 79.1999 250.389 79.1429 250.464L74.404 256.69C73.8258 257.448 72.7399 257.598 71.9801 257.019C71.2205 256.439 71.0733 255.355 71.6515 254.594L75.9216 248.959ZM99.8529 248.607L103.672 253.378C104.274 254.119 104.162 255.208 103.421 255.811C102.68 256.413 101.59 256.301 100.988 255.557L96.214 249.651C97.3702 249.348 98.4843 249.063 99.8529 248.607ZM145.941 251.951L148.644 244.606C148.973 243.713 148.514 242.715 147.618 242.387C146.722 242.058 145.727 242.517 145.398 243.413L142.695 250.755C142.365 251.651 142.824 252.646 143.72 252.977C144.616 253.306 145.611 252.848 145.941 251.951ZM161.763 252.554L155.266 251.718C154.317 251.611 153.634 250.752 153.742 249.804C153.849 248.855 154.707 248.172 155.655 248.282L163.337 249.221C162.924 250.282 162.364 251.415 161.763 252.554ZM121.548 247.653L113.82 246.428C112.877 246.281 111.99 246.924 111.841 247.867C111.691 248.809 112.336 249.697 113.278 249.844L121.007 251.069C121.949 251.219 122.836 250.576 122.986 249.634C123.135 248.691 122.491 247.803 121.548 247.653ZM61.3211 237.544C62.8425 239.507 64.2921 241.121 65.7694 242.456L66.4875 245.223C66.727 246.149 66.1712 247.094 65.2474 247.333C64.3235 247.573 63.3787 247.016 63.1391 246.094L61.1747 238.519C61.1032 238.242 61.2617 237.807 61.3211 237.544ZM123.051 234.561L127.731 237.769C128.523 238.302 128.733 239.378 128.2 240.17C127.667 240.96 126.591 241.17 125.799 240.637L120.09 236.769C121.123 236.057 122.062 235.264 123.051 234.561ZM144.492 233.295L137.008 235.578C136.095 235.858 135.58 236.827 135.858 237.737C136.137 238.651 137.105 239.167 138.017 238.887L145.501 236.605C146.414 236.325 146.929 235.356 146.651 234.446C146.372 233.532 145.404 233.016 144.492 233.295ZM141.4 226.663C141.178 226.813 140.665 227.11 140.381 227.141L132.725 227.6C136.12 225.294 138.458 223.688 138.458 223.688L141.4 226.663Z" fill="#B1C3E7"/>
<path fill-rule="evenodd" clip-rule="evenodd" d="M168.759 123.091L152.805 123.134C152.805 123.134 126.674 153.185 85.0574 119.251C85.0574 119.251 75.1721 120.444 63.7375 121.823C54.9763 122.88 47.0725 127.597 41.9825 134.806C36.8926 142.014 35.0924 151.041 37.0281 159.651C40.8716 176.747 44.7379 193.945 44.7379 193.945L96.0096 179.778L98.2493 189.102C98.2493 189.102 123.791 169.67 132.034 168.173L168.759 123.091Z" fill="#FFD173"/>
<path fill-rule="evenodd" clip-rule="evenodd" d="M50.3448 181.046C52.345 181.046 53.9687 182.669 53.9687 184.67C53.9687 186.67 52.345 188.293 50.3448 188.293C48.3449 188.293 46.7209 186.67 46.7209 184.67C46.7209 182.669 48.3449 181.046 50.3448 181.046ZM73.9293 185.892C69.8837 181.118 69.7678 174.912 71.7864 170.165C73.5742 165.959 77.0566 162.96 80.9128 162.749C81.8657 162.697 82.6821 163.428 82.734 164.383C82.7861 165.337 82.0545 166.152 81.1016 166.204C78.4404 166.348 76.2036 168.617 74.9696 171.52C73.2401 175.587 73.541 181.035 77.736 184.837L73.9293 185.892ZM123.514 162.623C121.152 160.205 117.39 159.402 113.568 160.2C106.784 161.617 99.8786 168.012 101.6 177.939C101.763 178.879 102.659 179.51 103.6 179.349C104.54 179.184 105.171 178.288 105.009 177.348C103.674 169.652 109.016 164.685 114.276 163.587C116.859 163.047 119.444 163.405 121.04 165.04C121.707 165.723 122.803 165.737 123.486 165.069C124.168 164.403 124.181 163.306 123.514 162.623ZM114.935 176.622C113.636 176.068 112.724 174.783 112.724 173.284C112.724 171.283 114.348 169.66 116.348 169.66C118.348 169.66 119.972 171.283 119.972 173.284C119.972 173.327 119.971 173.37 119.969 173.413C118.286 174.434 116.593 175.518 114.935 176.622ZM36.3897 153.033C43.238 149.668 50.0762 152.17 54.0892 156.435C57.2211 159.763 58.5675 164.158 57.2098 167.772C56.8743 168.666 55.8764 169.121 54.9828 168.784C54.0892 168.45 53.6361 167.452 53.9716 166.559C54.9084 164.063 53.7315 161.102 51.5702 158.806C48.2193 155.244 42.3263 153.281 36.6192 156.865C36.5188 155.622 36.4436 154.338 36.3897 153.033ZM136.87 133.174C140.057 140.106 137.38 146.877 133.015 150.779C129.608 153.824 125.18 155.058 121.601 153.608C120.716 153.25 120.289 152.241 120.647 151.356C121.005 150.471 122.014 150.044 122.899 150.402C125.369 151.403 128.358 150.302 130.71 148.2C134.162 145.114 136.242 139.712 133.533 134.225C134.69 133.911 135.807 133.554 136.87 133.174ZM73.6624 145.03C75.6626 145.03 77.2863 146.654 77.2863 148.654C77.2863 150.654 75.6626 152.278 73.6624 152.278C71.6625 152.278 70.0388 150.654 70.0388 148.654C70.0388 146.654 71.6625 145.03 73.6624 145.03ZM94.6238 126.605C95.6546 127.233 96.7248 127.814 97.6994 128.313C96.5712 129.456 95.7405 131.07 95.2775 132.846C94.0017 137.742 95.6211 144.033 102.234 146.831C103.113 147.204 103.524 148.219 103.153 149.098C102.78 149.977 101.765 150.389 100.886 150.017C92.3578 146.408 90.285 138.288 91.9303 131.974C92.465 129.922 93.3984 128.074 94.6238 126.605ZM115.037 138.845C117.037 138.845 118.66 140.469 118.66 142.469C118.66 144.469 117.037 146.092 115.037 146.092C113.036 146.092 111.413 144.469 111.413 142.469C111.413 140.469 113.036 138.845 115.037 138.845ZM149.962 145.22C146.863 142.548 145.152 138.856 145.767 135.39C145.934 134.451 146.832 133.823 147.772 133.99C148.712 134.157 149.339 135.055 149.173 135.995C148.759 138.326 150.052 140.713 152.129 142.524L149.962 145.22ZM77.207 129.35C74.66 126.447 70.15 125.56 65.7378 126.751C59.4386 128.451 53.4133 134.276 54.5055 143.472C54.6179 144.42 55.4789 145.098 56.427 144.985C57.3747 144.873 58.053 144.012 57.9403 143.064C57.0934 135.934 61.7547 131.409 66.6391 130.091C69.6839 129.269 72.8492 129.628 74.607 131.631C75.2365 132.348 76.3302 132.42 77.0476 131.79C77.7651 131.161 77.8366 130.067 77.207 129.35ZM162.853 125.386C163.506 125.968 163.947 126.782 164.046 127.698L160.834 131.694C160.705 131.708 160.575 131.715 160.443 131.715C158.443 131.715 156.819 130.091 156.819 128.091C156.819 127.47 156.976 126.884 157.252 126.373L162.853 125.386Z" fill="white"/>
<path fill-rule="evenodd" clip-rule="evenodd" d="M151.544 124.446L152.785 123.141L125.815 122.997C125.449 122.997 125.152 123.294 125.152 123.66C125.152 124.026 125.449 124.323 125.815 124.323L151.544 124.446Z" fill="black"/>
<path fill-rule="evenodd" clip-rule="evenodd" d="M124.963 125.914L127.392 118.951C127.512 118.605 127.33 118.227 126.984 118.106C126.639 117.985 126.26 118.168 126.14 118.514L123.711 125.477C123.591 125.822 123.773 126.201 124.119 126.321C124.464 126.442 124.842 126.259 124.963 125.914Z" fill="black"/>
<path fill-rule="evenodd" clip-rule="evenodd" d="M114.716 111.81C114.716 111.81 117.452 114.548 121.061 117.089C123.982 119.152 127.658 119.84 131.129 118.972C134.6 118.105 137.52 115.769 139.128 112.573C142.374 106.124 146.545 97.8348 146.545 97.8348C146.709 97.5079 146.577 97.109 146.25 96.9444C145.924 96.7801 145.525 96.9118 145.36 97.2387C145.36 97.2387 141.19 105.528 137.944 111.977C136.509 114.828 133.904 116.912 130.808 117.686C127.712 118.46 124.432 117.846 121.825 116.005C118.315 113.534 115.653 110.873 115.653 110.873C115.395 110.614 114.975 110.614 114.716 110.873C114.457 111.132 114.457 111.552 114.716 111.81Z" fill="black"/>
<path fill-rule="evenodd" clip-rule="evenodd" d="M115.908 92.6427C115.908 92.6427 115.553 89.7671 114.223 87.3492C113.372 85.8019 112.124 84.4566 110.38 84.0291C109.219 83.7446 107.825 83.8579 106.161 84.6388C102.275 86.4631 100.51 91.8958 107.832 98.8784C108.097 99.1309 108.517 99.1211 108.77 98.8562C109.022 98.5916 109.012 98.1713 108.747 97.9188C102.492 91.9537 103.405 87.3973 106.725 85.839C108.044 85.2196 109.144 85.0916 110.064 85.317C111.443 85.6549 112.389 86.7649 113.061 87.988C114.271 90.1876 114.592 92.8047 114.592 92.8047C114.636 93.1676 114.968 93.4264 115.331 93.3817C115.694 93.337 115.952 93.0059 115.908 92.6427Z" fill="black"/>
<path fill-rule="evenodd" clip-rule="evenodd" d="M105.843 96.1641L95.3479 118.479C95.1922 118.81 95.3346 119.205 95.6658 119.361C95.997 119.517 96.3922 119.374 96.5479 119.043L107.043 96.7285C107.198 96.3973 107.056 96.0021 106.725 95.8462C106.394 95.6905 105.998 95.8329 105.843 96.1641Z" fill="black"/>
<path fill-rule="evenodd" clip-rule="evenodd" d="M86.5625 120.419L96.3002 119.041C96.6637 118.997 96.9231 118.667 96.8793 118.304C96.8358 117.94 96.5052 117.681 96.142 117.724L85.0175 119.22L86.5625 120.419Z" fill="black"/>
<path fill-rule="evenodd" clip-rule="evenodd" d="M127.302 106.546C127.476 106.394 127.729 106.394 127.988 106.46C128.364 106.556 128.752 106.807 129.073 107.174C129.393 107.541 129.59 107.959 129.635 108.345C129.666 108.61 129.633 108.861 129.459 109.013C129.183 109.254 129.155 109.673 129.396 109.948C129.637 110.224 130.056 110.252 130.331 110.011C130.728 109.664 130.949 109.163 130.969 108.586C130.994 107.87 130.697 107.017 130.071 106.302C129.445 105.586 128.64 105.177 127.927 105.106C127.352 105.049 126.826 105.2 126.43 105.547C126.154 105.788 126.126 106.207 126.367 106.483C126.608 106.758 127.027 106.786 127.302 106.546Z" fill="black"/>
<path fill-rule="evenodd" clip-rule="evenodd" d="M129.458 109.013C129.284 109.165 129.032 109.164 128.773 109.098C128.397 109.002 128.009 108.751 127.688 108.385C127.367 108.017 127.171 107.599 127.126 107.214C127.095 106.948 127.128 106.698 127.302 106.546C127.577 106.305 127.606 105.886 127.365 105.611C127.124 105.335 126.705 105.307 126.429 105.548C126.032 105.895 125.812 106.395 125.792 106.973C125.767 107.689 126.064 108.541 126.69 109.257C127.316 109.973 128.12 110.381 128.833 110.452C129.408 110.51 129.934 110.358 130.331 110.012C130.607 109.771 130.635 109.351 130.394 109.076C130.153 108.8 129.734 108.772 129.458 109.013Z" fill="black"/>
<path fill-rule="evenodd" clip-rule="evenodd" d="M115.151 90.8709C115.151 90.8709 124.521 95.9107 132.41 87.6923C132.41 87.6923 136.509 97.2274 146.514 97.867C146.514 97.867 149.041 94.461 147.297 90.8709C145.929 88.0561 142.947 84.0987 139.192 80.7085C132.497 74.6855 122.381 74.5365 115.512 80.3598C113.911 81.7174 112.427 83.3631 111.247 85.3503C111.247 85.3503 113.653 84.3964 115.151 90.8709Z" fill="black"/>
<path fill-rule="evenodd" clip-rule="evenodd" d="M131.957 168.302C131.957 168.302 173.184 118.562 196.952 89.8866C206.652 78.1836 222.44 73.4643 236.971 77.9236V77.9239C250.487 82.0718 259.688 94.5886 259.613 108.727C259.498 130.081 259.351 157.681 259.351 157.681C259.351 158.158 259.734 158.548 260.213 158.55C260.689 158.553 261.081 158.168 261.081 157.69C261.081 157.69 261.228 130.091 261.343 108.737C261.421 93.8348 251.724 80.6424 237.478 76.2705V76.2702C222.279 71.606 205.766 76.542 195.621 88.7829C171.852 117.458 130.625 167.198 130.625 167.198C130.321 167.566 130.372 168.111 130.739 168.416C131.107 168.72 131.652 168.669 131.957 168.302Z" fill="black"/>
<path fill-rule="evenodd" clip-rule="evenodd" d="M259.037 208.147V216.771C259.037 216.768 258.688 282.297 258.688 282.297C258.685 282.775 259.071 283.164 259.547 283.167C260.025 283.17 260.415 282.784 260.418 282.308L260.766 216.777V208.147C260.766 207.668 260.38 207.282 259.902 207.282C259.426 207.282 259.037 207.668 259.037 208.147Z" fill="black"/>
<path fill-rule="evenodd" clip-rule="evenodd" d="M265.508 292.858C264.851 285.591 259.207 283.095 259.207 283.095C258.769 282.905 258.57 282.395 258.76 281.957C258.95 281.518 259.46 281.32 259.898 281.51C259.898 281.51 266.964 284.539 267.289 293.625C267.304 294.089 266.952 294.484 266.488 294.519L226.531 297.505C226.271 297.522 226.016 297.424 225.837 297.234C225.837 297.234 214.239 284.888 200.014 284.462C199.548 284.447 199.177 284.067 199.176 283.6L198.933 216.774C198.931 216.299 199.317 215.909 199.794 215.907C200.272 215.907 200.66 216.293 200.662 216.768L200.902 282.772C214.055 283.577 224.908 293.856 226.803 295.749L265.508 292.858Z" fill="black"/>
<path fill-rule="evenodd" clip-rule="evenodd" d="M200.663 216.768L200.631 207.971C200.629 207.492 200.24 207.106 199.763 207.109C199.286 207.109 198.899 207.498 198.901 207.977L198.933 216.774C198.935 217.253 199.324 217.639 199.801 217.636C200.278 217.636 200.664 217.247 200.663 216.768Z" fill="black"/>
<path fill-rule="evenodd" clip-rule="evenodd" d="M200.23 140.303L200.352 131.439C200.359 130.962 199.977 130.569 199.499 130.563C199.022 130.556 198.629 130.938 198.623 131.415L198.5 140.279C198.493 140.756 198.876 141.149 199.353 141.156C199.83 141.163 200.223 140.78 200.23 140.303Z" fill="black"/>
<path fill-rule="evenodd" clip-rule="evenodd" d="M187.581 203.855L162.291 247.664L163.705 249.01L189.079 204.72C189.317 204.308 189.175 203.777 188.762 203.538C188.348 203.302 187.819 203.443 187.581 203.855Z" fill="black"/>
<path fill-rule="evenodd" clip-rule="evenodd" d="M189.484 219.161L198.968 218.735C199.445 218.735 199.833 218.346 199.833 217.87C199.833 217.391 199.445 217.005 198.968 217.005L189.484 217.432V219.161Z" fill="black"/>
<path fill-rule="evenodd" clip-rule="evenodd" d="M375.032 385.318C371.79 381.802 366.618 380.372 366.618 380.372C366.347 380.297 366.128 380.092 366.036 379.824C366.036 379.824 339.33 303.463 322.623 255.703C314.88 233.562 293.985 218.735 270.53 218.735H260.522C260.043 218.735 259.657 218.346 259.657 217.87C259.657 217.391 260.043 217.005 260.522 217.005H270.53C294.72 217.005 316.27 232.297 324.254 255.132L367.524 378.844C369.129 379.375 374.713 381.47 377.535 385.705C377.71 385.97 377.728 386.313 377.578 386.592C377.425 386.875 377.134 387.051 376.814 387.048L312.531 384.289C312.171 384.289 311.848 384.067 311.721 383.73L269.734 273.113C269.567 272.667 269.792 272.168 270.239 271.998C270.685 271.831 271.184 272.056 271.351 272.502L313.128 382.56L375.032 385.318Z" fill="black"/>
<path fill-rule="evenodd" clip-rule="evenodd" d="M292.431 237.278L302.546 243.934C302.946 244.196 303.483 244.086 303.745 243.686C304.007 243.288 303.895 242.752 303.497 242.489L293.379 235.834C292.982 235.571 292.446 235.681 292.183 236.079C291.921 236.479 292.03 237.016 292.431 237.278Z" fill="black"/>
<path fill-rule="evenodd" clip-rule="evenodd" d="M273.435 281.072C273.435 281.072 268.183 281.075 260.349 281.081C259.873 281.081 259.484 281.47 259.484 281.946C259.487 282.424 259.873 282.81 260.351 282.81C268.183 282.805 273.435 282.802 273.435 282.802C273.914 282.802 274.3 282.415 274.3 281.937C274.3 281.458 273.914 281.072 273.435 281.072Z" fill="black"/>
<path fill-rule="evenodd" clip-rule="evenodd" d="M192.35 281.075C192.502 281.075 194.303 281.087 196.775 281.09C197.774 281.092 198.071 281.09 199.342 281.09C199.819 281.09 200.206 281.479 200.206 281.957C200.206 282.433 199.818 282.819 199.341 282.819C198.069 282.819 197.772 282.822 196.773 282.819C194.162 282.816 191.875 282.822 191.875 282.822L191.821 281.127C191.821 281.127 192.085 281.092 192.162 281.081C192.226 281.072 192.288 281.069 192.35 281.075Z" fill="black"/>
<path fill-rule="evenodd" clip-rule="evenodd" d="M181.832 198.888L201.808 206.619C203.109 207.124 204.555 206.726 205.423 205.703C205.713 205.896 206.077 206.049 206.532 206.135L208.299 205.93L206.806 208.885C206.054 210.372 204.263 211.009 202.741 210.326L179.605 199.941L181.832 198.888ZM226.003 165.867L233.016 152.231C233.016 152.231 232.973 155.218 232.955 156.545C232.95 156.954 232.852 157.357 232.667 157.723L228.223 166.512C227.711 166.135 226.994 165.851 226.003 165.867Z" fill="#557ACB"/>
<path fill-rule="evenodd" clip-rule="evenodd" d="M186.415 160.838C191.535 152.083 196.26 144.006 198.433 140.298C199.188 139.005 200.661 138.311 202.138 138.552C212.383 140.5 225.736 146.389 231.081 148.868C231.646 149.13 232.134 149.542 232.523 149.95C233.18 150.642 233.33 151.675 232.895 152.525L226.051 165.866C224.847 165.874 223.232 166.327 221.072 167.604L204.65 201.774C204.65 201.774 203.656 204.572 205.464 205.728C204.485 206.806 202.914 207.207 201.502 206.651L181.714 198.854L184.403 197.672L192.059 162.132L186.415 160.838Z" fill="#B0C2E7"/>
<path fill-rule="evenodd" clip-rule="evenodd" d="M229.777 154.352C230.074 153.78 230.111 153.109 229.879 152.508C229.647 151.908 229.168 151.435 228.564 151.211C228.484 151.182 228.403 151.151 228.322 151.121C222.478 148.939 211.084 144.241 202.936 142.01C201.364 141.621 199.724 142.322 198.92 143.728C194.032 152.26 177.406 181.305 172.384 190.079C172.02 190.715 171.949 191.48 172.192 192.17C172.433 192.863 172.964 193.415 173.645 193.687C179.642 196.065 193.997 201.763 200.261 204.248C201.969 204.927 203.914 204.201 204.761 202.569C209.681 193.087 225.337 162.912 229.777 154.352Z" fill="white"/>
<path fill-rule="evenodd" clip-rule="evenodd" d="M222.343 146.735C222.473 146.374 222.286 145.976 221.926 145.846L211.088 141.941C210.727 141.811 210.329 141.998 210.199 142.359C210.069 142.719 210.256 143.117 210.617 143.247L221.455 147.153C221.815 147.282 222.214 147.095 222.343 146.735Z" fill="#557ACB"/>
<path fill-rule="evenodd" clip-rule="evenodd" d="M213.396 177.794L212.793 179.048L196.732 172.742L209.782 169.479C213.505 167.103 209.985 163.434 209.985 163.434C207.639 164.047 195.767 162.768 191.833 162.32L200.05 147.354L223.605 156.552L217.746 168.743C215.213 169.369 209.091 171.369 210.404 175.838L213.396 177.794Z" fill="black"/>
<path fill-rule="evenodd" clip-rule="evenodd" d="M203.776 181.092C204.719 180.34 205.719 180.793 205.998 181.508C206.277 182.223 205.835 183.201 204.892 183.952C204.211 184.527 202.979 184.854 202.007 185.003C201.479 184.175 200.91 183.035 200.892 182.143C200.834 180.939 201.276 179.961 201.997 179.698C202.718 179.436 203.719 179.888 203.776 181.092Z" fill="#F2370C"/>
<path fill-rule="evenodd" clip-rule="evenodd" d="M225.429 152.559L202.088 143.644L200.58 146.361L224.137 155.303L225.429 152.559Z" fill="black"/>
<path fill-rule="evenodd" clip-rule="evenodd" d="M206.232 191.383L199.777 204.414L182.626 197.602L187.199 195.609C193.72 191.114 189.493 189.359 189.493 189.359C192.062 188.689 193.265 187.153 193.806 186.093L206.232 191.383Z" fill="black" fill-opacity="0.98"/>
<path fill-rule="evenodd" clip-rule="evenodd" d="M235.787 134.763L229.624 140.858L232.279 143.57L238.822 139.087L235.787 134.763ZM223.098 137.609L225.894 139.536L232.118 131.122L226.773 128.649L223.098 137.609ZM213.704 135.068L217.633 135.819L220.034 127.399L214.632 126.377L213.704 135.068Z" fill="#F2370C"/>
<path fill-rule="evenodd" clip-rule="evenodd" d="M90.6985 150.702L97.0812 189.192C97.1599 189.663 97.4793 188.927 97.95 188.849C98.4207 188.77 98.739 188.324 98.6603 187.853L92.4043 150.417C92.3256 149.946 91.8797 149.628 91.409 149.706C90.938 149.785 90.6198 150.231 90.6985 150.702Z" fill="black"/>
<path fill-rule="evenodd" clip-rule="evenodd" d="M185.039 159.962C185.72 160.082 201.939 162.929 209.552 162.575C210.445 162.534 211.528 163.163 212.114 164.272C212.719 165.417 212.832 167.06 211.528 168.717C210.425 170.119 208.19 171.587 204.07 172.626C199.091 173.882 193.617 175.679 179.812 173.623C179.34 173.553 179.014 173.113 179.084 172.641C179.155 172.168 179.595 171.842 180.067 171.913C193.486 173.911 198.808 172.17 203.647 170.949C206.741 170.169 208.65 169.172 209.738 168.122C210.628 167.261 210.905 166.4 210.786 165.678C210.701 165.167 210.428 164.742 210.095 164.493C209.944 164.38 209.786 164.296 209.632 164.303C201.734 164.669 184.715 161.661 184.715 161.661L184.666 161.651C164.129 156.776 144.15 162.355 127.565 170.777C102.579 183.466 85.2678 202.63 85.2678 202.63C84.9478 202.985 84.4007 203.011 84.0465 202.691C83.6922 202.371 83.6645 201.823 83.9842 201.471C83.9842 201.471 101.499 182.074 126.782 169.235C143.702 160.643 164.089 154.997 185.039 159.962Z" fill="black"/>
<path fill-rule="evenodd" clip-rule="evenodd" d="M193.361 174.749C193.361 174.749 193.903 175.246 194.236 175.979C194.431 176.407 194.56 176.926 194.395 177.474C194.192 178.142 193.585 178.805 192.379 179.45C190.315 180.554 186.683 181.491 180.533 181.985C180.057 182.023 179.702 182.441 179.74 182.916C179.778 183.392 180.196 183.748 180.671 183.709C187.179 183.186 191.011 182.143 193.195 180.975C194.873 180.077 195.668 179.066 195.999 178.131C196.36 177.111 196.192 176.134 195.84 175.33C195.356 174.221 194.524 173.469 194.524 173.469C194.17 173.148 193.623 173.174 193.302 173.528C192.981 173.881 193.008 174.429 193.361 174.749Z" fill="black"/>
<path fill-rule="evenodd" clip-rule="evenodd" d="M192.221 181.189C192.221 181.189 193.883 182.857 193.524 184.739C193.344 185.689 192.613 186.644 190.977 187.507C189.081 188.508 186.073 189.332 181.436 189.798C180.961 189.846 180.614 190.27 180.662 190.745C180.709 191.22 181.133 191.567 181.609 191.519C185.548 191.123 188.375 190.464 190.38 189.675C193.958 188.268 195.092 186.376 195.274 184.723C195.553 182.193 193.466 179.988 193.466 179.988C193.135 179.645 192.587 179.635 192.243 179.966C191.9 180.298 191.89 180.846 192.221 181.189Z" fill="black"/>
<path fill-rule="evenodd" clip-rule="evenodd" d="M180.205 198.309C186.385 195.219 189.016 193.172 189.906 191.764C190.135 191.402 190.229 191.136 190.16 190.919C190.108 190.752 189.966 190.646 189.836 190.562C189.543 190.371 189.23 190.3 189.23 190.3C188.764 190.197 188.469 189.735 188.572 189.269C188.675 188.803 189.136 188.508 189.602 188.611C189.602 188.611 190.21 188.742 190.779 189.112C191.224 189.401 191.63 189.828 191.81 190.399C191.991 190.973 191.972 191.731 191.368 192.688C190.407 194.208 187.639 196.527 180.961 199.866C180.948 199.872 180.935 199.877 180.921 199.883C180.921 199.883 147.136 214.673 114.131 241.53C114.12 241.538 114.108 241.547 114.096 241.556C114.096 241.556 94.398 255.925 75.9378 248.961C68.0253 245.975 60.3039 239.091 54.4898 225.434C54.4832 225.417 54.4769 225.402 54.4711 225.385L44.7426 193.948L46.4052 193.471C46.4052 193.471 55.8014 223.97 56.0911 224.78C61.6564 237.84 68.9774 244.484 76.5483 247.341C93.9339 253.902 112.449 240.616 113.059 240.172C145.759 213.569 179.215 198.745 180.205 198.309Z" fill="black"/>
<path fill-rule="evenodd" clip-rule="evenodd" d="M260.49 136.624C260.49 136.624 271.965 141.197 281.846 150.001C291.606 158.697 299.842 171.557 293.538 188.276C291.315 194.168 281.535 216.388 214.095 203.751C213.626 203.662 213.174 203.973 213.086 204.44C212.998 204.91 213.307 205.362 213.776 205.452C282.979 218.417 292.875 194.932 295.155 188.886C301.767 171.351 293.235 157.831 282.996 148.71C272.879 139.696 261.129 135.017 261.129 135.017C260.686 134.84 260.181 135.057 260.005 135.5C259.829 135.943 260.046 136.447 260.49 136.624Z" fill="black"/>
<path fill-rule="evenodd" clip-rule="evenodd" d="M232.93 157.752L268.509 159.211C268.988 159.23 269.391 158.859 269.409 158.382C269.429 157.905 269.057 157.502 268.581 157.482L233.002 156.024C232.524 156.004 232.123 156.376 232.103 156.852C232.083 157.329 232.455 157.732 232.93 157.752Z" fill="black"/>
<path fill-rule="evenodd" clip-rule="evenodd" d="M224.817 167.271C226.317 166.695 228.003 167.457 228.573 168.943C229.151 170.448 228.4 172.123 226.9 172.698L215.078 177.237C214.633 177.408 214.409 177.903 214.584 178.359C214.759 178.814 215.257 179.032 215.702 178.861L227.524 174.323C229.915 173.405 231.11 170.719 230.19 168.322C229.27 165.925 226.584 164.729 224.193 165.647C223.748 165.818 223.531 166.333 223.699 166.769C223.874 167.224 224.371 167.442 224.817 167.271Z" fill="black"/>
<path fill-rule="evenodd" clip-rule="evenodd" d="M215.078 177.237C213.583 177.811 211.9 177.071 211.322 175.565C210.752 174.08 211.499 172.384 212.994 171.81L224.817 167.271C225.262 167.1 225.486 166.605 225.311 166.15C225.144 165.714 224.638 165.476 224.193 165.647L212.371 170.186C209.98 171.104 208.79 173.788 209.71 176.185C210.63 178.581 213.311 179.779 215.702 178.861C216.147 178.69 216.371 178.195 216.196 177.74C216.021 177.284 215.523 177.066 215.078 177.237Z" fill="black"/>
<path fill-rule="evenodd" clip-rule="evenodd" d="M222.799 176.665C224.299 176.089 225.985 176.851 226.555 178.337C227.133 179.842 226.383 181.517 224.883 182.092L213.061 186.631C212.615 186.802 212.391 187.297 212.566 187.753C212.741 188.208 213.239 188.426 213.684 188.255L225.506 183.717C227.897 182.799 229.092 180.113 228.172 177.716C227.252 175.319 224.566 174.123 222.176 175.041C221.73 175.212 221.514 175.727 221.681 176.163C221.856 176.618 222.354 176.836 222.799 176.665Z" fill="black"/>
<path fill-rule="evenodd" clip-rule="evenodd" d="M213.06 186.631C211.565 187.205 209.882 186.465 209.305 184.96C208.734 183.474 209.481 181.778 210.977 181.204L222.799 176.665C223.244 176.494 223.468 175.999 223.293 175.544C223.126 175.108 222.621 174.87 222.175 175.041L210.353 179.58C207.963 180.498 206.772 183.182 207.692 185.579C208.612 187.975 211.293 189.173 213.684 188.255C214.129 188.084 214.353 187.589 214.178 187.134C214.004 186.678 213.506 186.46 213.06 186.631Z" fill="black"/>
<path fill-rule="evenodd" clip-rule="evenodd" d="M224.566 187.728C225.144 189.234 224.393 190.908 222.893 191.484L211.071 196.023C210.626 196.194 210.402 196.689 210.577 197.144C210.752 197.6 211.25 197.818 211.695 197.647L223.517 193.108C225.908 192.19 227.103 189.504 226.183 187.107C226.016 186.672 225.506 186.436 225.06 186.607C224.615 186.778 224.399 187.292 224.566 187.728Z" fill="black"/>
<path fill-rule="evenodd" clip-rule="evenodd" d="M211.071 196.023C209.576 196.597 207.893 195.856 207.315 194.351C206.745 192.866 207.492 191.17 208.988 190.596L220.81 186.057C222.31 185.481 223.996 186.243 224.566 187.728C224.741 188.184 225.239 188.402 225.684 188.231C226.129 188.06 226.358 187.563 226.183 187.107C225.263 184.711 222.577 183.515 220.186 184.433L208.364 188.972C205.974 189.889 204.783 192.574 205.703 194.97C206.623 197.367 209.304 198.565 211.695 197.647C212.14 197.476 212.364 196.981 212.189 196.525C212.014 196.07 211.517 195.852 211.071 196.023Z" fill="black"/>
<path fill-rule="evenodd" clip-rule="evenodd" d="M222.548 197.122C223.126 198.628 222.376 200.302 220.876 200.878L209.054 205.417C208.608 205.588 208.384 206.083 208.559 206.539C208.734 206.994 209.232 207.212 209.677 207.041L221.499 202.502C223.89 201.584 225.085 198.898 224.165 196.502C223.998 196.066 223.488 195.83 223.043 196.001C222.597 196.172 222.381 196.687 222.548 197.122Z" fill="black"/>
<path fill-rule="evenodd" clip-rule="evenodd" d="M209.054 205.417C207.558 205.991 205.876 205.251 205.298 203.745C204.727 202.26 205.475 200.564 206.97 199.99L218.792 195.451C220.292 194.875 221.978 195.637 222.548 197.122C222.723 197.578 223.221 197.796 223.666 197.625C224.112 197.454 224.34 196.957 224.165 196.502C223.245 194.105 220.559 192.909 218.169 193.827L206.347 198.366C203.956 199.284 202.765 201.968 203.685 204.364C204.605 206.761 207.286 207.959 209.677 207.041C210.122 206.87 210.347 206.375 210.172 205.919C209.997 205.464 209.499 205.246 209.054 205.417Z" fill="black"/>
<path fill-rule="evenodd" clip-rule="evenodd" d="M219.397 91.4523L229.82 98.2121C230.221 98.4715 230.756 98.3574 231.016 97.957C231.276 97.5566 231.162 97.0205 230.761 96.7611L220.338 90.0013C219.938 89.7416 219.402 89.856 219.142 90.2564C218.882 90.6567 218.997 91.1926 219.397 91.4523Z" fill="black"/>
<path fill-rule="evenodd" clip-rule="evenodd" d="M93.4007 59.1355C92.8806 59.3598 92.8765 59.3933 92.3422 59.5962C87.8971 61.2826 82.9749 62.2197 77.7974 62.2197C58.1376 62.2197 42.113 48.7084 42.113 31.9745C42.113 15.2406 58.1376 1.72942 77.7974 1.72942C97.457 1.72942 113.482 15.2406 113.482 31.9745C113.482 40.3254 109.476 47.8826 103.028 53.35C102.559 53.7482 102.579 53.7522 102.084 54.1274C101.704 54.4155 101.629 54.9585 101.917 55.3388C102.206 55.7191 102.749 55.7941 103.129 55.5057C103.662 55.1016 103.641 55.098 104.147 54.669C110.988 48.8675 115.211 40.8356 115.211 31.9745C115.211 14.3685 98.4816 0 77.7974 0C57.113 0 40.3836 14.3685 40.3836 31.9745C40.3836 49.5806 57.113 63.9491 77.7974 63.9491C83.1933 63.9491 88.3232 62.9709 92.9557 61.2131C93.5259 60.9969 93.5309 60.9628 94.0855 60.7234C94.5238 60.5343 94.7261 60.0252 94.5372 59.587C94.3482 59.1488 93.8387 58.9464 93.4007 59.1355Z" fill="black"/>
<path fill-rule="evenodd" clip-rule="evenodd" d="M105.097 69.6523L101.729 55.0965C101.622 54.6316 101.912 54.1666 102.377 54.0591C102.842 53.9516 103.307 54.2415 103.414 54.7065L107.444 72.1256C107.53 72.4991 107.36 72.8851 107.026 73.0736C106.692 73.2621 106.274 73.2079 105.999 72.9407L93.2216 60.5246C92.8792 60.1922 92.8714 59.6442 93.204 59.3018C93.5367 58.9597 94.0847 58.9516 94.4268 59.2842L105.097 69.6523Z" fill="black"/>
<path fill-rule="evenodd" clip-rule="evenodd" d="M61.7591 46.3082C61.7591 46.3082 61.8182 28.0454 61.8426 20.5273C61.8459 19.4557 62.2835 18.4315 63.0557 17.6883C63.8276 16.9451 64.8678 16.5469 65.9388 16.5843C66.1803 16.6015 66.4341 16.617 66.7009 16.6403C66.7009 16.6403 66.5686 12.2461 70.222 12.1747C70.222 12.1747 73.5138 12.0787 73.8385 15.3501C73.8385 15.3501 73.7098 12.2953 77.4022 12.2273C77.4022 12.2273 80.0798 12.2342 80.6524 15.242C80.6524 15.242 81.3717 12.9682 84.0033 12.844C84.0033 12.844 86.9887 12.6016 87.1582 16.9201C87.1582 16.9201 87.7331 13.2126 90.8941 13.6002C90.8941 13.6002 92.7814 13.487 93.3625 19.2549C93.5918 27.7668 94.2623 35.9113 94.516 45.3738C94.516 45.3738 70.4423 48.7415 61.7591 46.3082Z" fill="#EF7B58"/>
<path fill-rule="evenodd" clip-rule="evenodd" d="M66.82 15.4678L66.7008 16.6405C66.7008 16.6405 66.9066 16.685 67.0132 16.711C68.6096 17.1001 70.7278 18.0302 72.6253 18.992C74.6752 20.0316 76.4052 21.461 76.1369 23.5907C76.0337 24.41 75.5134 24.9911 74.3897 25.408C72.9607 25.938 70.7086 26.19 67.2918 26.1922C66.8605 26.1923 66.5105 26.5427 66.5106 26.974C66.5111 27.4056 66.8615 27.7553 67.2928 27.7552C70.9725 27.7528 73.3941 27.444 74.9331 26.8735C76.7776 26.1895 77.5184 25.1306 77.6877 23.7859C78.0387 21.0005 76.0135 18.9578 73.3321 17.5982C71.2731 16.554 68.8563 15.9036 67.1369 15.5342C67.0283 15.5111 66.82 15.4678 66.82 15.4678Z" fill="black"/>
<path fill-rule="evenodd" clip-rule="evenodd" d="M80.0197 35.4792C78.8651 33.7029 77.2894 32.1716 75.7105 30.8109C75.3834 30.5295 75.3468 30.0356 75.6283 29.7089C75.9101 29.3821 76.404 29.3455 76.7307 29.627C78.3997 31.0651 80.0522 32.6917 81.286 34.5634C82.571 33.8316 84.0954 33.445 85.3362 33.4748C85.7673 33.4851 86.1091 33.8433 86.0987 34.2747C86.0884 34.7058 85.7299 35.0476 85.2988 35.0373C84.3106 35.0137 83.0944 35.3222 82.0728 35.907C82.139 36.0368 82.2034 36.1672 82.2653 36.2991C82.8056 37.4505 83.2399 39.0783 82.5942 40.2977C82.2155 41.0127 81.6856 41.3377 81.1601 41.4314C80.6611 41.5207 80.1377 41.3944 79.6832 41.0909C79.0884 40.6938 78.6188 39.9874 78.5257 39.1944C78.3522 37.7156 78.9728 36.4567 80.0036 35.494L80.0197 35.4792ZM80.8174 36.8943C80.2973 37.4738 79.981 38.1838 80.0782 39.0124C80.1103 39.2857 80.252 39.5339 80.4402 39.7041C80.5728 39.8242 80.7269 39.9211 80.8854 39.8927C81.0184 39.869 81.117 39.7469 81.2127 39.566C81.4003 39.212 81.396 38.7972 81.3276 38.3899C81.2426 37.8815 81.0461 37.3805 80.8503 36.9632L80.8174 36.8943Z" fill="black"/>
<path fill-rule="evenodd" clip-rule="evenodd" d="M67.6449 27.3979C67.702 29.699 69.192 31.2949 71.4935 31.2742C73.7712 31.2537 75.575 29.3881 75.5185 27.1108L75.4911 26.0087C75.4804 25.5769 75.2098 25.6967 74.7784 25.7079C74.3471 25.7183 73.9175 25.616 73.9282 26.0471L73.9555 27.1492C73.9903 28.5506 72.8809 29.6985 71.4792 29.7112C70.1013 29.7236 69.2416 28.7371 69.2074 27.3588C69.1968 26.9277 68.838 26.5868 68.407 26.5973C67.9756 26.6077 67.6342 26.9668 67.6449 27.3979Z" fill="black"/>
<path fill-rule="evenodd" clip-rule="evenodd" d="M74.9248 13.0243C74.3764 13.3855 73.9912 14.0814 73.845 15.2645C73.74 14.7608 73.6049 14.2838 73.4097 13.86C73.4097 13.86 73.6883 17.2918 73.7209 18.7214C73.7309 19.1531 74.0891 19.4951 74.5201 19.485C74.9514 19.4756 75.2936 19.1169 75.2836 18.6859C75.2454 17.0179 74.9248 13.0243 74.9248 13.0243Z" fill="black"/>
<path fill-rule="evenodd" clip-rule="evenodd" d="M73.8939 26.1595C73.9149 26.623 73.9431 27.0837 73.9655 27.55C74.0212 29.7951 75.905 31.617 78.1694 31.5966C79.2727 31.5866 80.2643 31.1425 80.9872 30.4297C81.7574 29.6714 82.2235 28.6067 82.1943 27.4322C82.1943 27.4315 81.9157 13.5489 81.9157 13.5489C81.3866 13.9113 81.0645 14.4424 80.6884 15.2498C80.6087 14.6808 80.4783 14.3361 80.3127 14.1456L80.6315 27.4719C80.6494 28.194 80.364 28.8494 79.89 29.3167C79.4451 29.7553 78.8342 30.027 78.1551 30.0331C76.7401 30.0458 75.5627 28.9072 75.5276 27.4922C75.5044 27.0093 75.4763 26.5507 75.4553 26.0893C75.4359 25.6584 75.0393 26.1658 74.6085 26.1857C74.1774 26.2048 73.8745 25.7286 73.8939 26.1595Z" fill="black"/>
<path fill-rule="evenodd" clip-rule="evenodd" d="M80.6349 27.0535C80.691 29.3148 82.5653 31.1927 84.8269 31.1723C87.1046 31.1518 88.9084 29.2859 88.8518 27.0083L88.5357 14.2662C87.8697 14.7863 87.4609 15.7619 87.1378 16.8904L86.9999 15.3998L87.2889 27.0473C87.3237 28.4486 86.2143 29.5966 84.8126 29.6093C83.3951 29.622 82.2326 28.4323 82.1975 27.0146C82.1868 26.5837 81.828 26.2422 81.397 26.2526C80.9656 26.2637 80.6242 26.6226 80.6349 27.0535Z" fill="black"/>
<path fill-rule="evenodd" clip-rule="evenodd" d="M87.3326 26.8349C87.3554 27.7541 87.9027 28.7553 88.7062 29.4863C89.5173 30.2238 90.5651 30.6004 91.4923 30.571C93.152 30.5181 93.7641 28.9488 93.7641 28.9488L93.6035 26.2287C93.6035 26.2287 92.822 28.8628 91.3325 29.0159C90.8024 29.0706 90.2239 28.7537 89.7579 28.3298C89.2842 27.8993 88.9087 27.3379 88.8953 26.7961C88.8846 26.3651 88.5257 26.0233 88.0947 26.0344C87.6634 26.0449 87.3219 26.4038 87.3326 26.8349Z" fill="black"/>
</svg>
