<svg width="333" height="167" viewBox="0 0 333 167" fill="none" xmlns="http://www.w3.org/2000/svg">
<path fill-rule="evenodd" clip-rule="evenodd" d="M6.45415 0L0 6.03424L21.2742 161.263L156.692 166.83L332.873 161.263V141.484L156.692 145.703L31.5168 141.484L6.45415 0Z" fill="#3968BE"/>
<path fill-rule="evenodd" clip-rule="evenodd" d="M6.45557 0L204.076 14.2688L235.283 131.824L332.874 141.484L156.693 146.945L31.5182 141.484L6.45557 0Z" fill="#628DDF"/>
<path fill-rule="evenodd" clip-rule="evenodd" d="M235.487 131.867L60.4829 141.269L156.689 145.468L332.874 141.355V144.351L157.908 148.43V166.779L156.693 166.83L155.45 166.781V148.413L31.4375 143.002C30.7328 142.971 30.145 142.453 30.0257 141.758L6.45557 0L9.40785 0.213237L32.7757 140.06L34.3644 140.13L234.646 129.448C234.938 130.56 235.26 131.77 235.283 131.824C235.287 131.834 235.358 131.848 235.487 131.867Z" fill="white"/>
<path fill-rule="evenodd" clip-rule="evenodd" d="M17.282 10.0195L40.1811 131.824L225.358 124.441L197.258 19.8361L17.282 10.0195Z" fill="white"/>
<path fill-rule="evenodd" clip-rule="evenodd" d="M50.1793 158.63C50.1498 158.518 50.1359 158.399 50.1398 158.276L50.4767 147.93C50.4796 147.844 50.4917 147.758 50.5118 147.676L52.9188 147.776C52.9311 147.852 52.9362 147.93 52.9335 148.012L52.5966 158.358C52.5921 158.497 52.5646 158.628 52.5179 158.753L50.1793 158.63ZM45.7155 158.397C45.6998 158.311 45.6928 158.223 45.6959 158.133L46.0328 147.786C46.0361 147.684 46.0515 147.588 46.0777 147.494L48.4679 147.592C48.4849 147.68 48.4925 147.772 48.4894 147.866L48.1525 158.213C48.149 158.319 48.132 158.424 48.1029 158.522L45.7155 158.397ZM41.2585 158.161C41.2522 158.106 41.2499 158.047 41.2518 157.987L41.5887 147.641C41.5924 147.526 41.6121 147.416 41.6451 147.311L44.0156 147.408C44.0386 147.508 44.049 147.614 44.0455 147.721L43.7086 158.067C43.7061 158.143 43.6967 158.217 43.6811 158.29L41.2585 158.161ZM36.8081 157.93C36.8069 157.901 36.8068 157.873 36.8079 157.844L37.1448 147.498C37.1489 147.367 37.1729 147.244 37.2139 147.129L39.5621 147.225C39.5916 147.338 39.6055 147.455 39.6014 147.578L39.2645 157.924C39.263 157.969 39.2591 158.014 39.2528 158.057L36.8081 157.93ZM32.3638 157.696L32.7007 147.352C32.7054 147.209 32.7345 147.072 32.7837 146.945L35.1071 147.041C35.144 147.164 35.1618 147.297 35.1575 147.432L34.8206 157.778C34.82 157.795 34.8191 157.809 34.8181 157.825L32.3638 157.696Z" fill="#628DDF"/>
<path fill-rule="evenodd" clip-rule="evenodd" d="M140.783 93.0939C140.783 93.0939 138.097 68.4645 136.882 57.3214C136.545 54.2264 138.492 51.3382 141.489 50.4922C143.789 49.8409 145.985 49.2202 145.985 49.2202C145.985 49.2202 144.873 38.5421 153.031 39.0235C154.488 39.1075 155.86 39.7363 156.872 40.7871C157.411 41.3381 157.91 42.0612 158.203 42.9768C158.203 42.9768 159.918 36.4713 166.989 38.9211C166.989 38.9211 169.42 39.3267 169.744 42.4852C169.744 42.4852 170.95 37.6183 176.815 39.9616C176.815 39.9616 179.135 40.7892 179.777 44.7568C179.777 44.7568 179.801 41.0411 184.181 41.0944C185.666 41.1128 187.636 41.6987 188.3 50.7012L191.434 91.5023L140.783 93.0939Z" fill="#DE7861"/>
<path fill-rule="evenodd" clip-rule="evenodd" d="M168.465 61.2539C168.552 59.9102 168.523 57.9376 168.443 55.7008C168.252 50.3546 167.712 43.5459 167.396 39.8363C167.368 39.5147 167.286 39.0661 167.286 39.0661C168.525 39.4963 169.291 40.4692 169.625 41.9358C169.625 41.9358 169.656 42.3025 169.67 42.4889C169.975 46.3029 170.34 51.4156 170.489 55.627C170.571 57.8905 170.579 59.8999 170.493 61.344C170.823 62.6857 171.374 63.5644 172.056 64.1134C173.097 64.9532 174.393 65.0105 175.399 64.9552C177.951 64.8119 178.654 62.5587 178.783 62.0343L177.462 41.5856L177.388 40.246C178.523 40.9834 179.33 42.6835 179.709 44.2361L179.762 44.9756L180.835 62.0322C180.842 62.0978 180.84 62.1613 180.831 62.2248C181.3 62.5587 182.12 63.1076 183.078 63.4456C183.791 63.6976 184.594 63.843 185.364 63.5849C185.999 63.3739 186.495 62.8147 187.11 62.0138C188.666 59.9859 188.871 57.5935 188.871 57.5935L189.144 62.5382C189.144 62.5382 188.078 64.605 186.718 65.2236C185.596 65.7336 184.473 65.8709 183.382 65.6517C182.067 65.3895 180.858 64.7033 180.078 64.1892C179.359 65.4366 178.001 66.8602 175.512 66.9995C174.078 67.0794 172.257 66.9053 170.77 65.709C170.383 65.3956 170.012 65.0126 169.68 64.5394C168.289 66.9298 165.28 68.163 162.755 67.1531C161.634 66.7025 160.569 65.8033 159.811 64.3162C159.737 64.6459 159.641 64.945 159.529 65.2195C159.676 65.3178 159.838 65.4243 159.873 65.4509C160.491 65.9589 161.096 66.4854 161.706 67.0036C164.027 68.9762 166.352 71.0798 168.244 73.4784C168.672 74.0212 169.074 74.5886 169.445 75.1765C169.963 74.7197 170.506 74.2896 171.069 73.8902C172.958 72.5526 175.035 71.6267 177.257 71.0122C177.804 70.8606 178.367 71.1822 178.519 71.7271C178.668 72.272 178.349 72.8352 177.804 72.9868C175.809 73.5358 173.947 74.3613 172.255 75.5616C171.634 76.002 171.042 76.4834 170.481 76.9996C170.59 77.2105 170.692 77.4215 170.794 77.6366C171.321 78.757 171.757 79.9308 172.036 81.1393C172.243 82.0303 172.378 82.9562 172.265 83.8697C172.128 84.9717 171.72 86.1618 170.827 86.891C169.025 88.3618 166.208 87.5342 165.077 85.6579C164.17 84.1544 164.492 82.2167 165.145 80.7132C165.672 79.5068 166.417 78.4006 167.265 77.399C167.484 77.1409 167.71 76.8869 167.941 76.6391C167.546 75.9815 167.109 75.3465 166.636 74.7464C164.828 72.4543 162.599 70.451 160.379 68.5665C159.787 68.0626 159.201 67.5505 158.601 67.0589C158.564 67.0343 158.474 66.9749 158.367 66.9012C157.304 67.8659 155.954 68.1384 155.057 68.1834C150.405 68.4149 149.473 64.2608 149.473 64.2608C149.344 63.7098 149.688 63.1588 150.237 63.0298C150.788 62.9007 151.339 63.2428 151.468 63.7938C151.468 63.7938 152.091 66.2805 154.955 66.1371C155.528 66.1085 156.419 65.9651 157.077 65.2994C157.794 64.5722 158.162 63.2838 157.804 61.0736C157.714 60.5165 158.093 59.99 158.652 59.8999C158.719 59.8876 158.787 59.8856 158.853 59.8876C158.998 59.5599 159.311 59.3202 159.692 59.2834C160.256 59.2301 160.755 59.6459 160.809 60.2071C161.079 63.1035 162.138 64.6992 163.517 65.2502C165.428 66.0163 167.732 64.7012 168.287 62.6037C168.357 62.3374 168.408 61.9708 168.445 61.5201C168.439 61.43 168.447 61.3399 168.465 61.2539ZM168.965 78.5625L168.828 78.7243C168.109 79.5723 167.47 80.5084 167.023 81.5305C166.618 82.4666 166.268 83.667 166.831 84.601C167.368 85.492 168.676 86.0021 169.533 85.3036C170.02 84.9062 170.157 84.22 170.231 83.6178C170.315 82.9418 170.192 82.2597 170.041 81.6002C169.799 80.5514 169.42 79.5375 168.965 78.5625ZM157.964 42.3209C157.392 41.1923 156.692 40.4344 155.817 39.9162L155.803 40.6392L156.368 49.4287C156.403 49.992 156.89 50.4222 157.456 50.3853C158.019 50.3484 158.447 49.8609 158.412 49.2976L157.964 42.3209Z" fill="#8F3536"/>
<path fill-rule="evenodd" clip-rule="evenodd" d="M163.588 54.6786C163.69 55.2727 164.702 62.2576 146.152 66.1945C145.599 66.3113 145.05 65.9774 144.923 65.4264C144.796 64.8754 145.14 64.3244 145.691 64.1974C151.507 62.8536 157.545 60.3424 159.417 58.7405C161.779 56.7188 161.57 55.033 161.57 55.033L161.556 54.9449C161.413 53.6135 160.683 52.6262 159.637 51.8786C158.447 51.0326 156.871 50.4857 155.188 50.119C152.295 49.4902 149.081 49.4082 146.74 49.4656C146.501 49.4717 145.948 49.4943 145.948 49.4943L145.874 47.4521C145.874 47.4521 146.353 47.4316 146.55 47.4275C149.034 47.3619 152.506 47.4398 155.622 48.1178C159.739 49.0109 163.166 51.01 163.588 54.6786Z" fill="#8F3536"/>
<path fill-rule="evenodd" clip-rule="evenodd" d="M52.7409 95.3341C52.7409 95.3341 50.0552 70.7047 48.8402 59.5617C48.5026 56.4666 50.4498 53.5784 53.4467 52.7325C55.7468 52.0811 57.9426 51.4604 57.9426 51.4604C57.9426 51.4604 56.8304 40.7824 64.989 41.2637C66.4454 41.3477 67.8178 41.9766 68.8296 43.0274C69.3684 43.5784 69.8682 44.3014 70.1611 45.217C70.1611 45.217 71.8756 38.7115 78.9465 41.1613C78.9465 41.1613 81.3778 41.5669 81.7015 44.7255C81.7015 44.7255 82.908 39.8586 88.7724 42.2019C88.7724 42.2019 91.0932 43.0294 91.7343 46.9971C91.7343 46.9971 91.7589 43.2814 96.1383 43.3346C97.6233 43.3531 99.5938 43.9389 100.258 52.9414L103.392 93.7425L52.7409 95.3341Z" fill="#AB494A"/>
<path fill-rule="evenodd" clip-rule="evenodd" d="M80.4201 63.4942C80.5061 62.1505 80.4774 60.1779 80.3975 57.9411C80.207 52.5949 79.6663 45.7861 79.3508 42.0766C79.3222 41.755 79.2402 41.3064 79.2402 41.3064C80.4795 41.7366 81.2456 42.7095 81.5794 44.1761C81.5794 44.1761 81.6102 44.5428 81.6245 44.7292C81.9297 48.5432 82.2943 53.6559 82.4438 57.8673C82.5258 60.1308 82.534 62.1402 82.4479 63.5843C82.7777 64.926 83.3287 65.8047 84.0108 66.3537C85.0514 67.1935 86.348 67.2508 87.3537 67.1955C89.906 67.0521 90.6086 64.799 90.7376 64.2746L89.4164 43.8259L89.3427 42.4862C90.4775 43.2237 91.2845 44.9238 91.6635 46.4764L91.7167 47.2159L92.7901 64.2725C92.7962 64.3381 92.7942 64.4016 92.786 64.4651C93.255 64.799 94.0744 65.3479 95.033 65.6859C95.7458 65.9378 96.5488 66.0833 97.319 65.8252C97.954 65.6142 98.4497 65.055 99.0642 64.2541C100.621 62.2262 100.826 59.8338 100.826 59.8338L101.098 64.7785C101.098 64.7785 100.033 66.8453 98.6729 67.4639C97.5504 67.9739 96.4279 68.1112 95.3362 67.892C94.0211 67.6298 92.8126 66.9436 92.0322 66.4295C91.3132 67.6769 89.9552 69.1005 87.4664 69.2398C86.0326 69.3197 84.2116 69.1456 82.7245 67.9493C82.3373 67.6359 81.9666 67.2529 81.6347 66.7797C80.2439 69.1701 77.2349 70.4033 74.7093 69.3934C73.5888 68.9428 72.5237 68.0436 71.7658 66.5564C71.692 66.8862 71.5958 67.1853 71.4831 67.4598C71.6306 67.5581 71.7924 67.6646 71.8272 67.6912C72.4458 68.1992 73.0501 68.7257 73.6605 69.2439C75.9813 71.2165 78.3062 73.3201 80.1988 75.7187C80.6269 76.2615 81.0284 76.8289 81.3992 77.4168C81.9174 76.96 82.4602 76.5299 83.0235 76.1305C84.9121 74.7929 86.9891 73.867 89.2116 73.2525C89.7585 73.1009 90.3218 73.4225 90.4734 73.9674C90.6229 74.5123 90.3034 75.0755 89.7585 75.2271C87.7634 75.7761 85.9015 76.6016 84.2095 77.8019C83.5889 78.2423 82.9969 78.7237 82.4356 79.2399C82.5442 79.4508 82.6466 79.6618 82.749 79.8769C83.2755 80.9973 83.7118 82.171 83.9903 83.3796C84.1972 84.2706 84.3324 85.1965 84.2198 86.11C84.0825 87.212 83.6749 88.4021 82.7818 89.1313C80.9793 90.6021 78.1628 89.7745 77.0321 87.8982C76.1247 86.3947 76.4463 84.457 77.0997 82.9535C77.6261 81.747 78.3717 80.6409 79.2197 79.6393C79.4389 79.3812 79.6642 79.1272 79.8957 78.8793C79.5003 78.2218 79.0641 77.5868 78.5909 76.9867C76.7822 74.6946 74.5536 72.6913 72.3332 70.8068C71.7412 70.3029 71.1554 69.7908 70.5552 69.2992C70.5183 69.2746 70.4282 69.2152 70.3217 69.1415C69.2586 70.1062 67.9087 70.3787 67.0116 70.4237C62.3598 70.6552 61.4278 66.5011 61.4278 66.5011C61.2987 65.9501 61.6428 65.3991 62.1918 65.2701C62.7428 65.141 63.2938 65.4831 63.4228 66.0341C63.4228 66.0341 64.0456 68.5208 66.9091 68.3774C67.4827 68.3488 68.3737 68.2054 69.0312 67.5397C69.7482 66.8125 70.1168 65.5241 69.7584 63.3139C69.6683 62.7568 70.0472 62.2303 70.6064 62.1402C70.674 62.1279 70.7416 62.1259 70.8071 62.1279C70.9526 61.8002 71.266 61.5605 71.647 61.5237C72.2103 61.4704 72.7101 61.8862 72.7633 62.4474C73.0337 65.3438 74.0927 66.9395 75.4712 67.4905C77.3824 68.2566 79.6868 66.9415 80.2419 64.844C80.3115 64.5777 80.3627 64.2111 80.3996 63.7604C80.3934 63.6703 80.4016 63.5802 80.4201 63.4942ZM80.9199 80.8028L80.7826 80.9646C80.0637 81.8126 79.4246 82.7487 78.978 83.7708C78.5725 84.7069 78.2222 85.9072 78.7855 86.8413C79.3222 87.7323 80.631 88.2424 81.4873 87.5439C81.9748 87.1465 82.112 86.4603 82.1858 85.8581C82.2697 85.1821 82.1468 84.5 81.9952 83.8405C81.7535 82.7917 81.3746 81.7778 80.9199 80.8028ZM69.9182 44.5612C69.3467 43.4326 68.6461 42.6747 67.7715 42.1565L67.7571 42.8795L68.3225 51.669C68.3573 52.2323 68.8448 52.6625 69.4102 52.6256C69.9735 52.5887 70.4016 52.1012 70.3667 51.5379L69.9182 44.5612Z" fill="#4B0000"/>
<path fill-rule="evenodd" clip-rule="evenodd" d="M75.5457 56.9188C75.6481 57.5128 76.66 64.4977 58.1101 68.4347C57.5571 68.5514 57.0081 68.2175 56.8811 67.6665C56.7541 67.1155 57.0982 66.5645 57.6492 66.4375C63.4645 65.0938 69.503 62.5825 71.3752 60.9807C73.737 58.959 73.5281 57.2732 73.5281 57.2732L73.5137 57.1851C73.3703 55.8537 72.6411 54.8664 71.5944 54.1187C70.4043 53.2728 68.8291 52.7258 67.1454 52.3592C64.2531 51.7303 61.0393 51.6484 58.698 51.7058C58.4583 51.7119 57.9053 51.7344 57.9053 51.7344L57.8315 49.6922C57.8315 49.6922 58.3108 49.6718 58.5075 49.6677C60.9921 49.6021 64.4641 49.68 67.5796 50.358C71.6968 51.251 75.1237 53.2502 75.5457 56.9188Z" fill="#4B0000"/>
<path fill-rule="evenodd" clip-rule="evenodd" d="M102.444 110.338C102.444 110.338 99.7584 85.7087 98.5433 74.5656C98.2057 71.4706 100.153 68.5824 103.15 67.7364C105.45 67.0851 107.646 66.4644 107.646 66.4644C107.646 66.4644 106.534 55.7863 114.692 56.2677C116.148 56.3517 117.521 56.9805 118.533 58.0313C119.071 58.5823 119.571 59.3054 119.864 60.221C119.864 60.221 121.579 53.7155 128.65 56.1653C128.65 56.1653 131.081 56.5709 131.405 59.7294C131.405 59.7294 132.611 54.8625 138.476 57.2058C138.476 57.2058 140.796 58.0334 141.437 62.001C141.437 62.001 141.462 58.2853 145.841 58.3386C147.326 58.357 149.735 59.3361 150.87 67.716L154.512 108.609L102.444 110.338Z" fill="#4B0000"/>
<path fill-rule="evenodd" clip-rule="evenodd" d="M130.127 78.4981C130.213 77.1544 130.184 75.1818 130.104 72.945C129.914 67.5988 129.373 60.7901 129.057 57.0805C129.029 56.7589 128.947 56.3103 128.947 56.3103C130.186 56.7405 130.952 57.7134 131.286 59.18C131.286 59.18 131.317 59.5467 131.331 59.7331C131.636 63.5471 132.001 68.6598 132.15 72.8712C132.232 75.1347 132.241 77.1441 132.154 78.5882C132.484 79.9299 133.035 80.8086 133.717 81.3576C134.758 82.1974 136.055 82.2547 137.06 82.1994C139.613 82.0561 140.315 79.8029 140.444 79.2785L139.123 58.8298L139.049 57.4902C140.184 58.2276 140.991 59.9277 141.37 61.4803L141.423 62.2198L142.497 79.2764C142.503 79.342 142.501 79.4055 142.493 79.469C142.962 79.8029 143.781 80.3518 144.74 80.6898C145.452 80.9418 146.255 81.0872 147.026 80.8291C147.661 80.6181 148.431 80.0732 149.086 79.3051C150.629 77.4985 151.534 75.1429 151.534 75.1429L151.862 78.8053C151.862 78.8053 150.84 81.673 148.379 82.4678C147.206 82.8467 146.134 83.1151 145.043 82.8959C143.728 82.6337 142.519 81.9475 141.739 81.4334C141.02 82.6808 139.662 84.1044 137.173 84.2437C135.739 84.3236 133.918 84.1495 132.431 82.9532C132.044 82.6398 131.673 82.2568 131.341 81.7836C129.95 84.174 126.941 85.4072 124.416 84.3973C123.295 83.9467 122.23 83.0475 121.472 81.5604C121.399 81.8901 121.302 82.1892 121.19 82.4637C121.337 82.562 121.499 82.6685 121.534 82.6952C122.152 83.2031 122.757 83.7296 123.367 84.2478C125.688 86.2204 128.013 88.324 129.905 90.7226C130.333 91.2654 130.735 91.8329 131.106 92.4207C131.624 91.9639 132.167 91.5338 132.73 91.1344C134.619 89.7968 136.696 88.8709 138.918 88.2564C139.465 88.1048 140.028 88.4264 140.18 88.9713C140.329 89.5162 140.01 90.0794 139.465 90.231C137.47 90.78 135.608 91.6055 133.916 92.8058C133.295 93.2462 132.703 93.7276 132.142 94.2438C132.251 94.4547 132.353 94.6657 132.456 94.8808C132.982 96.0013 133.418 97.175 133.697 98.3835C133.904 99.2745 134.039 100.2 133.926 101.114C133.789 102.216 133.381 103.406 132.488 104.135C130.686 105.606 127.869 104.778 126.739 102.902C125.831 101.399 126.153 99.4609 126.806 97.9574C127.333 96.751 128.078 95.6448 128.926 94.6432C129.145 94.3851 129.371 94.1311 129.602 93.8833C129.207 93.2257 128.771 92.5907 128.297 91.9906C126.489 89.6985 124.26 87.6952 122.04 85.8107C121.448 85.3068 120.862 84.7947 120.262 84.3031C120.225 84.2785 120.135 84.2191 120.028 84.1454C118.965 85.1102 117.615 85.3826 116.718 85.4276C112.066 85.6591 111.134 81.505 111.134 81.505C111.005 80.954 111.349 80.403 111.898 80.274C112.449 80.1449 113 80.487 113.129 81.038C113.129 81.038 113.752 83.5247 116.616 83.3813C117.189 83.3527 118.08 83.2093 118.738 82.5436C119.455 81.8164 119.823 80.528 119.465 78.3178C119.375 77.7607 119.754 77.2342 120.313 77.1441C120.381 77.1318 120.448 77.1298 120.514 77.1318C120.659 76.8041 120.973 76.5644 121.354 76.5276C121.917 76.4743 122.417 76.8901 122.47 77.4513C122.74 80.3477 123.799 81.9434 125.178 82.4944C127.089 83.2605 129.393 81.9454 129.948 79.8479C130.018 79.5816 130.069 79.215 130.106 78.7643C130.1 78.6742 130.108 78.5841 130.127 78.4981ZM130.626 95.8067L130.489 95.9685C129.77 96.8165 129.131 97.7526 128.685 98.7747C128.279 99.7108 127.929 100.911 128.492 101.845C129.029 102.736 130.338 103.246 131.194 102.548C131.681 102.15 131.819 101.464 131.892 100.862C131.976 100.186 131.853 99.5039 131.702 98.8444C131.46 97.7956 131.081 96.7817 130.626 95.8067ZM119.625 59.5651C119.053 58.4365 118.353 57.6786 117.478 57.1604L117.464 57.8834L118.029 66.6729C118.064 67.2362 118.551 67.6664 119.117 67.6295C119.68 67.5926 120.108 67.1051 120.073 66.5418L119.625 59.5651Z" fill="#AB494A"/>
<path fill-rule="evenodd" clip-rule="evenodd" d="M125.249 71.9236C125.351 72.5177 126.363 79.5026 107.813 83.4395C107.26 83.5563 106.711 83.2224 106.584 82.6714C106.457 82.1204 106.802 81.5693 107.353 81.4424C113.168 80.0986 119.206 77.5873 121.079 75.9855C123.44 73.9638 123.231 72.278 123.231 72.278L123.217 72.1899C123.074 70.8585 122.344 69.8712 121.298 69.1236C120.108 68.2776 118.532 67.7307 116.849 67.364C113.956 66.7352 110.743 66.6532 108.401 66.7106C108.162 66.7167 107.609 66.7393 107.609 66.7393L107.535 64.6971C107.535 64.6971 108.014 64.6766 108.211 64.6725C110.696 64.6069 114.167 64.6848 117.283 65.3628C121.4 66.2559 124.827 68.255 125.249 71.9236Z" fill="#AB494A"/>
<path fill-rule="evenodd" clip-rule="evenodd" d="M135.675 33.5393L130.978 43.142C130.679 43.7503 130.931 44.4878 131.541 44.7868C132.149 45.0838 132.887 44.8319 133.184 44.2215L137.883 34.6188C138.182 34.0104 137.93 33.273 137.319 32.976C136.711 32.6769 135.974 32.9289 135.675 33.5393ZM105.896 34.2849L110.73 44.0883C111.029 44.6967 111.768 44.9466 112.377 44.6455C112.985 44.3464 113.235 43.609 112.934 43.0006L108.1 33.1972C107.799 32.5889 107.061 32.339 106.453 32.6401C105.845 32.9391 105.595 33.6765 105.896 34.2849ZM121.912 30.5221L121.697 41.5914C121.684 42.2694 122.223 42.8306 122.901 42.8429C123.579 42.8572 124.14 42.3165 124.155 41.6385L124.368 30.5712C124.382 29.8932 123.841 29.332 123.163 29.3177C122.485 29.3054 121.924 29.8441 121.912 30.5221Z" fill="#FFD275"/>
<path fill-rule="evenodd" clip-rule="evenodd" d="M72.0235 107.568L71.0256 117.48C70.9576 118.156 71.4504 118.759 72.1253 118.828C72.8002 118.896 73.4033 118.402 73.4713 117.728L74.4692 107.814C74.537 107.14 74.0444 106.536 73.3695 106.469C72.6946 106.401 72.0915 106.895 72.0235 107.568ZM84.4263 108.462L85.1043 116.303C85.1627 116.979 85.7587 117.478 86.4345 117.421C87.1104 117.362 87.6115 116.766 87.5531 116.092L86.8751 108.251C86.8167 107.575 86.2206 107.073 85.5449 107.132C84.8689 107.19 84.3677 107.786 84.4263 108.462ZM59.0525 105.69L53.1672 113.791C52.7686 114.34 52.8902 115.108 53.439 115.508C53.9878 115.905 54.7571 115.784 55.1557 115.235L61.0411 107.136C61.4399 106.587 61.318 105.817 60.7692 105.42C60.2205 105.02 59.4513 105.141 59.0525 105.69Z" fill="#FFD275"/>
<path fill-rule="evenodd" clip-rule="evenodd" d="M170.101 105.58L170.762 113.968C170.816 114.644 171.408 115.149 172.084 115.096C172.76 115.043 173.265 114.451 173.212 113.775L172.553 105.387C172.499 104.711 171.905 104.205 171.229 104.258C170.553 104.312 170.048 104.904 170.101 105.58ZM182.092 105.608L185.564 113.875C185.826 114.5 186.547 114.795 187.172 114.533C187.799 114.269 188.091 113.548 187.829 112.923L184.357 104.658C184.095 104.031 183.374 103.738 182.749 104C182.125 104.262 181.83 104.983 182.092 105.608ZM191.649 102.525L199.484 109.435C199.992 109.883 200.771 109.836 201.219 109.326C201.668 108.818 201.619 108.04 201.111 107.591L193.276 100.682C192.766 100.233 191.989 100.283 191.541 100.79C191.092 101.298 191.141 102.077 191.649 102.525Z" fill="#FFD275"/>
</svg>
